<svg width="56" height="56" viewBox="0 0 56 56" fill="none" xmlns="http://www.w3.org/2000/svg">
<g clip-path="url(#clip0_865_904)">
<path fill-rule="evenodd" clip-rule="evenodd" d="M28 0C43.464 0 56 12.536 56 28C56 43.464 43.464 56 28 56C12.536 56 0 43.464 0 28C0 12.536 12.536 0 28 0ZM25.734 14.4661C25.0012 13.6533 23.7511 13.5805 22.9288 14.3026L22.5225 14.6595C21.6849 15.3951 21.6103 16.6735 22.3568 17.5015L30.509 26.5439C31.2164 27.3285 31.1915 28.528 30.4523 29.2827L22.4824 37.4189C21.7024 38.2152 21.7238 39.4955 22.5301 40.2651L22.9197 40.6371C23.7112 41.3927 24.9631 41.3719 25.729 40.5904L36.6839 29.4136C37.4235 28.6589 37.4485 27.4592 36.741 26.6744L25.734 14.4661Z" fill="white"/>
</g>
<defs>
<clipPath id="clip0_865_904">
<rect width="56" height="56" fill="white"/>
</clipPath>
</defs>
</svg>
