<svg width="230" height="230" viewBox="0 0 230 230" fill="none" xmlns="http://www.w3.org/2000/svg">
<path d="M120.458 188.656V205.047H114.828L126.962 219.181L138.345 205.338H132.592V188.656H120.458Z" fill="#EBEBEB"/>
<path d="M146.863 75.0867V80.8548H144.883L149.155 85.8327L153.165 80.9585H151.135V75.0867H146.863Z" fill="#EBEBEB"/>
<path d="M193.144 118.723V130.57H189.074L197.845 140.788L206.072 130.778H201.914V118.723H193.144Z" fill="#EBEBEB"/>
<path d="M28.4638 186.696V198.543H24.3945L33.1652 208.756L41.3976 198.75H37.2345V186.696H28.4638Z" fill="#EBEBEB"/>
<path d="M78.3926 185.96V194.8H75.3555L81.9038 202.424L88.0423 194.958H84.941V185.96H78.3926Z" fill="#EBEBEB"/>
<path d="M154.463 44.078V52.4289H151.594L157.782 59.6341L163.584 52.5771H160.651V44.078H154.463Z" fill="#206FAD"/>
<path opacity="0.3" d="M154.463 44.078V52.4289H151.594L157.782 59.6341L163.584 52.5771H160.651V44.078H154.463Z" fill="black"/>
<path d="M174.634 25.4453C173.866 22.4557 172.279 19.7395 170.052 17.6016C167.826 15.4636 165.047 13.9885 162.029 13.3418C159.011 12.695 155.872 12.9023 152.965 13.9402C150.058 14.9782 147.498 16.8057 145.572 19.2179C145.041 19.1524 144.506 19.1194 143.971 19.1191C142.104 19.0326 140.238 19.3257 138.487 19.9809C136.735 20.636 135.135 21.6395 133.783 22.9306C132.43 24.2218 131.354 25.7738 130.619 27.4928C129.883 29.2119 129.504 31.0622 129.504 32.9319C129.504 34.8017 129.883 36.652 130.619 38.371C131.354 40.0901 132.43 41.6421 133.783 42.9332C135.135 44.2244 136.735 45.2279 138.487 45.883C140.238 46.5381 142.104 46.8313 143.971 46.7448H174.052C176.831 46.7503 179.503 45.6697 181.497 43.7332C183.491 41.7967 184.65 39.1577 184.726 36.3791C184.802 33.6004 183.79 30.902 181.904 28.8594C180.019 26.8168 177.41 25.5917 174.634 25.4453Z" fill="#206FAD"/>
<path d="M177.813 43.0212C177.789 42.9817 178.386 42.6113 179.176 41.8162C180.213 40.7868 181.009 39.5401 181.506 38.1661C182.003 36.792 182.189 35.3248 182.05 33.8702C181.947 32.7541 181.729 32.0825 181.774 32.0726C181.855 32.2163 181.915 32.371 181.952 32.5319C182.079 32.9635 182.173 33.4044 182.233 33.8505C182.426 35.3354 182.261 36.845 181.752 38.2531C181.242 39.6613 180.403 40.927 179.305 41.9446C178.977 42.2539 178.623 42.5347 178.248 42.7841C178.117 42.8863 177.97 42.9664 177.813 43.0212Z" fill="#263238"/>
<path d="M145.957 23.2575C145.957 23.3019 145.191 23.1093 143.957 23.0846C142.346 23.0415 140.745 23.3536 139.269 23.9989C137.792 24.6441 136.476 25.6067 135.413 26.8181C134.593 27.7465 134.228 28.433 134.184 28.4034C134.241 28.2283 134.322 28.062 134.426 27.9095C134.677 27.4816 134.961 27.0738 135.275 26.6897C136.323 25.4185 137.655 24.4122 139.164 23.7524C140.674 23.0925 142.317 22.7978 143.962 22.892C144.46 22.9182 144.955 22.9843 145.443 23.0896C145.621 23.1232 145.794 23.1796 145.957 23.2575Z" fill="#263238"/>
<path d="M155.284 16.4326C155.284 16.4819 154.736 16.5165 153.887 16.7387C152.779 17.0428 151.735 17.5447 150.805 18.2203C149.881 18.8938 149.088 19.7306 148.464 20.6895C147.97 21.4253 147.783 21.9389 147.738 21.9241C147.755 21.7941 147.791 21.6675 147.847 21.5488C147.971 21.2162 148.124 20.8955 148.306 20.5907C148.57 20.1264 148.878 19.6882 149.225 19.282C149.656 18.7996 150.136 18.3628 150.657 17.9783C151.182 17.6014 151.745 17.2803 152.336 17.0202C152.822 16.8092 153.326 16.6439 153.842 16.5264C154.188 16.4507 154.54 16.4044 154.894 16.3881C155.026 16.3825 155.157 16.3975 155.284 16.4326Z" fill="#263238"/>
<path d="M168.217 46.6262C168.217 46.7003 164.158 46.7546 159.15 46.7546C154.142 46.7546 150.078 46.7003 150.078 46.6262C150.078 46.5521 154.138 46.4978 159.15 46.4978C164.163 46.4978 168.217 46.5571 168.217 46.6262Z" fill="#263238"/>
<path d="M169.234 71.5111C169.165 71.5111 169.105 68.1826 169.105 64.1035C169.105 60.0243 169.165 56.6958 169.234 56.6958C169.303 56.6958 169.367 60.0194 169.367 64.1035C169.367 68.1876 169.308 71.5111 169.234 71.5111Z" fill="#263238"/>
<path d="M172.14 78.0002C172.071 78.0002 172.012 73.7186 172.012 68.4344C172.012 63.1503 172.071 58.8687 172.14 58.8687C172.209 58.8687 172.273 63.1503 172.273 68.4344C172.273 73.7186 172.214 78.0002 172.14 78.0002Z" fill="#263238"/>
<path d="M40.7971 81.5514V86.6676H39.0391L42.8268 91.0826L46.3825 86.7615H44.5849V81.5514H40.7971Z" fill="#206FAD"/>
<path opacity="0.3" d="M40.7971 81.5514V86.6676H39.0391L42.8268 91.0826L46.3825 86.7615H44.5849V81.5514H40.7971Z" fill="black"/>
<path d="M53.1522 70.1484C52.6808 68.3169 51.7085 66.6529 50.3442 65.3431C48.98 64.0333 47.2778 63.1295 45.4286 62.7331C43.5794 62.3366 41.6563 62.4633 39.875 63.0988C38.0938 63.7343 36.5248 64.8536 35.3441 66.331C35.0162 66.2934 34.6865 66.2736 34.3564 66.2717C33.228 66.2445 32.1055 66.4432 31.055 66.8562C30.0045 67.2692 29.0472 67.8881 28.2394 68.6766C27.4317 69.4651 26.7898 70.4071 26.3515 71.4474C25.9133 72.4876 25.6875 73.605 25.6875 74.7337C25.6875 75.8625 25.9133 76.9799 26.3515 78.0201C26.7898 79.0604 27.4317 80.0024 28.2394 80.7909C29.0472 81.5794 30.0045 82.1983 31.055 82.6113C32.1055 83.0243 33.228 83.223 34.3564 83.1958H52.7916C54.4922 83.1962 56.1258 82.533 57.3449 81.3474C58.564 80.1618 59.2723 78.5474 59.3193 76.8475C59.3663 75.1476 58.7481 73.4964 57.5964 72.2453C56.4446 70.9942 54.8501 70.2419 53.1522 70.1484Z" fill="#206FAD"/>
<path d="M55.0977 80.9043C55.0977 80.8697 55.4335 80.6327 55.9076 80.1438C56.5281 79.5085 57.0076 78.7496 57.315 77.9165C57.6097 77.079 57.7274 76.1894 57.6607 75.3041C57.6064 74.6226 57.4829 74.2078 57.5224 74.1979C57.7034 74.5336 57.8112 74.9039 57.8385 75.2843C57.9674 76.1997 57.8706 77.1327 57.5564 78.002C57.2423 78.8714 56.7203 79.6507 56.036 80.2722C55.7711 80.5465 55.4514 80.7619 55.0977 80.9043Z" fill="#263238"/>
<path d="M35.5812 68.7953C35.5812 68.8397 35.0874 68.736 34.3516 68.7261C33.3711 68.7079 32.3983 68.9019 31.4999 69.2948C30.6014 69.6878 29.7986 70.2704 29.1464 71.0027C28.6526 71.5608 28.4057 71.9904 28.3711 71.9509C28.5099 71.5563 28.7266 71.1936 29.0082 70.8842C29.6479 70.094 30.4681 69.469 31.3996 69.0616C32.3312 68.6543 33.3469 68.4766 34.3614 68.5434C34.7806 68.5464 35.1951 68.632 35.5812 68.7953Z" fill="#263238"/>
<path d="M41.2945 64.6173C41.016 64.7081 40.7323 64.7823 40.4451 64.8396C39.7763 65.0293 39.1461 65.3352 38.5833 65.7433C38.023 66.1513 37.5369 66.6524 37.1462 67.2248C36.9984 67.4826 36.8334 67.7301 36.6523 67.9656C36.6952 67.6668 36.8049 67.3815 36.9733 67.131C37.3301 66.498 37.8205 65.9503 38.4104 65.526C38.9982 65.0958 39.6721 64.7976 40.3858 64.6519C40.6819 64.5699 40.993 64.558 41.2945 64.6173Z" fill="#263238"/>
<path d="M49.2219 83.1167C49.2219 83.1858 46.7527 83.2451 43.6662 83.2451C40.5796 83.2451 38.1055 83.1858 38.1055 83.1167C38.1055 83.0475 40.5944 82.9883 43.6563 82.9883C46.7181 82.9883 49.2219 83.0426 49.2219 83.1167Z" fill="#263238"/>
<path d="M49.8431 98.3568C49.7159 96.8443 49.673 95.3258 49.7147 93.8085C49.6729 92.2895 49.7158 90.7694 49.8431 89.2552C49.9733 90.7693 50.0162 92.2895 49.9715 93.8085C50.0161 95.3258 49.9732 96.8444 49.8431 98.3568Z" fill="#263238"/>
<path d="M51.6206 102.337C51.5514 102.337 51.4922 99.7099 51.4922 96.4752C51.4922 93.2405 51.5514 90.6133 51.6206 90.6133C51.6897 90.6133 51.749 93.2405 51.749 96.4752C51.749 99.7099 51.6947 102.337 51.6206 102.337Z" fill="#263238"/>
<path d="M95.6444 172.725V196.661H87.4219L105.146 217.304L121.774 197.081H113.368V172.725H95.6444Z" fill="#206FAD"/>
<path opacity="0.3" d="M95.6444 172.725V196.661H87.4219L105.146 217.304L121.774 197.081H113.368V172.725H95.6444Z" fill="black"/>
<path d="M153.443 119.325C151.237 110.759 146.689 102.977 140.308 96.8513C133.927 90.7257 125.966 86.499 117.317 84.6453C108.668 82.7915 99.6736 83.3839 91.3425 86.3562C83.0115 89.3285 75.6733 94.563 70.151 101.473C68.6301 101.29 67.0999 101.194 65.5681 101.186C55.0678 101.186 44.9975 105.357 37.5726 112.782C30.1478 120.207 25.9766 130.277 25.9766 140.778C25.9766 151.278 30.1478 161.348 37.5726 168.773C44.9975 176.198 55.0678 180.369 65.5681 180.369H151.774C159.734 180.375 167.382 177.273 173.089 171.724C178.796 166.175 182.111 158.617 182.329 150.66C182.546 142.703 179.649 134.975 174.254 129.122C168.858 123.27 161.391 119.754 153.443 119.325Z" fill="#206FAD"/>
<path d="M75.335 126.53C75.3084 126.446 75.2951 126.357 75.2955 126.269C75.2955 126.071 75.2659 125.824 75.2461 125.523C75.2461 125.355 75.2461 125.177 75.2165 124.98C75.1869 124.782 75.1671 124.57 75.1424 124.343C75.0782 123.883 75.0387 123.355 74.9103 122.792C74.856 122.506 74.7967 122.204 74.7325 121.893C74.6683 121.582 74.5696 121.271 74.4856 120.94C74.3325 120.273 74.0757 119.587 73.8288 118.861C73.2354 117.313 72.4963 115.825 71.6213 114.416C70.7178 113.017 69.6844 111.706 68.5348 110.5C67.9866 109.967 67.473 109.443 66.9397 109.019C66.6779 108.801 66.4458 108.579 66.1841 108.387L65.4483 107.843C64.9939 107.483 64.5347 107.221 64.1495 106.969L63.6062 106.624L63.1124 106.367L62.4605 105.996C62.3796 105.96 62.3047 105.912 62.2383 105.853C62.3218 105.878 62.4028 105.912 62.4803 105.952L63.1618 106.278L63.6556 106.52C63.8285 106.614 64.0112 106.727 64.2137 106.846C64.6729 107.105 65.118 107.389 65.547 107.695L66.2927 108.229C66.5545 108.416 66.7866 108.643 67.0681 108.856C67.6352 109.321 68.1775 109.815 68.6928 110.337C71.0686 112.739 72.8935 115.629 74.0412 118.807C74.2919 119.496 74.5062 120.198 74.6832 120.91C74.7622 121.246 74.8609 121.562 74.9202 121.898C74.9795 122.234 75.0289 122.515 75.0782 122.802C75.1711 123.322 75.2371 123.846 75.2758 124.372C75.2758 124.604 75.3202 124.817 75.3301 125.019C75.34 125.222 75.3301 125.395 75.3301 125.562V126.313C75.3362 126.385 75.3378 126.458 75.335 126.53Z" fill="#263238"/>
<path d="M59.1312 118.876C59.0967 118.91 58.5781 118.382 57.6497 117.695C55.1888 115.868 52.265 114.766 49.2099 114.515C48.0395 114.416 47.3086 114.461 47.3086 114.416C47.469 114.369 47.6353 114.346 47.8024 114.347C48.2694 114.316 48.738 114.316 49.205 114.347C52.3191 114.494 55.308 115.617 57.7485 117.557C58.117 117.846 58.4651 118.159 58.7905 118.496C58.9184 118.609 59.0327 118.736 59.1312 118.876Z" fill="#263238"/>
<path d="M77.2657 152.67C77.0063 152.696 76.7449 152.696 76.4855 152.67C75.9916 152.67 75.2508 152.67 74.352 152.625C72.5544 152.561 70.0704 152.413 67.3345 152.131C64.5986 151.85 62.1343 151.524 60.3565 151.233C59.4676 151.089 58.7515 150.966 58.2576 150.867C57.9979 150.83 57.7418 150.77 57.4922 150.689C57.7538 150.697 58.0146 150.723 58.2725 150.768L60.3861 151.055C62.164 151.297 64.6282 151.608 67.3592 151.875C70.0902 152.141 72.5693 152.319 74.3619 152.428L76.4855 152.556C76.7479 152.576 77.0086 152.614 77.2657 152.67Z" fill="#263238"/>
<path d="M152.148 119.083C152.057 119.104 151.964 119.115 151.871 119.118L151.076 119.172C150.735 119.172 150.311 119.211 149.827 119.276C149.343 119.34 148.78 119.37 148.172 119.478L147.214 119.631C146.883 119.686 146.543 119.77 146.187 119.839C145.476 119.972 144.73 120.184 143.94 120.392C140.533 121.361 137.304 122.87 134.374 124.861C133.708 125.33 133.066 125.765 132.508 126.229C132.221 126.456 131.94 126.664 131.688 126.881L130.957 127.518C130.463 127.913 130.093 128.318 129.737 128.654C129.382 128.99 129.09 129.296 128.853 129.553L128.305 130.125C128.243 130.196 128.174 130.259 128.098 130.313C128.145 130.233 128.202 130.159 128.266 130.091C128.399 129.928 128.572 129.73 128.759 129.483C128.947 129.237 129.253 128.901 129.619 128.555C129.984 128.209 130.345 127.79 130.814 127.385L131.54 126.733C131.792 126.506 132.073 126.293 132.355 126.061C132.913 125.567 133.555 125.143 134.221 124.664C137.173 122.632 140.445 121.111 143.901 120.165C144.696 119.962 145.451 119.755 146.167 119.631C146.528 119.562 146.874 119.483 147.209 119.434L148.197 119.3C148.81 119.202 149.372 119.177 149.861 119.132C150.282 119.091 150.703 119.071 151.126 119.073H151.921C151.997 119.069 152.073 119.072 152.148 119.083Z" fill="#263238"/>
<path d="M149.709 180.636C149.709 180.71 130.622 180.764 107.086 180.764C83.5491 180.764 64.457 180.71 64.457 180.636C64.457 180.562 83.5392 180.508 107.086 180.508C130.632 180.508 149.709 180.567 149.709 180.636Z" fill="#263238"/>
<path d="M46.769 197.768C46.6999 197.768 46.6406 194.197 46.6406 189.797C46.6406 185.397 46.6999 181.821 46.769 181.821C46.8382 181.821 46.8974 185.387 46.8974 189.797C46.8974 194.207 46.8382 197.768 46.769 197.768Z" fill="#263238"/>
<path d="M50.0073 212.474C49.9382 212.474 49.8789 207.452 49.8789 201.259C49.8789 195.066 49.9382 190.044 50.0073 190.044C50.0764 190.044 50.1357 195.061 50.1357 201.259C50.1357 207.457 50.0715 212.474 50.0073 212.474Z" fill="#263238"/>
<g opacity="0.3">
<path d="M164.379 135.188C163.392 129.553 155.92 123.829 149.48 125.118C143.87 126.234 137.83 127.538 132.284 128.94C129.993 129.518 127.622 126.738 125.706 125.36C124.719 124.639 124.106 123.483 123.479 122.397C119.909 116.328 114.032 111.774 107.469 109.231C100.905 106.688 93.6855 106.08 86.6877 106.846C81.2554 107.443 75.3293 109.315 72.786 114.155C71.7686 116.105 71.3637 118.446 69.7883 119.977C67.6845 122.012 64.356 121.849 61.6152 122.881C56.1335 124.945 53.3581 132.783 54.0495 138.595C54.7409 144.408 59.9114 151.899 70.7809 153.094C70.7809 153.094 110.155 153.44 129.598 154.383C136.339 154.709 138.373 153.781 145.114 153.603C157.011 153.317 166.157 145.524 164.379 135.188Z" fill="black"/>
</g>
<path d="M92.0484 163.51C92.7101 163.342 93.4509 162.66 94.0238 162.295C95.4263 161.393 96.814 160.466 98.1869 159.514C93.2484 158.082 89.0754 156.951 84.1469 155.564C83.9777 157.539 84.1616 159.529 84.6901 161.44C85.1444 162.966 86.0136 164.591 87.5544 164.996C88.952 165.361 90.3742 164.591 91.6089 163.831L91.9496 163.618" fill="#E0E0E0"/>
<path d="M92.8953 160.784C92.8212 160.784 92.8509 160.137 92.678 159.381C92.5052 158.625 92.1842 158.062 92.2731 158.023C92.5957 158.397 92.8213 158.844 92.9298 159.325C93.0383 159.807 93.0265 160.308 92.8953 160.784Z" fill="#263238"/>
<path d="M93.9548 160.522C93.904 160.155 93.8776 159.786 93.8757 159.416C93.7991 159.054 93.748 158.688 93.7227 158.319C93.9505 158.634 94.0919 159.003 94.1326 159.39C94.1734 159.776 94.112 160.166 93.9548 160.522Z" fill="#263238"/>
<path d="M87.4468 156.482C87.4912 156.482 87.348 156.976 87.3381 157.82C87.3224 158.893 87.5898 159.951 88.1134 160.887C88.614 161.836 89.299 162.675 90.1283 163.356C90.4989 163.603 90.8906 163.816 91.2987 163.993C91.1741 164 91.0494 163.98 90.9333 163.934C90.6105 163.838 90.3041 163.693 90.0246 163.504C89.1342 162.844 88.4034 161.991 87.8863 161.01C87.3409 160.036 87.0888 158.925 87.1603 157.81C87.1763 157.477 87.2276 157.146 87.3134 156.823C87.3356 156.702 87.3808 156.586 87.4468 156.482Z" fill="#455A64"/>
<path d="M91.299 157.623C91.7315 158.535 92.0023 159.516 92.0991 160.522C92.2734 161.512 92.2734 162.524 92.0991 163.514C92.02 163.514 92.0744 162.176 91.8521 160.551C91.6299 158.927 91.22 157.647 91.299 157.623Z" fill="#455A64"/>
<path d="M90.1797 162.877C89.8861 162.71 89.621 162.496 89.3945 162.245C88.7923 161.691 88.291 161.036 87.913 160.309C87.5356 159.573 87.3795 158.743 87.4636 157.919C87.478 157.575 87.5911 157.242 87.7895 156.961C87.829 156.961 87.6809 157.331 87.6463 157.949C87.6175 158.732 87.7874 159.51 88.1402 160.211C88.509 160.911 88.9708 161.559 89.513 162.137C89.7589 162.361 89.9821 162.609 90.1797 162.877Z" fill="#206FAD"/>
<path d="M97.0874 160.201C96.5551 160.632 95.9711 160.995 95.349 161.282C94.767 161.642 94.1435 161.931 93.4922 162.141C94.022 161.705 94.6064 161.34 95.2305 161.055C95.8118 160.695 96.4355 160.408 97.0874 160.201Z" fill="#206FAD"/>
<path d="M89.2216 162.947C88.8121 163.393 88.2958 163.728 87.7213 163.919C87.1468 164.111 86.533 164.154 85.9375 164.043C85.9375 163.969 86.7326 163.984 87.6413 163.673C88.5499 163.361 89.1771 162.887 89.2216 162.947Z" fill="#455A64"/>
<path d="M87.5492 160.418C87.5492 160.492 86.8825 160.586 86.1417 160.912C85.401 161.238 84.8824 161.692 84.8281 161.638C85.1148 161.196 85.5379 160.859 86.0331 160.68C86.4952 160.426 87.0288 160.334 87.5492 160.418Z" fill="#455A64"/>
<path d="M87.2238 158.171C86.6917 157.988 86.1492 157.836 85.5991 157.717C85.0365 157.688 84.4728 157.688 83.9102 157.717C84.4386 157.437 85.0486 157.351 85.6337 157.475C86.2305 157.507 86.7955 157.754 87.2238 158.171Z" fill="#455A64"/>
<path d="M125.031 151.03C125.061 151.075 106.507 155.549 106.507 155.549L103.781 149.163L105.031 147.232C105.031 147.232 112.873 145.459 119.253 141.849L125.031 151.03Z" fill="#FFBE9D"/>
<path d="M81.497 132.837C81.497 132.837 80.6476 131.597 77.0524 129.834C74.0647 128.353 66.3953 127.148 63.289 133.148C60.1827 139.148 62.568 148.353 67.7336 150.319C72.8992 152.284 81.497 154.976 85.0181 156.112C88.5392 157.247 100.12 160.146 100.12 160.146L104.881 157.356L105.444 148.467C105.444 148.467 98.8804 141.726 93.295 139.864C87.7096 138.002 81.497 132.837 81.497 132.837Z" fill="#263238"/>
<path d="M70.7773 128.649C70.8267 128.575 76.0417 128.723 79.8493 130.16C81.2814 130.698 82.6839 131.276 82.6839 131.276L84.7877 125.281L100.556 120.026H118.014L123.693 131.276V131.844C123.693 131.844 130.513 131.958 133.466 130.595C136.419 129.232 145.619 125.251 148.005 124.456C150.39 123.661 161.072 122.135 163.457 128.634C165.842 135.133 164.153 141.914 160.163 144.393C158.282 145.558 126.537 153.776 126.537 153.776L119.036 141.844C119.036 141.844 107.608 147.509 103.781 146.892C99.9537 146.274 70.7773 128.649 70.7773 128.649Z" fill="#263238"/>
<path d="M102.977 122.925C103.01 123 103.037 123.078 103.056 123.157C103.1 123.335 103.159 123.557 103.229 123.824C103.372 124.407 103.554 125.261 103.722 126.318C104.108 128.432 104.493 131.38 104.789 134.644C105.085 137.909 105.243 140.872 105.308 143.04C105.342 144.111 105.352 144.98 105.352 145.583C105.352 145.859 105.352 146.077 105.352 146.274C105.366 146.354 105.366 146.436 105.352 146.516C105.336 146.436 105.326 146.356 105.322 146.274C105.322 146.087 105.322 145.859 105.288 145.583C105.253 144.946 105.214 144.101 105.159 143.049C105.051 140.906 104.858 137.948 104.567 134.684C104.275 131.419 103.915 128.486 103.579 126.367C103.416 125.311 103.258 124.456 103.145 123.869C103.095 123.597 103.051 123.375 103.016 123.187C102.989 123.103 102.975 123.014 102.977 122.925Z" fill="#455A64"/>
<path d="M123.519 132.121C123.519 132.19 119.569 132.689 114.675 133.232C109.781 133.775 105.815 134.16 105.785 134.086C105.756 134.012 109.736 133.518 114.63 132.975C119.524 132.432 123.509 132.052 123.519 132.121Z" fill="#455A64"/>
<path d="M120.914 132.145C120.725 132.154 120.536 132.139 120.351 132.101C119.99 132.052 119.472 131.987 118.825 131.923C117.147 131.74 115.46 131.663 113.773 131.691C112.087 131.724 110.405 131.859 108.735 132.096L107.219 132.328C107.034 132.37 106.846 132.393 106.656 132.397C106.83 132.32 107.012 132.265 107.199 132.234C107.55 132.14 108.064 132.032 108.706 131.918C112.057 131.333 115.479 131.273 118.849 131.74C119.491 131.834 120.01 131.923 120.365 132.002C120.552 132.032 120.736 132.08 120.914 132.145Z" fill="#455A64"/>
<path d="M123.327 131.464C122.244 130.933 121.111 130.512 119.944 130.21C118.757 129.992 117.55 129.897 116.344 129.928C116.685 129.809 117.044 129.749 117.406 129.75C119.153 129.649 120.895 130.034 122.438 130.861C122.764 131.014 123.064 131.217 123.327 131.464Z" fill="#455A64"/>
<path d="M108.788 141.227C108.339 141.677 107.791 142.015 107.188 142.215C106.617 142.49 105.989 142.624 105.355 142.605C105.355 142.531 106.151 142.353 107.089 141.973C108.027 141.593 108.743 141.168 108.788 141.227Z" fill="#455A64"/>
<path d="M107.949 143.44C107.131 143.878 106.186 144.014 105.277 143.825C105.712 143.704 106.16 143.633 106.611 143.612C107.049 143.507 107.498 143.449 107.949 143.44Z" fill="#455A64"/>
<path d="M134.778 131.029C134.706 131.09 134.628 131.143 134.546 131.187L133.859 131.597L131.301 133.079L122.817 137.849L114.293 142.556L111.696 143.958L110.979 144.329C110.897 144.374 110.811 144.412 110.723 144.442C110.794 144.381 110.872 144.328 110.955 144.284L111.646 143.869L114.204 142.388L122.689 137.617L131.212 132.911L133.81 131.513L134.521 131.143C134.6 131.092 134.687 131.054 134.778 131.029Z" fill="#455A64"/>
<path d="M148.099 128.516C147.994 128.55 147.887 128.576 147.778 128.595L146.859 128.782C146.059 128.95 144.909 129.217 143.506 129.612C139.859 130.674 136.321 132.078 132.938 133.805C128.957 135.78 125.53 137.904 123.021 139.42L120.058 141.227L119.248 141.721C119.155 141.78 119.058 141.831 118.957 141.874C119.039 141.799 119.128 141.733 119.224 141.677L120.004 141.153C120.685 140.704 121.673 140.057 122.908 139.277C125.377 137.716 128.834 135.588 132.809 133.583C136.205 131.847 139.767 130.461 143.442 129.444C144.859 129.069 146.02 128.832 146.825 128.698C147.225 128.619 147.541 128.585 147.753 128.555C147.866 128.528 147.982 128.514 148.099 128.516Z" fill="#455A64"/>
<path d="M155.917 126.269C155.917 126.313 155.344 126.269 154.436 126.269C153.238 126.304 152.05 126.483 150.895 126.802C149.742 127.124 148.632 127.582 147.586 128.165C146.781 128.619 146.317 128.955 146.292 128.921C146.268 128.886 146.386 128.807 146.589 128.644C146.876 128.415 147.178 128.203 147.492 128.012C148.528 127.369 149.65 126.878 150.826 126.555C151.999 126.23 153.213 126.072 154.431 126.086C154.799 126.089 155.167 126.116 155.532 126.165C155.665 126.181 155.795 126.216 155.917 126.269Z" fill="#455A64"/>
<path d="M153.169 128.358C153.169 128.432 151.845 128.259 150.206 128.318C148.566 128.377 147.292 128.634 147.277 128.56C148.213 128.224 149.202 128.057 150.196 128.066C151.196 127.987 152.203 128.085 153.169 128.358Z" fill="#455A64"/>
<path d="M147.441 126.343C147.476 126.412 146.34 127.014 145.076 127.958C143.812 128.901 142.898 129.809 142.844 129.755C143.413 128.97 144.117 128.291 144.923 127.75C145.675 127.139 146.527 126.663 147.441 126.343Z" fill="#455A64"/>
<path d="M164.151 131.978C164.134 132.013 164.116 132.048 164.096 132.081L163.933 132.373C163.78 132.634 163.553 133.005 163.222 133.464C162.296 134.778 161.175 135.943 159.899 136.921C157.998 138.342 155.944 139.546 153.775 140.511C151.345 141.632 148.575 142.62 145.671 143.637L130.787 148.847L126.263 150.393L125.033 150.803L124.707 150.907C124.671 150.921 124.633 150.929 124.594 150.931L124.697 150.882L125.014 150.754L126.233 150.299L130.727 148.674L145.587 143.395C148.491 142.378 151.256 141.42 153.681 140.294C155.838 139.345 157.886 138.166 159.79 136.778C161.068 135.82 162.203 134.686 163.163 133.41C163.499 132.96 163.746 132.595 163.909 132.348L164.096 132.066C164.133 132.004 164.151 131.974 164.151 131.978Z" fill="#455A64"/>
<path d="M104.351 157.672C104.228 157.637 104.108 157.594 103.99 157.544L102.973 157.134C102.094 156.773 100.825 156.235 99.2693 155.549C96.1531 154.181 91.8616 152.225 87.2195 149.949C82.5774 147.672 78.3945 145.504 75.4462 143.775C73.9647 142.926 72.7992 142.205 71.9893 141.687L71.0757 141.079C70.9663 141.014 70.8637 140.938 70.7695 140.852C70.8862 140.904 70.9985 140.965 71.1053 141.035L72.0387 141.603C72.8536 142.096 74.0388 142.793 75.5252 143.613C78.4883 145.277 82.6662 147.43 87.3232 149.716C91.9801 152.003 96.242 153.973 99.3335 155.381L103.013 157.065L104 157.514C104.122 157.555 104.24 157.608 104.351 157.672Z" fill="#455A64"/>
<path d="M72.0039 131.765C72.1354 131.65 72.2836 131.555 72.4434 131.484C72.8594 131.262 73.292 131.074 73.7373 130.921C75.2209 130.408 76.8014 130.239 78.3597 130.427C79.9162 130.575 81.4325 131.007 82.8339 131.701C83.2521 131.921 83.6433 132.19 83.9994 132.501C84.1373 132.606 84.2589 132.731 84.3599 132.871C83.8457 132.499 83.3079 132.161 82.75 131.859C81.3431 131.226 79.8414 130.828 78.3054 130.684C76.7848 130.498 75.2422 130.632 73.7768 131.079C72.6657 131.439 72.0237 131.81 72.0039 131.765Z" fill="#455A64"/>
<path d="M105.435 148.472C105.349 148.424 105.271 148.365 105.203 148.294L104.571 147.756C104.023 147.262 103.213 146.62 102.205 145.81C100.19 144.195 97.3458 142.032 94.2099 139.637L91.9284 137.884C91.1827 137.331 90.4468 136.857 89.6962 136.402C88.2147 135.528 86.8813 134.783 85.8096 134.047C84.9523 133.482 84.1532 132.834 83.4244 132.111C83.2262 131.917 83.0382 131.712 82.8614 131.498C82.7924 131.429 82.7327 131.351 82.6836 131.266C82.6836 131.266 82.9651 131.553 83.4935 132.042C84.2426 132.729 85.0507 133.348 85.9084 133.894C86.985 134.605 88.3431 135.331 89.8197 136.2C90.5555 136.639 91.3012 137.113 92.0765 137.681C92.8519 138.249 93.5581 138.837 94.363 139.435C97.4989 141.83 100.329 144.012 102.319 145.672C103.307 146.497 104.112 147.183 104.635 147.677C104.907 147.924 105.104 148.121 105.237 148.26C105.31 148.324 105.376 148.395 105.435 148.472Z" fill="#455A64"/>
<path d="M92.4141 136.16C93.012 136.346 93.5989 136.565 94.1721 136.817C95.2537 137.237 96.75 137.805 98.434 138.323C100.118 138.842 101.659 139.267 102.78 139.543C103.394 139.676 104 139.841 104.597 140.037C104.431 140.044 104.265 140.028 104.103 139.988C103.782 139.943 103.318 139.859 102.75 139.741C101.269 139.432 99.8057 139.046 98.3649 138.585C96.9217 138.131 95.5026 137.603 94.1129 137.005C93.5845 136.773 93.1548 136.575 92.8635 136.432C92.7037 136.359 92.5529 136.268 92.4141 136.16Z" fill="#455A64"/>
<path d="M97.8742 131.785C97.2899 131.922 96.6979 132.024 96.1013 132.091C95.005 132.254 93.4889 132.486 91.8247 132.782C90.1604 133.079 88.6591 133.39 87.5727 133.617C86.991 133.764 86.4005 133.873 85.8047 133.943C85.9485 133.869 86.1012 133.815 86.259 133.78C86.5553 133.691 86.9899 133.573 87.5282 133.439C88.6097 133.168 90.1061 132.832 91.7802 132.531C93.4543 132.229 94.9704 132.037 96.0767 131.908C96.6298 131.849 97.0643 131.81 97.3903 131.79C97.5505 131.765 97.7136 131.763 97.8742 131.785Z" fill="#455A64"/>
<path d="M95.5336 128.886C95.5336 128.926 94.8521 128.985 93.7656 129.148C90.9218 129.567 88.1599 130.423 85.5777 131.686C84.59 132.18 83.9924 132.511 83.9727 132.471C84.0888 132.36 84.2202 132.265 84.3628 132.19C84.6196 132.017 85.0048 131.79 85.4937 131.523C86.7729 130.841 88.114 130.282 89.4988 129.854C90.8822 129.427 92.3024 129.129 93.7409 128.965C94.294 128.906 94.7286 128.876 95.0496 128.871C95.2107 128.851 95.374 128.856 95.5336 128.886Z" fill="#455A64"/>
<path d="M115.377 153.82L112.414 160.734C113.505 161.722 117.654 162.354 119.116 162.28C120.577 162.206 122.691 162.221 124.148 162.058C126.004 161.908 127.87 161.921 129.723 162.097C131.578 162.273 133.447 162.238 135.294 161.993C137.145 161.739 138.872 160.914 140.232 159.633C140.89 159.052 141.387 158.311 141.677 157.483C141.966 156.654 142.038 155.765 141.884 154.901C141.731 154.037 141.358 153.226 140.802 152.548C140.245 151.869 139.524 151.345 138.706 151.025C137.217 150.392 135.585 150.168 133.98 150.378C132.384 150.589 130.81 150.946 129.279 151.445C127.634 151.939 125.95 152.433 124.242 152.284C123.896 152.255 123.55 152.284 123.21 152.205C120.977 151.791 118.651 151.771 116.641 153.035C116.246 153.287 115.797 153.509 115.377 153.82Z" fill="#E0E0E0"/>
<path d="M115.809 154.596C115.888 154.505 115.975 154.422 116.07 154.349C116.336 154.129 116.62 153.932 116.92 153.761C118.034 153.12 119.32 152.842 120.599 152.966C121.399 153.045 122.258 153.208 123.187 153.346C124.164 153.52 125.16 153.569 126.15 153.489C127.237 153.343 128.308 153.097 129.35 152.754C130.484 152.378 131.657 152.13 132.846 152.013C134.043 151.897 135.252 152.001 136.412 152.319C136.962 152.478 137.495 152.693 138.002 152.961C138.494 153.211 138.939 153.545 139.316 153.949C140.01 154.703 140.498 155.623 140.733 156.62C140.848 157.074 140.864 157.548 140.777 158.008C140.684 158.431 140.517 158.834 140.284 159.198C139.893 159.817 139.368 160.341 138.748 160.729C138.287 161.023 137.799 161.273 137.291 161.475C136.876 161.648 136.55 161.761 136.328 161.84C136.217 161.886 136.101 161.919 135.982 161.939C136.086 161.88 136.195 161.831 136.308 161.791C136.525 161.697 136.846 161.569 137.251 161.386C137.744 161.166 138.218 160.907 138.669 160.611C139.261 160.223 139.758 159.709 140.126 159.104C140.352 158.745 140.503 158.343 140.568 157.924C140.633 157.504 140.612 157.076 140.506 156.665C140.267 155.711 139.792 154.832 139.123 154.112C138.347 153.348 137.38 152.807 136.323 152.546C135.197 152.242 134.027 152.142 132.866 152.25C130.456 152.428 128.318 153.529 126.174 153.731C125.167 153.805 124.155 153.749 123.162 153.563C122.234 153.41 121.379 153.237 120.589 153.149C119.341 153.02 118.083 153.264 116.974 153.85C116.573 154.078 116.184 154.327 115.809 154.596Z" fill="#455A64"/>
<path d="M136 161.969C136 161.969 135.891 161.875 135.733 161.667C135.634 161.546 135.543 161.417 135.461 161.282C135.346 161.108 135.242 160.927 135.15 160.739C134.899 160.257 134.692 159.753 134.533 159.233C134.34 158.588 134.208 157.927 134.138 157.257C134.079 156.592 134.079 155.923 134.138 155.257C134.19 154.716 134.291 154.18 134.439 153.657C134.492 153.454 134.558 153.255 134.637 153.06C134.688 152.911 134.749 152.766 134.819 152.625C134.938 152.393 135.007 152.27 135.022 152.279C135.037 152.289 134.824 152.813 134.617 153.702C134.493 154.219 134.412 154.746 134.375 155.277C134.336 155.927 134.346 156.579 134.405 157.228C134.479 157.875 134.603 158.516 134.775 159.144C134.92 159.652 135.105 160.147 135.328 160.625C135.689 161.509 136.029 161.944 136 161.969Z" fill="#263238"/>
<path d="M117.201 152.852C117.265 152.887 117.201 153.144 117.058 153.44C116.914 153.736 116.801 153.973 116.732 153.934C116.662 153.894 116.692 153.638 116.82 153.326C116.949 153.015 117.141 152.818 117.201 152.852Z" fill="#455A64"/>
<path d="M119.308 152.032C119.372 152.062 119.308 152.314 119.224 152.61C119.14 152.907 119.016 153.144 118.947 153.104C118.878 153.065 118.878 152.818 118.977 152.507C119.075 152.195 119.243 152.003 119.308 152.032Z" fill="#455A64"/>
<path d="M122.02 151.978C122.084 152.003 122.049 152.294 121.94 152.63C121.832 152.966 121.684 153.223 121.62 153.198C121.555 153.173 121.585 152.887 121.694 152.551C121.802 152.215 121.95 151.958 122.02 151.978Z" fill="#455A64"/>
<path d="M124.565 152.299C124.634 152.299 124.609 152.61 124.51 152.951C124.411 153.292 124.273 153.554 124.209 153.534C124.145 153.514 124.165 153.223 124.263 152.877C124.362 152.531 124.495 152.279 124.565 152.299Z" fill="#455A64"/>
<path d="M126.706 153.642C126.637 153.642 126.577 153.297 126.582 152.872C126.587 152.447 126.642 152.107 126.716 152.107C126.79 152.107 126.839 152.452 126.839 152.872C126.839 153.292 126.775 153.642 126.706 153.642Z" fill="#455A64"/>
<path d="M129.084 153.035C129.01 153.035 128.912 152.739 128.857 152.353C128.803 151.968 128.818 151.647 128.887 151.637C128.956 151.627 129.06 151.934 129.114 152.319C129.168 152.704 129.163 153.025 129.084 153.035Z" fill="#455A64"/>
<path d="M131.29 150.877C131.359 150.877 131.473 151.154 131.542 151.524C131.611 151.894 131.611 152.205 131.542 152.215C131.473 152.225 131.359 151.939 131.29 151.568C131.221 151.198 131.221 150.887 131.29 150.877Z" fill="#455A64"/>
<path d="M134.135 150.353C134.205 150.353 134.175 150.773 134.076 151.257C133.977 151.741 133.829 152.126 133.76 152.112C133.691 152.097 133.721 151.692 133.824 151.208C133.928 150.724 134.066 150.339 134.135 150.353Z" fill="#455A64"/>
<path d="M136.574 150.423C136.638 150.452 136.465 150.916 136.184 151.41C135.902 151.904 135.626 152.329 135.566 152.294C135.62 151.94 135.754 151.602 135.957 151.307C136.233 150.788 136.495 150.393 136.574 150.423Z" fill="#455A64"/>
<path d="M139.057 151.075C139.117 151.114 138.889 151.568 138.563 152.092C138.238 152.615 137.897 153.01 137.838 152.971C137.778 152.931 138.005 152.477 138.331 151.954C138.657 151.43 138.998 151.035 139.057 151.075Z" fill="#455A64"/>
<path d="M140.659 152.576C140.713 152.615 140.496 153.025 140.165 153.494C139.834 153.963 139.528 154.309 139.473 154.27C139.419 154.23 139.631 153.815 139.967 153.346C140.303 152.877 140.599 152.531 140.659 152.576Z" fill="#455A64"/>
<path d="M141.772 154.482C141.831 154.521 141.609 154.921 141.233 155.336C140.858 155.751 140.483 156.008 140.438 155.959C140.394 155.909 140.68 155.568 141.046 155.163C141.411 154.758 141.712 154.437 141.772 154.482Z" fill="#455A64"/>
<path d="M141.608 157.391C141.662 157.43 141.539 157.672 141.248 157.801C140.956 157.929 140.69 157.86 140.699 157.801C140.709 157.741 140.912 157.677 141.144 157.573C141.376 157.47 141.554 157.341 141.608 157.391Z" fill="#455A64"/>
<path d="M140.029 159.88C140.029 159.944 139.984 160.028 139.875 160.013C139.767 159.998 139.732 159.89 139.777 159.835C139.792 159.812 139.814 159.792 139.839 159.778C139.864 159.765 139.891 159.757 139.92 159.756C139.947 159.766 139.971 159.783 139.99 159.804C140.009 159.826 140.022 159.852 140.029 159.88Z" fill="#455A64"/>
<path d="M122.809 160.862C123.159 160.123 123.429 159.348 123.614 158.551C123.719 157.732 123.735 156.904 123.663 156.082C123.949 156.881 124.02 157.741 123.87 158.576C123.72 159.411 123.354 160.193 122.809 160.843V160.862Z" fill="#263238"/>
<path d="M124.844 160.63C125.169 159.949 125.417 159.233 125.585 158.497C125.672 157.745 125.672 156.987 125.585 156.235C125.882 156.964 125.971 157.761 125.841 158.537C125.711 159.314 125.367 160.038 124.849 160.63H124.844Z" fill="#263238"/>
<path d="M127.406 160.645C128.295 159.23 128.609 157.529 128.285 155.889C128.426 156.099 128.514 156.34 128.542 156.591C128.658 157.188 128.658 157.801 128.542 158.398C128.436 158.997 128.212 159.569 127.885 160.082C127.643 160.472 127.431 160.665 127.406 160.645Z" fill="#263238"/>
<path d="M130.301 160.472C130.597 159.703 130.82 158.908 130.967 158.097C131.026 157.274 131.009 156.448 130.918 155.628C131.224 156.424 131.327 157.284 131.219 158.13C131.112 158.976 130.796 159.783 130.301 160.477V160.472Z" fill="#263238"/>
<path d="M122.29 158.304C122.158 158.362 122.013 158.382 121.87 158.364C121.478 158.338 121.099 158.214 120.769 158.003C120.294 157.682 119.88 157.281 119.544 156.818C119.316 156.556 119.136 156.257 119.011 155.934C118.949 155.748 118.933 155.549 118.966 155.356C119.004 155.148 119.112 154.96 119.272 154.823C119.428 154.698 119.612 154.613 119.809 154.576C120.005 154.539 120.207 154.551 120.398 154.61C120.734 154.721 121.038 154.913 121.282 155.168C121.689 155.578 122.004 156.069 122.206 156.61C122.343 156.97 122.424 157.348 122.448 157.731C122.47 157.871 122.461 158.015 122.423 158.151C122.347 157.645 122.218 157.149 122.038 156.67C121.822 156.167 121.508 155.712 121.114 155.331C120.897 155.104 120.628 154.935 120.329 154.837C120.178 154.793 120.019 154.784 119.864 154.814C119.71 154.843 119.564 154.909 119.44 155.005C119.328 155.11 119.25 155.246 119.216 155.396C119.183 155.546 119.195 155.702 119.252 155.845C119.369 156.143 119.536 156.419 119.746 156.66C120.058 157.111 120.442 157.508 120.882 157.835C121.297 158.123 121.785 158.286 122.29 158.304Z" fill="#263238"/>
<path d="M122.172 158.23C122.163 158.36 122.131 158.487 122.079 158.606C121.968 158.947 121.826 159.278 121.654 159.593C121.404 160.074 121.024 160.474 120.558 160.749C120.271 160.911 119.949 161 119.619 161.006C119.428 161.019 119.237 160.982 119.064 160.9C118.891 160.818 118.742 160.693 118.632 160.536C118.545 160.367 118.509 160.176 118.529 159.987C118.548 159.798 118.621 159.618 118.74 159.47C118.932 159.204 119.186 158.99 119.481 158.847C119.965 158.632 120.477 158.486 121.002 158.413C121.468 158.297 121.945 158.226 122.424 158.201C121.975 158.37 121.513 158.501 121.042 158.591C120.54 158.688 120.053 158.845 119.59 159.06C119.334 159.189 119.113 159.379 118.948 159.613C118.859 159.723 118.804 159.855 118.787 159.995C118.771 160.134 118.794 160.276 118.854 160.403C118.94 160.517 119.052 160.608 119.181 160.669C119.31 160.731 119.452 160.759 119.595 160.754C119.883 160.753 120.166 160.68 120.419 160.541C120.856 160.292 121.221 159.933 121.476 159.499C121.925 158.739 122.108 158.205 122.172 158.23Z" fill="#263238"/>
<path d="M121.969 160.334C121.91 160.285 122.196 159.904 122.28 159.346C122.364 158.788 122.226 158.359 122.28 158.319C122.405 158.464 122.493 158.638 122.534 158.825C122.575 159.012 122.57 159.207 122.517 159.391C122.433 160.028 122.008 160.388 121.969 160.334Z" fill="#263238"/>
<path d="M123.071 156.882C123.136 156.882 123.071 157.277 122.859 157.682C122.647 158.087 122.365 158.344 122.311 158.304C122.257 158.265 122.429 157.944 122.632 157.564C122.834 157.183 123.002 156.857 123.071 156.882Z" fill="#263238"/>
<path d="M130.978 153.208C130.639 153.433 130.27 153.607 129.881 153.727C128.035 154.415 126.066 154.711 124.098 154.596C123.692 154.594 123.289 154.536 122.898 154.423C124.268 154.44 125.637 154.369 126.997 154.211C128.345 153.963 129.674 153.628 130.978 153.208Z" fill="#206FAD"/>
<path d="M129.754 161.213C128.862 161.405 127.954 161.511 127.042 161.529C126.138 161.633 125.225 161.653 124.316 161.588C125.208 161.397 126.116 161.291 127.028 161.272C127.932 161.168 128.845 161.148 129.754 161.213Z" fill="#206FAD"/>
<path d="M136.305 161.406C136.924 161.319 137.516 161.1 138.043 160.764C138.599 160.384 139.046 159.865 139.337 159.258C139.672 158.508 139.765 157.672 139.604 156.867C139.447 156.057 139.067 155.306 138.507 154.699C138.045 154.208 137.492 153.813 136.878 153.534C136.295 153.297 135.689 153.12 135.07 153.006C135.242 152.974 135.417 152.974 135.589 153.006C136.055 153.06 136.512 153.178 136.947 153.356C137.6 153.621 138.191 154.02 138.68 154.527C139.283 155.159 139.691 155.951 139.856 156.808C140.03 157.667 139.923 158.559 139.549 159.351C139.231 159.989 138.745 160.527 138.142 160.907C137.74 161.161 137.289 161.329 136.819 161.401C136.649 161.435 136.475 161.436 136.305 161.406Z" fill="#206FAD"/>
<path d="M105.064 149.267L117.904 154.971C118.029 156.603 117.758 158.241 117.114 159.746C116.176 161.672 113.327 161.287 113.327 161.287L102.027 158.66L104.546 157.178L105.064 149.267Z" fill="#FFBE9D"/>
<path d="M116.542 160.759C116.034 160.403 115.57 159.989 115.16 159.524C114.75 159.054 114.519 158.454 114.508 157.83C114.564 157.268 114.753 156.728 115.061 156.255C115.323 155.683 115.775 155.219 116.34 154.941C117.051 154.675 117.822 154.981 118.518 155.322L118.651 158.186L116.542 160.759Z" fill="#E0E0E0"/>
<path d="M117.927 154.971C117.897 155.035 114.998 153.81 111.447 152.235C107.897 150.66 105.027 149.331 105.067 149.272C105.106 149.213 108 150.427 111.551 152.003C115.102 153.578 117.956 154.902 117.927 154.971Z" fill="#EB996E"/>
<path d="M132.544 103.191C132.668 103.198 132.791 103.18 132.908 103.139C133.025 103.097 133.132 103.033 133.224 102.95C133.316 102.867 133.39 102.767 133.443 102.655C133.496 102.543 133.526 102.421 133.532 102.298C133.675 98.2382 130.998 89.0428 129.714 85.2254C128.929 82.8944 126.257 81.1907 124.42 79.9363C122.178 78.4202 114.252 76.5633 111.64 75.8423H110.761L98.6169 74.9386L91.945 78.1338C91.945 78.1338 82.6953 81.6401 80.0138 86.5291C77.3322 91.4182 75.2926 105.705 75.2926 105.705C75.2926 105.705 74.0629 109.789 75.2926 111.631C76.0581 112.782 78.9076 113.779 81.4706 114.268C80.0829 118.891 81.1792 122.323 81.1299 122.911C81.0261 124.126 80.0928 126.955 82.2805 126.782C84.4682 126.61 101.575 122.091 106.657 121.888C110.959 121.772 115.213 122.816 118.973 124.911C121.536 126.348 121.516 126.452 122.43 123.923C123.344 121.395 120.425 118.545 120.425 118.545C120.425 118.545 123.042 109.088 124.262 102.905L132.544 103.191Z" fill="#455A64"/>
<path d="M91.8049 97.6998C91.8049 97.6998 91.6518 97.5665 91.4197 97.29C91.1876 97.0134 90.8221 96.5838 90.432 96.1195C89.3702 94.8297 88.2147 93.6198 86.9751 92.4997C86.2848 91.8922 85.5447 91.3438 84.7627 90.8601C84.124 90.4707 83.4512 90.1401 82.7527 89.8724C81.5527 89.4181 80.7773 89.3045 80.7773 89.2551C80.9651 89.2513 81.1526 89.2712 81.3354 89.3144C81.5539 89.3456 81.7701 89.3918 81.9823 89.4526C82.2673 89.5183 82.5478 89.6025 82.8219 89.7045C83.5437 89.9554 84.2385 90.278 84.896 90.6675C85.6957 91.1475 86.451 91.6978 87.1529 92.312C88.4158 93.4386 89.5729 94.6783 90.6098 96.0158C91.0098 96.5097 91.3259 96.9443 91.5333 97.2406C91.6378 97.385 91.7287 97.5387 91.8049 97.6998Z" fill="#263238"/>
<path d="M89.5779 111.355C89.3809 111.391 89.1805 111.406 88.9803 111.399C88.5951 111.399 88.0371 111.424 87.3457 111.399C85.5493 111.388 83.7558 111.254 81.9776 110.999C80.199 110.749 78.4544 110.299 76.7774 109.656C76.2716 109.461 75.777 109.239 75.2959 108.989C75.1113 108.91 74.9371 108.809 74.7773 108.688C74.7773 108.648 75.5576 109.024 76.8515 109.488C78.537 110.077 80.275 110.504 82.0418 110.762C83.8105 111.009 85.5907 111.165 87.3753 111.231L89.005 111.295C89.1975 111.294 89.3896 111.314 89.5779 111.355Z" fill="#263238"/>
<path d="M115.257 115.987C115.218 116.119 115.158 116.244 115.079 116.357C114.894 116.676 114.691 116.984 114.472 117.281C113.015 119.254 111.046 120.791 108.778 121.725C108.437 121.87 108.088 121.992 107.731 122.091C107.604 122.138 107.471 122.166 107.336 122.175C107.336 122.13 107.864 121.947 108.704 121.562C109.792 121.053 110.82 120.425 111.771 119.691C112.715 118.948 113.573 118.101 114.329 117.167C114.887 116.451 115.198 115.967 115.257 115.987Z" fill="#263238"/>
<path d="M115.458 119.78C115.229 120.038 114.956 120.253 114.653 120.417C113.957 120.866 113.211 121.232 112.43 121.508C111.649 121.783 110.839 121.969 110.015 122.061C109.676 122.12 109.328 122.12 108.988 122.061C110.123 121.87 111.244 121.601 112.341 121.256C113.413 120.836 114.454 120.343 115.458 119.78Z" fill="#263238"/>
<path d="M129.677 85.2252C129.678 85.3673 129.658 85.5086 129.618 85.645C129.541 86.0204 129.444 86.3913 129.327 86.7561C128.949 87.962 128.437 89.1216 127.801 90.2131C127.16 91.3067 126.402 92.3269 125.539 93.2551C125.208 93.6058 124.926 93.8774 124.719 94.0552C124.512 94.2329 124.398 94.3268 124.383 94.312C124.368 94.2971 124.778 93.8626 125.405 93.1317C126.219 92.1825 126.946 91.1628 127.578 90.0847C128.204 89.0017 128.732 87.8646 129.154 86.687C129.48 85.7931 129.638 85.2153 129.677 85.2252Z" fill="#263238"/>
<path d="M132.79 101.018C132.397 101.095 131.996 101.127 131.595 101.112C130.854 101.112 129.832 101.112 128.706 101.112C127.58 101.112 126.558 100.994 125.822 100.915C125.421 100.897 125.023 100.835 124.637 100.727C125.034 100.688 125.434 100.688 125.832 100.727L128.716 100.85L131.595 100.949C131.995 100.932 132.395 100.955 132.79 101.018Z" fill="#263238"/>
<path d="M123.163 86.8599C123.238 87.0717 123.294 87.2899 123.33 87.5117C123.429 88.0056 123.558 88.5834 123.706 89.3044C124.012 90.8205 124.452 92.9193 124.694 95.275C124.923 97.2889 124.913 99.3229 124.664 101.334C124.55 102.1 124.437 102.717 124.328 103.137C124.286 103.359 124.225 103.577 124.145 103.789C124.15 103.563 124.179 103.338 124.229 103.117C124.308 102.697 124.397 102.075 124.481 101.31C124.678 99.3104 124.663 97.2959 124.437 95.2997C124.175 92.9638 123.765 90.8551 123.508 89.339C123.375 88.5784 123.271 87.9562 123.212 87.5315C123.17 87.3102 123.153 87.0849 123.163 86.8599Z" fill="#263238"/>
<path d="M91.8033 99.4084C91.8128 99.6001 91.8012 99.7922 91.7688 99.9813C91.7293 100.347 91.6651 100.87 91.5811 101.517C91.4083 102.816 91.1465 104.609 90.786 106.574C90.494 108.258 90.1049 109.923 89.6206 111.562C89.4709 112.057 89.2928 112.544 89.0872 113.019C89.0158 113.193 88.9247 113.359 88.8156 113.513C88.7761 113.513 89.1218 112.762 89.4477 111.498C89.7737 110.234 90.1737 108.475 90.5342 106.515C90.8947 104.554 91.1811 102.772 91.4033 101.483C91.5054 100.88 91.5943 100.371 91.67 99.9566C91.6927 99.7693 91.7374 99.5853 91.8033 99.4084Z" fill="#263238"/>
<path d="M90.1421 91.5415C90.3531 91.8454 90.5194 92.1781 90.636 92.5292C91.3056 94.1527 91.7381 95.8641 91.92 97.6108C91.973 97.9711 91.973 98.3371 91.92 98.6973C91.841 98.6973 91.6879 97.0577 91.1841 95.0873C90.6804 93.1169 90.073 91.5711 90.1421 91.5415Z" fill="#263238"/>
<path d="M104.117 109.053C104.156 108.956 104.202 108.862 104.255 108.772C104.364 108.574 104.512 108.312 104.695 107.977L106.354 105.038C107.801 102.52 109.811 99.0232 112.122 95.0033L112.285 95.1762C110.804 95.8873 109.253 96.5886 107.604 97.2405C105.628 98.0306 103.653 98.6973 101.831 99.2158L101.445 99.3294L101.702 99.0183L108.616 90.6229L110.641 88.2031L111.189 87.5611C111.25 87.4846 111.318 87.4135 111.391 87.3488C111.342 87.4341 111.286 87.515 111.223 87.5907L110.705 88.2525L108.73 90.7217L101.875 99.1911L101.742 98.9936C103.559 98.4504 105.51 97.7837 107.49 97.0182C109.13 96.3664 110.7 95.67 112.157 94.9688L112.527 94.791L112.32 95.1416L106.473 105.132L104.749 108.036L104.255 108.811C104.217 108.896 104.17 108.977 104.117 109.053Z" fill="white"/>
<g opacity="0.3">
<path d="M112.978 122.57C113.561 122.723 114.677 120.96 115.324 119.878C113.348 120.974 111.442 122.288 109.23 121.809C110.46 121.48 111.589 120.854 112.52 119.984C113.45 119.115 114.152 118.031 114.563 116.826C113.018 119.184 110.737 120.963 108.074 121.888C108.074 121.888 112.055 122.328 112.978 122.57Z" fill="black"/>
</g>
<path d="M90.1406 70.1482C90.1406 70.1482 90.4764 70.2865 91.1283 70.4247C92.0199 70.638 92.9572 70.5458 93.7901 70.163C94.3509 69.8875 94.8181 69.453 95.1334 68.9136C95.3168 68.613 95.4314 68.2756 95.469 67.9256C95.5065 67.5755 95.4661 67.2214 95.3507 66.8888C95.2339 66.5192 95.021 66.1872 94.7338 65.9269C94.4466 65.6666 94.0954 65.4873 93.7161 65.4073C93.3074 65.361 92.8948 65.4474 92.539 65.6537C92.1833 65.8601 91.9034 66.1753 91.7407 66.553C91.6661 66.743 91.6315 66.9463 91.6391 67.1503C91.6468 67.3542 91.6965 67.5544 91.7851 67.7382C91.9714 68.0994 92.2646 68.3943 92.6247 68.5827C92.9676 68.7778 93.3561 68.8784 93.7506 68.8741C94.1315 68.8651 94.5064 68.7777 94.8519 68.6173C95.5007 68.3048 96.066 67.8427 96.5013 67.2691C96.8961 66.7774 97.2156 66.2299 97.4495 65.6443C97.7875 64.7895 97.9553 63.8769 97.9434 62.9578C97.9434 62.3109 97.8594 61.9701 97.8841 61.9454C97.9194 62.0273 97.9426 62.1138 97.9532 62.2022C97.9997 62.4518 98.0294 62.7043 98.0421 62.9578C98.0877 63.8961 97.9345 64.8335 97.5927 65.7085C97.3632 66.3174 97.0436 66.8884 96.6446 67.4024C96.1948 68.0095 95.6053 68.499 94.926 68.8296C94.5518 69.0077 94.145 69.1068 93.7309 69.121C93.2923 69.1271 92.8598 69.0181 92.4765 68.8049C92.0703 68.5912 91.7407 68.2563 91.5333 67.8469C91.427 67.6324 91.3672 67.398 91.3578 67.1588C91.3485 66.9197 91.3897 66.6813 91.4789 66.4592C91.661 66.0287 91.9783 65.6691 92.3827 65.4348C92.7872 65.2005 93.257 65.1041 93.721 65.1604C94.1422 65.2441 94.5331 65.4396 94.8529 65.7263C95.1726 66.013 95.4094 66.3804 95.5383 66.79C95.6616 67.1547 95.703 67.542 95.6594 67.9244C95.6159 68.3068 95.4886 68.6749 95.2865 69.0025C94.942 69.5691 94.4389 70.0224 93.8395 70.3062C92.9674 70.6933 91.9873 70.7632 91.0691 70.5038C90.8232 70.4416 90.5836 70.3573 90.353 70.2519C90.2787 70.2249 90.2075 70.1902 90.1406 70.1482Z" fill="#263238"/>
<path d="M128.858 59.249C128.961 58.2453 128.849 57.231 128.528 56.2744C128.206 55.3178 127.684 54.4411 126.996 53.7032C126.294 52.976 125.42 52.4387 124.454 52.1416C123.489 51.8445 122.464 51.7973 121.475 52.0043C120.051 52.2689 118.742 52.9575 117.717 53.9797C117.401 54.2961 117.144 54.6655 116.956 55.0711C116.921 55.1304 116.892 55.1946 116.857 55.2588C116.823 55.323 116.783 55.4217 116.749 55.5057V55.5452C116.137 56.9435 115.985 58.4996 116.314 59.9898C116.579 61.1144 117.126 62.1531 117.904 63.0076C118.681 63.8622 119.664 64.5045 120.759 64.8739C121.866 65.2072 123.043 65.2306 124.163 64.9415C125.283 64.6524 126.302 64.062 127.109 63.2344C128.116 62.1351 128.73 60.7339 128.858 59.249Z" fill="#263238"/>
<path d="M127.974 62.5479C127.93 62.5479 127.841 61.9849 127.48 61.1404C127.034 60.0382 126.339 59.0534 125.451 58.2622C124.563 57.4709 123.505 56.8945 122.359 56.5773C121.48 56.3304 120.878 56.3106 120.907 56.2612C121.041 56.2389 121.178 56.2389 121.312 56.2612C121.68 56.2809 122.045 56.3338 122.404 56.4193C123.6 56.6949 124.707 57.2674 125.624 58.0839C126.541 58.9003 127.237 59.9345 127.648 61.091C127.773 61.4377 127.867 61.7946 127.93 62.1577C127.966 62.2845 127.981 62.4163 127.974 62.5479Z" fill="#455A64"/>
<path d="M126.044 58.6465C125.954 59.0539 125.802 59.4453 125.594 59.807C125.134 60.7052 124.541 61.5292 123.836 62.2516C123.126 62.9675 122.312 63.5719 121.421 64.0442C121.064 64.2654 120.677 64.4318 120.271 64.5381C120.221 64.4541 122.029 63.7529 123.653 62.0688C125.278 60.3848 125.965 58.5971 126.044 58.6465Z" fill="#455A64"/>
<path d="M120.717 56.5229C120.643 56.4785 121.236 55.5353 121.705 54.271C121.969 53.4984 122.143 52.6981 122.223 51.8857C122.31 52.1191 122.34 52.3694 122.312 52.6166C122.287 53.2138 122.163 53.8026 121.947 54.3599C121.679 55.1528 121.261 55.887 120.717 56.5229Z" fill="#206FAD"/>
<path d="M120.788 54.8044C120.909 51.9862 119.957 49.2269 118.124 47.0826C116.291 44.9382 113.714 43.5682 110.911 43.2485C109.465 43.0871 108 43.2192 106.605 43.6367C105.211 44.0542 103.915 44.7486 102.794 45.6785C101.674 46.6083 100.753 47.7544 100.086 49.0484C99.4184 50.3423 99.0189 51.7575 98.911 53.2093L97.9234 77.5855C97.9057 78.0573 98.0465 78.5215 98.3234 78.904C99.8606 81.0139 102.167 82.4333 104.743 82.8548C106.976 83.0728 109.219 82.5636 111.139 81.4029C111.451 81.2178 111.71 80.9539 111.888 80.6376C112.067 80.3213 112.159 79.9636 112.156 79.6004V74.1681C112.156 74.1589 112.16 74.1501 112.166 74.1436C112.173 74.1371 112.181 74.1335 112.191 74.1335C112.7 74.1626 113.212 74.1394 113.717 74.0644C115.154 73.6841 118.803 72.2026 119.934 66.7851C120.265 64.948 120.586 59.8614 120.788 54.8044Z" fill="#FFBE9D"/>
<path d="M112.931 62.9134C113.446 62.7842 113.975 62.7179 114.506 62.7159C114.753 62.7159 115 62.6665 115.04 62.5035C115.069 62.2552 115.022 62.004 114.906 61.7825C114.704 61.1849 114.487 60.5578 114.264 59.9059C113.375 57.2342 112.743 55.0465 112.852 55.0119C112.961 54.9773 113.771 57.1157 114.659 59.7824C114.872 60.4442 115.079 61.0714 115.272 61.6689C115.413 61.9664 115.443 62.3045 115.356 62.622C115.316 62.706 115.257 62.7799 115.184 62.838C115.112 62.8962 115.027 62.9371 114.936 62.9578C114.798 62.9876 114.657 62.9992 114.516 62.9924C113.987 63.0313 113.454 63.0048 112.931 62.9134Z" fill="#263238"/>
<path d="M118.444 58.4391C118.432 58.6696 118.332 58.8866 118.163 59.0442C117.994 59.2019 117.771 59.2877 117.54 59.2835C117.427 59.2875 117.314 59.2688 117.208 59.2286C117.101 59.1883 117.004 59.1273 116.922 59.0492C116.84 58.971 116.774 58.8773 116.728 58.7733C116.683 58.6694 116.658 58.5575 116.656 58.444C116.665 58.2126 116.765 57.994 116.934 57.8359C117.104 57.6778 117.328 57.5928 117.56 57.5995C117.673 57.5956 117.787 57.6143 117.893 57.6545C117.999 57.6947 118.096 57.7557 118.178 57.8339C118.26 57.912 118.326 58.0058 118.372 58.1097C118.418 58.2136 118.442 58.3256 118.444 58.4391Z" fill="#263238"/>
<path d="M119.33 55.7577C119.242 55.8515 118.525 55.807 117.617 56.1132C116.708 56.4194 116.106 56.8984 115.987 56.8737C115.869 56.8491 115.987 56.7157 116.269 56.4984C116.652 56.1983 117.085 55.9677 117.548 55.8169C117.992 55.6588 118.464 55.5884 118.935 55.6095C119.246 55.6342 119.375 55.7083 119.33 55.7577Z" fill="#263238"/>
<path d="M109.178 57.8318C109.167 58.0623 109.066 58.2793 108.897 58.4369C108.729 58.5946 108.505 58.6804 108.275 58.6762C108.161 58.6795 108.049 58.6604 107.943 58.6199C107.837 58.5794 107.74 58.5184 107.658 58.4404C107.576 58.3623 107.51 58.2688 107.464 58.1652C107.418 58.0616 107.393 57.95 107.391 57.8367C107.401 57.6057 107.501 57.3879 107.67 57.2301C107.839 57.0722 108.063 56.9868 108.294 56.9922C108.408 56.9883 108.521 57.007 108.627 57.0472C108.733 57.0874 108.83 57.1484 108.912 57.2266C108.995 57.3047 109.061 57.3985 109.106 57.5024C109.152 57.6063 109.176 57.7183 109.178 57.8318Z" fill="#263238"/>
<path d="M109.496 56.5476C109.353 56.5476 108.83 55.9846 107.891 55.5599C106.953 55.1352 106.133 55.0265 106.064 54.9179C105.995 54.8092 106.198 54.8142 106.558 54.8487C107.074 54.9115 107.575 55.0618 108.04 55.2932C108.503 55.5037 108.922 55.8004 109.274 56.1673C109.521 56.3945 109.561 56.5426 109.496 56.5476Z" fill="#263238"/>
<path d="M112.112 74.0989C112.112 74.0989 108.383 74.2076 103.859 71.2247C103.859 71.2247 105.104 76.1286 112.112 75.8422V74.0989Z" fill="#EB996E"/>
<path d="M112.425 65.1702C112.249 64.9348 112.018 64.7467 111.751 64.6226C111.485 64.4985 111.192 64.4423 110.899 64.4591C110.687 64.4678 110.478 64.5186 110.286 64.6085C110.093 64.6983 109.921 64.8255 109.778 64.9826C109.644 65.1339 109.561 65.3225 109.538 65.5229C109.515 65.7233 109.554 65.926 109.649 66.1036C109.797 66.2824 109.995 66.4137 110.217 66.4813C110.439 66.5489 110.676 66.5498 110.899 66.4838C111.358 66.3474 111.785 66.1226 112.158 65.8221C112.271 65.752 112.37 65.6616 112.449 65.5554C112.484 65.5035 112.502 65.4425 112.502 65.3801C112.502 65.3177 112.484 65.2567 112.449 65.2048" fill="#EB996E"/>
<path d="M110.072 63.422C110.225 63.422 110.181 64.4492 111.06 65.2246C111.939 65.9999 113.035 65.9406 113.035 66.0839C113.035 66.1481 112.778 66.2715 112.309 66.2616C111.698 66.2377 111.114 66.004 110.655 65.5999C110.225 65.2197 109.957 64.6898 109.904 64.1183C109.87 63.664 109.998 63.4122 110.072 63.422Z" fill="#263238"/>
<path d="M110.14 52.7252C110.006 52.9623 109.078 52.6808 107.942 52.6166C106.806 52.5524 105.853 52.7005 105.745 52.4437C105.7 52.3252 105.893 52.1129 106.298 51.9499C106.835 51.7269 107.417 51.6339 107.996 51.6783C108.578 51.7088 109.143 51.8781 109.646 52.1721C110.031 52.3697 110.204 52.6116 110.14 52.7252Z" fill="#263238"/>
<path d="M119.313 52.8637C119.135 53.0711 118.484 52.8143 117.689 52.7649C116.893 52.7155 116.207 52.834 116.064 52.6019C116 52.4883 116.118 52.276 116.419 52.1081C116.83 51.8868 117.297 51.7891 117.762 51.8267C118.227 51.8644 118.672 52.0359 119.042 52.3204C119.313 52.5476 119.392 52.7748 119.313 52.8637Z" fill="#263238"/>
<path d="M111.721 41.999C111.227 41.1545 110.239 40.7842 109.212 40.6409C104.936 40.078 100.224 42.7348 97.9032 46.3695C95.5821 50.0042 95.5525 55.3822 97.3747 59.2836L98.9797 59.5354C102.308 59.2737 107.741 49.8857 112.314 44.6707C112.881 44.0287 112.175 42.7497 111.721 41.999Z" fill="#263238"/>
<path d="M119.942 44.6609C118.125 42.6855 115.177 40.2459 111.503 41.6978C110.974 42.7447 112.1 44.0732 113.029 44.8386C114.396 45.9695 115.587 46.7251 116.485 47.5301C118.298 49.1647 120.56 51.8809 120.792 54.9378C120.792 55.1304 120.955 55.155 121.147 55.1205C121.34 55.0859 121.942 53.8217 122.209 52.1574C122.762 48.6215 121.765 46.656 119.942 44.6609Z" fill="#263238"/>
<path d="M99.2441 53.96C99.0471 53.1431 98.6615 52.3837 98.1181 51.7427C97.7631 51.3214 97.3429 50.9596 96.8736 50.671C95.9962 50.1696 95.0059 49.8989 93.9954 49.8842C92.9849 49.8695 91.9872 50.1113 91.0956 50.5871C90.2175 51.0789 89.4547 51.7528 88.8584 52.5637C88.2622 53.3746 87.8463 54.3036 87.6387 55.2885C87.2984 56.7432 87.4495 58.2696 88.0684 59.6294C88.5853 60.6637 89.3764 61.5362 90.3552 62.1519C91.334 62.7676 92.463 63.1027 93.6192 63.1209C94.7759 63.1082 95.9102 62.801 96.9152 62.2281C97.9201 61.6552 98.7624 60.8356 99.3626 59.8467C100.182 58.454 99.9503 55.9947 99.2441 53.96Z" fill="#263238"/>
<path d="M100.005 57.575C99.9064 57.5256 95.9358 56.0391 95.763 60.1874C95.5902 64.3357 99.7928 63.6443 99.8026 63.5357C99.8125 63.427 100.005 57.575 100.005 57.575Z" fill="#FFBE9D"/>
<path d="M98.6041 61.9108C98.6041 61.9108 98.53 61.9602 98.4066 62.0095C98.2321 62.0788 98.0378 62.0788 97.8634 62.0095C97.4337 61.8268 97.093 61.1157 97.1028 60.37C97.1061 60.0133 97.1906 59.662 97.3498 59.3428C97.3943 59.2146 97.4692 59.0991 97.5681 59.0062C97.667 58.9134 97.787 58.8458 97.9177 58.8094C98.0013 58.7913 98.0887 58.8032 98.1645 58.8429C98.2403 58.8826 98.2998 58.9477 98.3325 59.0267C98.3868 59.1452 98.3572 59.2243 98.377 59.2341C98.3967 59.244 98.4708 59.1699 98.4412 58.9971C98.4257 58.892 98.371 58.7968 98.2881 58.7304C98.1778 58.6387 98.0358 58.5944 97.893 58.607C97.7216 58.6344 97.5601 58.705 97.4236 58.8122C97.2871 58.9193 97.1801 59.0594 97.1127 59.2193C96.9225 59.5716 96.8208 59.9648 96.8164 60.365C96.8164 61.1996 97.2016 61.9997 97.8041 62.2021C97.9144 62.2391 98.0316 62.2507 98.147 62.2361C98.2624 62.2216 98.3731 62.1813 98.4708 62.1182C98.5942 62.0095 98.6189 61.9207 98.6041 61.9108Z" fill="#EB996E"/>
<path d="M120.794 45.4905C120.4 45.5989 119.993 45.6521 119.584 45.6485C118.604 45.7037 117.62 45.6706 116.646 45.5497C115.674 45.4369 114.714 45.2402 113.776 44.962C113.379 44.8675 112.997 44.7179 112.641 44.5176C113.042 44.5783 113.438 44.6691 113.826 44.7892C114.77 45.0166 115.726 45.1914 116.69 45.3127C117.654 45.4233 118.624 45.481 119.594 45.4855C119.993 45.4551 120.395 45.4567 120.794 45.4905Z" fill="#455A64"/>
<path d="M122.171 48.4684C121.888 48.597 121.582 48.6691 121.272 48.6808C120.523 48.7632 119.766 48.7231 119.03 48.5623C118.295 48.4006 117.592 48.1222 116.946 47.7375C116.666 47.5982 116.417 47.4033 116.215 47.1647C117.12 47.664 118.084 48.0489 119.084 48.3104C120.103 48.486 121.139 48.5391 122.171 48.4684Z" fill="#455A64"/>
<path d="M97.375 47.8015C97.375 47.7472 98.2738 47.9052 99.7208 47.8657C100.569 47.8427 101.414 47.7569 102.249 47.6089C103.268 47.417 104.273 47.1563 105.257 46.8287C106.239 46.4898 107.199 46.089 108.131 45.6286C108.889 45.2476 109.624 44.8239 110.333 44.3594C111.548 43.5693 112.225 42.9717 112.259 43.0063C112.121 43.1689 111.967 43.3178 111.8 43.4508C111.652 43.589 111.459 43.7471 111.227 43.9446C110.995 44.1422 110.733 44.3298 110.437 44.5323C109.732 45.0219 108.997 45.4656 108.235 45.8607C107.3 46.3371 106.333 46.748 105.341 47.0904C104.345 47.4246 103.324 47.6821 102.289 47.8608C101.441 47.9995 100.584 48.0688 99.7257 48.0682C99.396 48.0741 99.0662 48.0609 98.738 48.0287C98.4896 48.0194 98.2421 47.993 97.9972 47.9497C97.7857 47.9196 97.5774 47.87 97.375 47.8015Z" fill="#455A64"/>
<path d="M111.985 44.4681C111.895 44.6717 111.784 44.8653 111.654 45.0459C111.54 45.2286 111.397 45.4509 111.214 45.6929C111.032 45.9348 110.839 46.2262 110.582 46.5126C110.014 47.2094 109.392 47.8601 108.721 48.4584C107.893 49.1843 107.002 49.8355 106.059 50.4041C105.105 50.9612 104.101 51.4291 103.061 51.8017C102.212 52.0989 101.34 52.3236 100.454 52.4733C100.078 52.5524 99.7326 52.577 99.4313 52.6116C99.1727 52.6476 98.9121 52.6674 98.6511 52.6709C98.4292 52.689 98.2062 52.689 97.9844 52.6709C97.9844 52.6166 98.9326 52.5968 100.419 52.3005C101.29 52.1262 102.147 51.8868 102.982 51.5844C105.031 50.8381 106.923 49.7178 108.563 48.2806C109.235 47.7001 109.864 47.0713 110.444 46.3991C111.442 45.2336 111.94 44.4335 111.985 44.4681Z" fill="#455A64"/>
<path d="M109.215 40.6558C109.493 40.6011 109.781 40.6216 110.049 40.715C110.708 40.903 111.299 41.2747 111.753 41.7867C111.884 41.9399 112 42.1053 112.099 42.2805C112.185 42.4373 112.255 42.6028 112.306 42.7744C112.406 43.0576 112.484 43.3482 112.538 43.6435C112.612 43.9206 112.591 44.2142 112.479 44.4781C112.435 44.4781 112.479 44.1571 112.361 43.683C112.283 43.4012 112.189 43.1242 112.079 42.8534C112.03 42.6922 111.963 42.5366 111.882 42.3892C111.788 42.2362 111.681 42.0924 111.561 41.9595C111.134 41.4804 110.596 41.1126 109.995 40.8879C109.531 40.7249 109.215 40.7002 109.215 40.6558Z" fill="#455A64"/>
<path d="M98.265 57.2143C98.2255 57.2143 98.349 56.7846 98.4379 56.1031C98.5491 55.2139 98.4973 54.3119 98.2848 53.4413C98.0595 52.5765 97.6292 51.7787 97.0304 51.1153C96.5366 50.6215 96.1909 50.3795 96.2205 50.335C96.2501 50.2906 96.3242 50.3696 96.4971 50.4733C96.7355 50.6125 96.9575 50.7782 97.1588 50.9672C97.8259 51.6238 98.3007 52.4503 98.5317 53.3574C98.7607 54.2571 98.7894 55.1961 98.6157 56.1081C98.568 56.4953 98.4491 56.8703 98.265 57.2143Z" fill="#206FAD"/>
<path d="M98.5763 56.3205C98.5516 56.3551 98.0429 56.0292 97.1688 55.5946C94.8895 54.4682 92.3723 53.9075 89.8303 53.96C88.8426 53.96 88.2599 54.0587 88.25 54.0192C88.3818 53.9626 88.5219 53.9276 88.6648 53.9155C89.0486 53.8462 89.4361 53.8 89.8254 53.7772C92.4013 53.6247 94.9683 54.1997 97.233 55.4365C97.5751 55.6192 97.905 55.8238 98.2207 56.0489C98.4676 56.1921 98.5862 56.286 98.5763 56.3205Z" fill="#455A64"/>
<path d="M94.7989 54.6514C94.7561 55.0711 94.6512 55.4822 94.4878 55.8712C94.1441 56.8263 93.6776 57.7327 93.1001 58.5676C92.5201 59.4016 91.8327 60.1554 91.0556 60.8096C90.75 61.0994 90.4019 61.3409 90.0234 61.5257C91.0869 60.596 92.0472 59.5546 92.8877 58.4194C93.6568 57.2348 94.2974 55.9717 94.7989 54.6514Z" fill="#455A64"/>
<path d="M97.5329 62.7109C97.5625 62.6319 97.7107 62.5825 97.9576 62.6467C98.3149 62.7552 98.6226 62.986 98.8268 63.2986C99.1009 63.7095 99.2071 64.2099 99.1235 64.6968C99.0399 65.1836 98.7729 65.6199 98.3774 65.9159C98.0458 66.1532 97.6508 66.2857 97.2432 66.2962C96.8356 66.3068 96.4343 66.195 96.0909 65.9752C95.7876 65.777 95.5396 65.5051 95.3699 65.185C95.2135 64.8953 95.132 64.571 95.1328 64.2418C95.1427 63.9755 95.2048 63.7138 95.3155 63.4714C95.4555 63.1149 95.728 62.8264 96.0761 62.6664C96.3378 62.5677 96.4958 62.6368 96.5156 62.7158C96.5452 62.8936 96.2341 63.1306 96.1847 63.7381C96.1624 63.8854 96.1624 64.0352 96.1847 64.1825C96.224 64.3265 96.2893 64.4621 96.3773 64.5825C96.468 64.715 96.5896 64.8233 96.7316 64.8982C96.8735 64.973 97.0316 65.0122 97.1921 65.0122C97.3442 65.0146 97.4938 64.9742 97.6239 64.8956C97.754 64.817 97.8594 64.7034 97.928 64.5677C98.0643 64.306 98.0944 64.0017 98.0119 63.7183C97.8638 63.1702 97.4835 62.8788 97.5329 62.7109Z" fill="#455A64"/>
<path d="M101.73 56.1477C102.576 56.0876 103.414 55.9403 104.229 55.7082C106.176 55.06 107.892 53.8588 109.168 52.2513C110.418 50.6273 111.356 48.7853 111.933 46.819C112.17 46.0634 112.333 45.4461 112.427 45.0214C112.469 44.7954 112.532 44.5738 112.615 44.3596C112.605 44.5893 112.574 44.8175 112.521 45.0411C112.447 45.4757 112.309 46.1029 112.096 46.8684C111.56 48.8815 110.626 50.767 109.35 52.4142C108.048 54.0543 106.277 55.2598 104.274 55.8711C103.668 56.0481 103.043 56.1492 102.412 56.1724C102.247 56.1803 102.083 56.1803 101.918 56.1724C101.795 56.1625 101.73 56.1576 101.73 56.1477Z" fill="#263238"/>
<path d="M111.975 77.7484C112.066 77.774 112.151 77.8158 112.227 77.8718C112.452 78.0212 112.65 78.2064 112.815 78.42C113.076 78.7604 113.261 79.1527 113.358 79.5706C113.495 80.1257 113.48 80.7076 113.314 81.2547C113.068 81.9541 112.669 82.5893 112.145 83.1134C111.621 83.6374 110.986 84.0368 110.286 84.2819C109.479 84.5893 108.636 84.795 107.778 84.8943C106.861 85.0155 105.935 85.0519 105.012 85.0029C103.211 84.9393 101.462 84.388 99.9501 83.4078C98.7126 82.6012 97.7457 81.4416 97.1747 80.0793C96.9537 79.5576 96.8411 78.9964 96.8438 78.4299C96.8493 77.9981 96.9649 77.5748 97.1796 77.2002C97.3142 76.9649 97.4957 76.7598 97.713 76.5977C97.7855 76.5399 97.8673 76.4948 97.9549 76.4644C97.6707 76.6719 97.4362 76.9401 97.2685 77.2496C97.078 77.6135 96.9812 78.0191 96.987 78.4299C97.0025 78.9762 97.1233 79.5144 97.3426 80.0151C97.9228 81.3261 98.876 82.4373 100.083 83.2103C101.564 84.1518 103.269 84.6819 105.022 84.7461C105.93 84.7941 106.841 84.7594 107.743 84.6424C108.587 84.5533 109.417 84.3575 110.212 84.0597C110.888 83.8358 111.505 83.4631 112.018 82.9691C112.531 82.4751 112.926 81.8724 113.175 81.2053C113.319 80.7499 113.357 80.2679 113.287 79.7956C113.216 79.3234 113.04 78.8732 112.77 78.4792C112.547 78.1939 112.278 77.947 111.975 77.7484Z" fill="#263238"/>
<path d="M101.109 84.1487C101.033 83.7388 101.12 83.3153 101.351 82.9684C101.667 82.356 102.146 82.0449 102.186 82.0992C102.225 82.1535 101.865 82.5289 101.578 83.0869C101.292 83.645 101.183 84.1586 101.109 84.1487Z" fill="#263238"/>
<path d="M105.744 85.0278C105.634 84.6936 105.605 84.3382 105.66 83.9907C105.66 83.4228 105.754 82.9635 105.828 82.9635C105.938 83.2975 105.968 83.6527 105.917 84.0006C105.877 84.5685 105.818 85.0278 105.744 85.0278Z" fill="#263238"/>
<path d="M110.396 84.3413C110.073 83.6195 109.913 82.8355 109.927 82.0449C110.126 82.3884 110.249 82.7708 110.287 83.166C110.406 83.5457 110.443 83.9462 110.396 84.3413Z" fill="#263238"/>
<path d="M113.11 81.3783C113.046 81.4129 112.853 81.1561 112.532 80.9486C112.211 80.7412 111.905 80.6523 111.91 80.5783C111.915 80.5042 112.295 80.4795 112.676 80.7313C113.056 80.9832 113.174 81.3536 113.11 81.3783Z" fill="#263238"/>
<path d="M98.6549 79.5312C98.6549 79.6004 98.3931 79.6942 98.1314 79.9115C97.8697 80.1288 97.7067 80.3609 97.6375 80.3362C97.5684 80.3115 97.6375 79.9658 97.9684 79.709C98.2993 79.4522 98.6499 79.467 98.6549 79.5312Z" fill="#263238"/>
<path d="M106.78 112.579C106.613 112.571 106.45 112.523 106.306 112.438C106.162 112.354 106.04 112.236 105.951 112.094C105.863 111.953 105.809 111.792 105.796 111.625C105.783 111.458 105.81 111.291 105.876 111.137C107.209 108.135 110.849 102.357 111.086 101.981C111.432 101.458 111.614 100.811 112.721 100.678C113.145 100.628 119.812 100.475 121.378 100.441C121.504 100.436 121.63 100.456 121.749 100.5C121.868 100.544 121.976 100.611 122.069 100.697C122.38 100.994 122.706 101.557 122.212 102.441C121.659 103.428 117.629 109.685 115.995 112.095C115.835 112.33 115.619 112.52 115.366 112.649C115.113 112.778 114.831 112.84 114.548 112.831L106.78 112.579Z" fill="#263238"/>
<path d="M117.068 102.594C117.004 102.519 116.919 102.464 116.824 102.438C116.729 102.412 116.628 102.414 116.535 102.446C116.355 102.505 116.194 102.608 116.066 102.747C115.99 102.809 115.939 102.895 115.921 102.991C115.903 103.086 115.919 103.185 115.967 103.27C116.023 103.332 116.094 103.378 116.172 103.404C116.251 103.431 116.335 103.438 116.416 103.423C116.627 103.411 116.826 103.321 116.974 103.172C117.046 103.096 117.093 103 117.11 102.897C117.126 102.794 117.112 102.688 117.068 102.594Z" fill="white"/>
<path d="M120.493 103.952C120.56 103.751 120.648 103.557 120.754 103.374C120.853 103.181 120.962 102.959 121.09 102.717C121.159 102.589 121.228 102.451 121.302 102.307C121.393 102.176 121.451 102.026 121.47 101.868C121.473 101.787 121.456 101.708 121.421 101.635C121.385 101.563 121.333 101.5 121.268 101.453C121.191 101.404 121.105 101.371 121.015 101.356C120.925 101.341 120.833 101.343 120.744 101.364L119.381 101.418L116.265 101.527L113.144 101.621H112.798C112.705 101.629 112.616 101.663 112.542 101.72C112.405 101.871 112.286 102.036 112.186 102.214C111.959 102.569 111.747 102.905 111.544 103.201L110.606 104.638C110.498 104.815 110.372 104.981 110.23 105.132C110.306 104.934 110.404 104.745 110.522 104.569L111.391 103.088L112.003 102.07L112.171 101.794C112.229 101.684 112.306 101.586 112.398 101.502C112.505 101.413 112.636 101.358 112.774 101.344H113.139L116.245 101.26L119.367 101.172L120.725 101.142C120.954 101.104 121.189 101.155 121.381 101.285C121.467 101.354 121.536 101.442 121.581 101.543C121.627 101.643 121.648 101.753 121.643 101.863C121.639 101.965 121.61 102.065 121.559 102.154L121.436 102.376L121.204 102.776C121.065 103.014 120.942 103.226 120.828 103.414C120.737 103.605 120.624 103.786 120.493 103.952Z" fill="#455A64"/>
<path d="M131.657 103.201C131.657 103.201 130.98 107.903 130.289 110.925C129.671 113.616 128.689 122.713 126.19 123.859C123.691 125.004 120.575 124.288 119.424 122.071C118.274 119.854 117.039 113.952 117.039 113.952L111.804 111.75C111.804 111.75 110.599 107.359 111.286 106.865C111.972 106.372 118.728 107.112 118.728 107.112L120.54 106.703C120.54 106.703 117.656 106.288 117.039 106.125C116.899 106.105 116.764 106.056 116.643 105.982C116.522 105.909 116.417 105.811 116.335 105.696C116.253 105.58 116.195 105.449 116.165 105.311C116.135 105.172 116.133 105.029 116.16 104.89C116.303 104.312 116.422 103.735 117.982 103.735C119.543 103.735 121.992 103.502 122.427 103.656C122.98 103.843 123.602 104.149 123.726 105.547C123.849 106.944 123.192 109.498 123.192 109.498L123.335 109.715L124.259 102.91L131.657 103.201Z" fill="#FFBE9D"/>
<path d="M122.865 111.32C122.734 111.4 122.59 111.457 122.44 111.488C122.047 111.62 121.646 111.729 121.24 111.814C119.9 112.106 118.525 112.21 117.156 112.125C115.785 112.037 114.434 111.742 113.151 111.251C112.762 111.111 112.383 110.946 112.015 110.757C111.874 110.697 111.743 110.618 111.625 110.52C111.625 110.48 112.227 110.757 113.215 111.093C114.493 111.521 115.821 111.785 117.166 111.878C118.511 111.953 119.86 111.87 121.186 111.631C122.233 111.453 122.855 111.281 122.865 111.32Z" fill="#EB996E"/>
<path d="M121.871 109.434C121.737 109.499 121.594 109.544 121.447 109.567C121.17 109.636 120.765 109.725 120.262 109.809C118.94 110.03 117.596 110.08 116.261 109.957C114.922 109.829 113.619 109.45 112.419 108.841C112.058 108.656 111.713 108.441 111.387 108.199C111.16 108.026 111.041 107.917 111.051 107.903C111.061 107.888 111.585 108.248 112.498 108.678C113.698 109.226 114.979 109.571 116.291 109.7C117.607 109.821 118.932 109.796 120.242 109.626C121.244 109.508 121.867 109.394 121.871 109.434Z" fill="#EB996E"/>
<path d="M123.507 104.579C123.537 104.579 123.631 104.811 123.606 105.211C123.598 105.455 123.532 105.694 123.413 105.907C123.33 106.037 123.215 106.143 123.077 106.214C122.946 106.288 122.807 106.35 122.663 106.396C122.174 106.548 121.668 106.634 121.156 106.653C120.952 106.682 120.746 106.699 120.539 106.703C120.539 106.668 120.746 106.544 121.132 106.475C121.622 106.4 122.107 106.293 122.584 106.154C122.826 106.092 123.045 105.962 123.216 105.779C123.324 105.599 123.397 105.399 123.428 105.191C123.441 104.986 123.467 104.781 123.507 104.579Z" fill="#EB996E"/>
<path d="M121.015 112.49C121.079 112.624 121.112 112.77 121.112 112.918C121.112 113.065 121.079 113.211 121.015 113.345C120.912 113.652 120.73 113.926 120.486 114.14C120.187 114.399 119.821 114.57 119.429 114.634C119.045 114.7 118.651 114.683 118.274 114.584C117.975 114.499 117.687 114.382 117.414 114.234C117.156 114.121 116.911 113.98 116.684 113.814C116.966 113.844 117.239 113.93 117.489 114.066C118.075 114.359 118.735 114.469 119.385 114.382C119.731 114.327 120.058 114.184 120.333 113.967C120.548 113.783 120.717 113.551 120.827 113.29C120.926 113.034 120.99 112.764 121.015 112.49Z" fill="#EB996E"/>
<path d="M123.195 104.105C123.195 104.105 123.229 104.105 123.288 104.159C123.372 104.228 123.443 104.312 123.496 104.406C123.681 104.759 123.782 105.149 123.792 105.547C123.821 106.894 123.655 108.238 123.298 109.537V109.468C123.552 110.142 123.865 110.793 124.232 111.414C124.74 112.275 125.307 113.1 125.93 113.883C126.498 114.496 126.995 115.17 127.412 115.893C127.67 116.413 127.722 117.011 127.555 117.567C127.505 117.715 127.43 117.854 127.333 117.977C127.269 118.056 127.224 118.091 127.219 118.086C127.315 117.91 127.394 117.727 127.456 117.537C127.579 117.008 127.505 116.452 127.249 115.972C126.821 115.277 126.324 114.627 125.768 114.031C125.126 113.253 124.545 112.428 124.029 111.562C123.657 110.933 123.341 110.272 123.086 109.587V109.547V109.512C123.438 108.233 123.627 106.914 123.649 105.586C123.651 105.207 123.579 104.831 123.437 104.48C123.364 104.35 123.283 104.225 123.195 104.105Z" fill="#EB996E"/>
<path d="M76.9811 112.89C76.9811 112.89 76.2156 123.39 81.0998 125.148C87.8309 127.577 95.5052 120.871 95.5348 120.762C95.5645 120.654 103.703 114.1 103.703 114.1L101.17 107.122C101.17 107.122 100.152 107.122 98.5078 108.298C97.9102 108.722 88.4778 113.695 88.4778 113.695C88.4778 113.695 84.3591 113.661 76.9811 112.89Z" fill="#FFBE9D"/>
<path d="M88.8181 113.537C88.8526 113.616 87.0748 114.337 84.9266 115.3C83.8549 115.794 82.9117 116.288 82.2351 116.644C81.8824 116.867 81.5125 117.062 81.1289 117.226C81.4331 116.937 81.7734 116.688 82.1413 116.486C83.0039 115.956 83.8996 115.483 84.8229 115.068C85.8994 114.574 86.897 114.189 87.623 113.923C88.008 113.756 88.4082 113.627 88.8181 113.537Z" fill="#EB996E"/>
<path d="M110.194 103.32C110.194 103.32 108.92 101.517 108.416 101.522C107.913 101.527 104.876 102.016 104.876 102.016L100.584 106.693C100.584 106.693 100.288 108.209 101.216 108.757C101.216 108.757 100.905 111.142 102.051 111.829C102.051 111.829 102.905 114.071 103.705 114.115C104.044 114.145 104.384 114.145 104.722 114.115C104.722 114.115 104.55 115.463 105.769 115.547C106.979 115.529 108.185 115.408 109.374 115.187C109.55 115.157 109.719 115.093 109.869 114.998C110.02 114.903 110.151 114.779 110.254 114.634L111.3 113.152C111.466 112.923 111.555 112.647 111.555 112.364C111.555 112.082 111.466 111.806 111.3 111.577C111.576 111.251 111.79 110.878 111.933 110.476C112.002 110.009 112.002 109.535 111.933 109.068C111.933 109.068 113.745 107.532 113.789 107.132C113.834 106.732 113.745 106.347 112.945 106.391C112.945 106.391 112.777 105.152 111.765 105.181C110.752 105.211 105.957 105.181 105.957 105.181L106.871 104.293C106.871 104.293 109.256 105.201 109.508 104.599L110.194 103.32Z" fill="#FFBE9D"/>
<path d="M103.309 108.693C103.567 108.655 103.828 108.637 104.089 108.638C104.583 108.609 105.314 108.564 106.212 108.461C107.271 108.335 108.321 108.149 109.358 107.903C109.946 107.759 110.558 107.591 111.19 107.409C111.818 107.167 112.385 106.789 112.85 106.303L112.879 106.278H112.914C113.149 106.221 113.396 106.246 113.615 106.347C113.733 106.421 113.82 106.535 113.862 106.668C113.896 106.785 113.911 106.907 113.907 107.028C113.914 107.083 113.914 107.137 113.907 107.191C113.894 107.257 113.869 107.319 113.832 107.374C113.777 107.46 113.716 107.543 113.65 107.621C113.526 107.769 113.388 107.908 113.255 108.046C112.983 108.317 112.711 108.569 112.435 108.811C111.487 109.567 110.498 110.269 109.472 110.915C108.633 111.42 107.704 111.756 106.736 111.903C106.096 112 105.444 111.983 104.81 111.853C104.642 111.819 104.477 111.771 104.316 111.71C104.258 111.695 104.203 111.67 104.153 111.636C104.991 111.85 105.864 111.886 106.716 111.74C107.654 111.579 108.554 111.244 109.368 110.752C110.301 110.194 111.245 109.419 112.287 108.633C112.558 108.391 112.83 108.14 113.092 107.873C113.225 107.74 113.353 107.606 113.472 107.463C113.59 107.32 113.585 107.32 113.635 107.251C113.684 107.182 113.674 107.172 113.674 107.167C113.679 107.124 113.679 107.081 113.674 107.038C113.674 106.831 113.64 106.648 113.506 106.579C113.341 106.51 113.157 106.496 112.983 106.54L113.052 106.51C112.792 106.753 112.517 106.979 112.227 107.186C111.949 107.409 111.63 107.577 111.289 107.68C110.652 107.878 110.03 108.041 109.432 108.174C108.386 108.409 107.325 108.574 106.257 108.668C105.348 108.757 104.617 108.772 104.114 108.772C103.862 108.772 103.669 108.772 103.536 108.772C103.457 108.757 103.38 108.73 103.309 108.693Z" fill="#EB996E"/>
<path d="M111.924 109.058C112 109.301 112.035 109.554 112.027 109.809C112.027 109.927 112.027 110.061 112.027 110.209C112.027 110.283 112.027 110.357 112.027 110.436C112.02 110.526 111.995 110.613 111.953 110.693C111.882 110.862 111.799 111.027 111.706 111.187L111.558 111.434L111.479 111.557C111.464 111.584 111.448 111.611 111.43 111.636L111.395 111.666C111.371 111.666 111.395 111.7 111.277 111.666C111.254 111.651 111.238 111.63 111.229 111.604C111.221 111.579 111.222 111.552 111.232 111.527C111.231 111.519 111.231 111.511 111.232 111.503L111.257 111.468L111.454 111.587C111.132 112.174 110.705 112.697 110.195 113.132C109.337 113.872 108.263 114.315 107.133 114.397C106.804 114.421 106.473 114.411 106.146 114.367C106.022 114.359 105.9 114.33 105.785 114.283C105.785 114.234 106.309 114.322 107.138 114.219C108.214 114.085 109.227 113.638 110.052 112.935C110.538 112.512 110.95 112.011 111.272 111.453L111.474 111.572C111.784 110.771 111.937 109.917 111.924 109.058Z" fill="#EB996E"/>
<path d="M106.979 104.322C106.979 104.381 106.485 104.199 106.243 103.626C106.159 103.39 106.145 103.134 106.204 102.89C106.253 102.707 106.323 102.609 106.352 102.618C106.382 102.628 106.313 103.078 106.485 103.537C106.658 103.996 107.029 104.258 106.979 104.322Z" fill="#EB996E"/>
<path d="M104.828 114.145C104.711 114.207 104.58 114.237 104.447 114.234C104.087 114.26 103.726 114.192 103.4 114.036C102.906 113.802 102.516 113.392 102.309 112.885C102.19 112.59 102.13 112.275 102.131 111.957C102.131 111.893 102.117 111.83 102.089 111.772C102.06 111.715 102.019 111.665 101.968 111.626C101.704 111.452 101.487 111.215 101.336 110.937C101.185 110.659 101.106 110.347 101.104 110.031C101.083 109.64 101.098 109.248 101.148 108.861L101.203 108.969C100.941 108.802 100.727 108.57 100.582 108.296C100.436 108.021 100.364 107.714 100.373 107.404C100.358 107.17 100.426 106.939 100.566 106.752C100.532 106.966 100.512 107.182 100.506 107.399C100.518 107.677 100.598 107.949 100.739 108.189C100.88 108.429 101.079 108.631 101.316 108.777L101.376 108.811V108.88C101.343 109.257 101.343 109.635 101.376 110.011C101.401 110.415 101.549 110.801 101.8 111.117C101.906 111.235 102.026 111.339 102.156 111.429C102.231 111.488 102.292 111.563 102.335 111.648C102.379 111.733 102.403 111.827 102.408 111.922C102.401 112.215 102.45 112.507 102.551 112.782C102.73 113.243 103.068 113.625 103.504 113.858C103.917 114.057 104.37 114.155 104.828 114.145Z" fill="#EB996E"/>
<g opacity="0.3">
<path d="M91.7122 100.031C91.1344 105.27 90.3195 109.27 89.0898 112.871C90.8159 111.409 91.9559 109.373 92.2998 107.137C92.6258 104.93 92.1072 102.248 91.7122 100.031Z" fill="black"/>
</g>
<g opacity="0.3">
<path d="M125.352 97.1516C125.158 95.2926 124.692 93.4722 123.969 91.7489C124.744 95.4528 124.833 99.2676 124.23 103.004L124.408 102.604C125.215 100.907 125.541 99.0209 125.352 97.1516Z" fill="black"/>
</g>
</svg>
