<svg width="225" height="211" viewBox="0 0 225 211" fill="none" xmlns="http://www.w3.org/2000/svg">
<path d="M136.892 65.734H160.156V208.175H136.892V65.734Z" fill="#8FCBFB"/>
<path d="M104.818 75.3147H128.082V208.175H104.818V75.3147Z" fill="#8FCBFB"/>
<path d="M168.966 151.141H192.23V208.175H168.966V151.141Z" fill="#8FCBFB"/>
<path d="M201.041 177.188H224.305V208.175H201.041V177.188Z" fill="#8FCBFB"/>
<path d="M72.7477 114.562H96.0117V208.179H72.7477V114.562Z" fill="#8FCBFB"/>
<path d="M40.6774 145.429H63.9414V208.179H40.6774V145.429Z" fill="#8FCBFB"/>
<path d="M8.60703 176.802H31.8711V208.175H8.60703V176.802Z" fill="#8FCBFB"/>
<path d="M224.298 210.433C224.363 210.433 224.418 165.459 224.418 109.99C224.418 54.5206 224.363 9.54248 224.298 9.54248C224.234 9.54248 224.179 54.5068 224.179 109.99C224.179 165.473 224.229 210.433 224.298 210.433Z" fill="#8FCBFB"/>
<path d="M11.6957 50.6386C11.6957 50.7076 59.3507 50.7582 118.123 50.7582C176.894 50.7582 224.559 50.7168 224.559 50.6386C224.559 50.5604 176.913 50.519 118.123 50.519C59.3323 50.519 11.6957 50.5834 11.6957 50.6386Z" fill="#8FCBFB"/>
<path d="M11.6957 75.8805C11.6957 75.9494 59.3507 76 118.123 76C176.894 76 224.559 75.9356 224.559 75.8805C224.559 75.8253 176.913 75.7609 118.123 75.7609C59.3323 75.7609 11.6957 75.8161 11.6957 75.8805Z" fill="#8FCBFB"/>
<path d="M11.6957 101.113C11.6957 101.182 59.3507 101.233 118.123 101.233C176.894 101.233 224.559 101.182 224.559 101.113C224.559 101.044 176.913 100.994 118.123 100.994C59.3323 100.994 11.6957 101.049 11.6957 101.113Z" fill="#8FCBFB"/>
<path d="M11.6957 126.346C11.6957 126.415 59.3507 126.465 118.123 126.465C176.894 126.465 224.559 126.415 224.559 126.346C224.559 126.277 176.913 126.226 118.123 126.226C59.3323 126.226 11.6957 126.281 11.6957 126.346Z" fill="#8FCBFB"/>
<path d="M11.6957 151.578C11.6957 151.647 59.3507 151.698 118.123 151.698C176.894 151.698 224.559 151.647 224.559 151.578C224.559 151.509 176.913 151.459 118.123 151.459C59.3323 151.459 11.6957 151.514 11.6957 151.578Z" fill="#8FCBFB"/>
<path d="M11.6957 176.811C11.6957 176.88 59.3507 176.93 118.123 176.93C176.894 176.93 224.559 176.88 224.559 176.811C224.559 176.742 176.913 176.691 118.123 176.691C59.3323 176.691 11.6957 176.746 11.6957 176.811Z" fill="#8FCBFB"/>
<path d="M11.6957 25.4152C11.6957 25.4842 59.3507 25.5348 118.123 25.5348C176.894 25.5348 224.559 25.4842 224.559 25.4152C224.559 25.3462 176.913 25.2957 118.123 25.2957C59.3323 25.2957 11.6957 25.3416 11.6957 25.4152Z" fill="#8FCBFB"/>
<path d="M222.832 208.198C222.832 208.133 174.754 208.078 115.462 208.078C56.1707 208.078 8.07881 208.133 8.07881 208.198C8.07881 208.262 56.1477 208.317 115.462 208.317C174.777 208.317 222.832 208.262 222.832 208.198Z" fill="#263238"/>
<path d="M118.879 196.05C118.879 196.05 120.654 183.857 120.507 176.76C120.36 169.663 120.507 161.683 120.507 161.683H119.693C119.693 161.683 120.245 175.767 119.642 184.262C119.04 192.757 117.453 196.05 117.453 196.05H118.874" fill="#263238"/>
<path d="M113.595 147.963C113.724 147.531 113.985 147.15 114.34 146.873C114.618 146.741 114.922 146.673 115.23 146.673C115.538 146.673 115.842 146.741 116.12 146.873C118.59 147.747 120.779 152.351 121.777 154.77L118.498 165.809C112.578 160.345 111.553 153.142 113.595 147.963Z" fill="#455A64"/>
<path d="M114.535 147.319C114.546 147.37 114.561 147.419 114.581 147.466L114.742 147.866C114.885 148.216 115.087 148.722 115.331 149.347C115.814 150.603 116.426 152.355 116.978 154.333C117.53 156.311 117.898 158.128 118.137 159.452C118.252 160.115 118.339 160.653 118.394 161.025L118.463 161.453C118.469 161.504 118.482 161.553 118.5 161.6C118.505 161.55 118.505 161.499 118.5 161.449C118.5 161.334 118.477 161.191 118.459 161.016C118.417 160.644 118.344 160.096 118.238 159.439C117.962 157.705 117.587 155.988 117.116 154.296C116.645 152.605 116.081 150.94 115.428 149.311C115.175 148.69 114.968 148.188 114.802 147.848C114.724 147.687 114.664 147.558 114.618 147.452C114.594 147.406 114.566 147.361 114.535 147.319Z" fill="#263238"/>
<path d="M119.959 168.481C121.453 167.634 122.704 166.417 123.59 164.945C124.476 163.474 124.968 161.799 125.019 160.083C125.138 157.631 124.384 155.226 123.533 152.926C123.481 152.717 123.357 152.533 123.184 152.406C123.045 152.355 122.895 152.34 122.748 152.362C122.602 152.385 122.464 152.444 122.346 152.535C120.111 153.809 118.759 156.215 118.041 158.698C117.527 160.332 117.355 162.054 117.535 163.758C117.816 165.551 118.67 167.205 119.969 168.472" fill="#455A64"/>
<path d="M119.959 168.481C119.963 168.432 119.963 168.383 119.959 168.334C119.959 168.224 119.959 168.081 119.959 167.911C119.959 167.543 119.959 166.991 120.005 166.352C120.092 164.641 120.283 162.938 120.576 161.251C120.916 159.268 121.33 157.498 121.633 156.219C121.785 155.593 121.909 155.078 121.997 154.701C122.037 154.536 122.069 154.398 122.093 154.287C122.099 154.238 122.099 154.189 122.093 154.14C122.07 154.185 122.053 154.233 122.043 154.283C122.011 154.388 121.974 154.522 121.923 154.687C121.822 155.042 121.684 155.557 121.518 156.196C121.192 157.47 120.76 159.241 120.419 161.228C120.125 162.92 119.946 164.63 119.886 166.347C119.886 167.009 119.886 167.543 119.886 167.911V168.334C119.901 168.387 119.926 168.437 119.959 168.481Z" fill="#263238"/>
<g opacity="0.3">
<path d="M119.955 168.481C121.45 167.634 122.7 166.417 123.586 164.945C124.473 163.474 124.965 161.799 125.015 160.083C125.134 157.631 124.38 155.226 123.529 152.926C123.477 152.717 123.353 152.533 123.18 152.406C123.041 152.355 122.891 152.34 122.744 152.362C122.598 152.385 122.46 152.444 122.343 152.535C120.107 153.809 118.755 156.215 118.037 158.698C117.523 160.332 117.351 162.054 117.531 163.758C117.812 165.551 118.666 167.205 119.965 168.472" fill="black"/>
</g>
<path d="M116.488 187.141C113.462 187.808 110.969 189.938 108.053 190.977C106.121 191.663 103.941 191.897 102.4 193.254C102.768 192.334 103.647 191.699 104.497 191.17C106.9 189.669 109.464 188.444 112.142 187.519C113.522 187.059 115.003 186.649 116.401 187.059" fill="#455A64"/>
<path d="M120.862 189.836C124.647 189.777 128.635 186.552 132.406 186.359C128.46 185.085 122.812 186.125 120.862 189.836Z" fill="#455A64"/>
<path d="M119.383 180.748C117.429 180.111 115.347 179.972 113.325 180.343C111.314 180.713 109.337 181.25 107.415 181.949C107.608 180.633 108.671 179.649 109.673 178.77C110.403 178.081 111.198 177.465 112.047 176.931C112.9 176.397 113.887 176.118 114.894 176.126C115.497 176.165 116.086 176.325 116.626 176.597C117.165 176.869 117.645 177.247 118.035 177.708C118.8 178.544 119.273 179.606 119.383 180.734" fill="#455A64"/>
<path d="M127.155 176.567C129.538 174.53 133.135 174.727 136.285 174.801C131.249 177.204 126.499 180.165 122.123 183.627C121.999 181.41 124.143 179.138 127.155 176.567Z" fill="#455A64"/>
<g opacity="0.3">
<path d="M127.155 176.567C129.538 174.53 133.135 174.727 136.285 174.801C131.249 177.204 126.499 180.165 122.123 183.627C121.999 181.41 124.143 179.138 127.155 176.567Z" fill="black"/>
</g>
<path d="M118.31 173.757C117.142 172.95 115.911 172.238 114.63 171.627C113.374 171.057 112.206 170.146 110.992 169.489C109.423 168.638 108.057 167.456 106.618 166.402C105.178 165.349 103.591 164.392 101.825 164.103C103.278 163.842 104.772 163.927 106.185 164.351C107.594 164.777 108.967 165.313 110.293 165.952C112.132 166.789 114.046 167.644 115.564 169.006C117.081 170.367 118.457 171.71 118.3 173.743" fill="#455A64"/>
<path d="M108.124 189.836C108.166 189.826 108.207 189.809 108.244 189.786L108.575 189.611C108.86 189.459 109.269 189.239 109.784 188.976C110.042 188.843 110.323 188.7 110.631 188.558C110.939 188.415 111.265 188.259 111.615 188.098C112.368 187.76 113.148 187.488 113.947 187.284C114.739 187.065 115.573 187.045 116.375 187.224C116.727 187.299 117.071 187.402 117.406 187.532C117.696 187.648 117.975 187.791 118.238 187.96C118.622 188.201 118.972 188.49 119.282 188.82C119.503 189.055 119.609 189.197 119.618 189.193C119.627 189.188 119.618 189.151 119.549 189.082C119.479 188.977 119.402 188.878 119.319 188.783C119.021 188.429 118.674 188.12 118.289 187.863C118.023 187.684 117.741 187.53 117.447 187.403C117.11 187.267 116.763 187.16 116.408 187.081C115.586 186.887 114.728 186.905 113.915 187.132C113.108 187.335 112.321 187.612 111.564 187.96C111.215 188.116 110.884 188.268 110.58 188.42C110.277 188.572 109.996 188.714 109.743 188.857C109.233 189.128 108.823 189.363 108.552 189.533L108.23 189.726C108.189 189.757 108.153 189.794 108.124 189.836Z" fill="#263238"/>
<path d="M123.683 187.96C123.6 187.97 123.52 187.993 123.444 188.029C123.233 188.105 123.028 188.194 122.828 188.296C122.165 188.631 121.556 189.064 121.02 189.579C120.484 190.094 120.027 190.686 119.663 191.336C119.554 191.533 119.456 191.735 119.369 191.943C119.331 192.017 119.304 192.096 119.291 192.178C119.314 192.178 119.457 191.865 119.751 191.386C120.136 190.76 120.6 190.185 121.131 189.675C121.66 189.171 122.252 188.736 122.892 188.383C123.366 188.112 123.693 187.983 123.683 187.96Z" fill="#263238"/>
<path d="M132.043 176.378C131.988 176.387 131.933 176.402 131.882 176.424L131.422 176.585L130.705 176.852C130.424 176.953 130.12 177.11 129.785 177.257C128.008 178.081 126.35 179.139 124.854 180.403C124.036 181.103 123.268 181.86 122.554 182.666C121.973 183.326 121.428 184.017 120.921 184.736C120.489 185.347 120.158 185.858 119.937 186.207L119.675 186.617C119.642 186.663 119.615 186.712 119.592 186.764C119.631 186.723 119.667 186.678 119.698 186.631C119.767 186.543 119.859 186.41 119.979 186.24C120.218 185.895 120.558 185.393 121 184.791C121.441 184.188 121.993 183.489 122.646 182.749C123.364 181.952 124.132 181.202 124.946 180.504C126.434 179.249 128.075 178.187 129.831 177.344C130.166 177.188 130.47 177.032 130.751 176.921L131.454 176.636L131.914 176.452L132.043 176.378Z" fill="#263238"/>
<path d="M113.697 178.618C113.8 178.618 113.901 178.606 114.001 178.582L114.346 178.517C114.484 178.49 114.64 178.49 114.806 178.471C115.705 178.395 116.607 178.574 117.409 178.986C117.848 179.215 118.248 179.512 118.596 179.865C118.884 180.15 119.141 180.466 119.359 180.808C119.555 181.127 119.729 181.459 119.879 181.801C119.866 181.7 119.839 181.601 119.801 181.507C119.706 181.245 119.584 180.994 119.437 180.757C119.228 180.4 118.975 180.071 118.683 179.778C118.335 179.405 117.926 179.094 117.473 178.858C116.652 178.43 115.721 178.26 114.801 178.37C114.647 178.382 114.493 178.404 114.341 178.435L113.992 178.522C113.89 178.543 113.792 178.576 113.697 178.618Z" fill="#263238"/>
<path d="M109.889 166.812L110.032 166.899L110.455 167.129C110.823 167.327 111.352 167.617 111.996 167.998C112.64 168.38 113.376 168.849 114.19 169.424C115.064 170.036 115.884 170.723 116.641 171.476C117.029 171.863 117.366 172.299 117.644 172.773C117.888 173.232 118.127 173.692 118.343 174.152C118.737 174.931 119.089 175.731 119.396 176.549C119.601 177.101 119.773 177.664 119.911 178.237C120.008 178.641 120.04 178.871 120.054 178.867C120.06 178.812 120.06 178.756 120.054 178.701C120.054 178.591 120.017 178.43 119.976 178.241C119.86 177.663 119.706 177.093 119.516 176.535C119.218 175.71 118.874 174.902 118.486 174.116C118.269 173.656 118.026 173.196 117.787 172.736C117.506 172.25 117.163 171.803 116.765 171.407C116.005 170.646 115.176 169.957 114.291 169.346C113.481 168.776 112.718 168.311 112.069 167.939C111.421 167.566 110.883 167.29 110.51 167.106L110.073 166.899C110.018 166.858 109.956 166.828 109.889 166.812Z" fill="#263238"/>
<path d="M120.513 178.278C120.547 178.175 120.572 178.069 120.587 177.961C120.633 177.726 120.688 177.432 120.752 177.087C120.932 176.125 121.172 175.176 121.47 174.244C121.775 173.314 122.136 172.404 122.551 171.517L122.919 170.707C122.969 170.608 123.011 170.505 123.043 170.399C122.977 170.488 122.92 170.584 122.873 170.684C122.772 170.868 122.629 171.144 122.463 171.476C122.022 172.355 121.647 173.267 121.341 174.203C121.043 175.14 120.814 176.098 120.656 177.069C120.601 177.441 120.555 177.74 120.536 177.952C120.514 178.059 120.507 178.169 120.513 178.278Z" fill="#263238"/>
<path d="M120.787 169.663C120.907 168.227 121.327 166.833 122.02 165.57C122.954 163.834 124.257 162.324 125.838 161.145C127.418 159.967 129.238 159.149 131.168 158.749L122.7 171.374L121.606 173.628C120.918 172.427 120.631 171.038 120.787 169.663Z" fill="#455A64"/>
<path d="M108.633 194.542H128.332V198.033H108.633V194.542Z" fill="#206FAD"/>
<path d="M126.859 197.343L125.181 208.175H112.104L110.104 197.343H126.859Z" fill="#206FAD"/>
<path d="M108.649 198.037C108.649 198.079 113.093 198.111 118.57 198.111C124.048 198.111 128.496 198.079 128.496 198.037C128.496 197.996 124.053 197.968 118.57 197.968C113.088 197.968 108.649 198 108.649 198.037Z" fill="#263238"/>
<path d="M10.2512 208.036C77.6056 171.452 150.493 37.7094 150.493 37.7094L166.789 39.8711C140.296 95.2532 111.278 142.954 73.9306 182.767C58.8674 198.824 48.3117 208.243 48.3117 208.243L15.8257 207.99L10.2512 208.036Z" fill="#206FAD"/>
<g opacity="0.3">
<path d="M9.85783 208.036C77.1617 171.346 150.045 38.0175 150.045 38.0175L166.336 40.1792C139.861 95.5751 111.276 142.954 73.4821 183.071C58.3867 199.1 48.3093 208.243 48.3093 208.243L15.8233 207.99L9.85783 208.036Z" fill="black"/>
</g>
<path d="M124.075 35.5614L178.16 42.9297L169.973 9.60666L159.799 8.67297L124.075 35.5614Z" fill="#206FAD"/>
<path opacity="0.3" d="M124.075 35.5614L178.16 42.9297L169.973 9.60666L159.799 8.67297L124.075 35.5614Z" fill="black"/>
<path d="M123.212 35.4096L167.809 41.4947L159.801 8.67297L123.212 35.4096Z" fill="#206FAD"/>
<path d="M138.591 37.3L155.609 39.7194C129.553 96.2559 110.3 123.558 75.0453 165.239C58.7586 184.487 36.6306 208.055 36.6306 208.055L8.05881 208.262C89.3864 141.745 138.591 37.3 138.591 37.3Z" fill="#206FAD"/>
<path d="M197.871 75.0156C199.277 73.4427 200.542 71.7498 201.652 69.9562C202.767 68.1652 203.418 66.1243 203.547 64.0183C203.547 63.701 203.441 61.4932 203.138 61.4012C202.917 61.3368 202.751 63.2824 202.567 63.4204C200.882 64.8145 199.657 66.6855 199.053 68.788C198.43 70.8137 198.033 72.9024 197.871 75.0156Z" fill="#263238"/>
<path d="M197.396 55.5783L196.936 55.4174C194.706 54.6361 192.263 54.7227 190.093 55.6601C187.924 56.5975 186.186 58.317 185.226 60.4768C183.386 64.6531 181.395 69.2893 180.627 71.6028C179.022 76.3909 183.294 78.6538 183.294 78.6538L181.597 81.1881L183.005 87.0294L193.202 84.2697L201.104 67.6565C203.256 62.8547 202.258 57.5975 197.396 55.5783Z" fill="#FFBF9D"/>
<path d="M183.291 78.6951C185.559 79.5323 188.022 79.6921 190.379 79.155C190.379 79.155 187.835 82.4344 182.56 79.7805L183.291 78.6951Z" fill="#FF9A6C"/>
<path d="M185.056 64.7818C184.992 64.9588 184.999 65.1541 185.076 65.326C185.154 65.4979 185.295 65.6327 185.47 65.7017C185.555 65.7387 185.646 65.7586 185.738 65.7602C185.83 65.7617 185.922 65.7448 186.007 65.7106C186.093 65.6763 186.171 65.6254 186.237 65.5607C186.303 65.496 186.355 65.4188 186.39 65.3337C186.455 65.1561 186.447 64.9603 186.369 64.7884C186.291 64.6164 186.148 64.4819 185.972 64.4138C185.888 64.3768 185.797 64.357 185.705 64.3556C185.613 64.3541 185.522 64.371 185.437 64.4053C185.351 64.4395 185.274 64.4905 185.209 64.5552C185.143 64.6198 185.092 64.6969 185.056 64.7818Z" fill="#263238"/>
<path d="M185.625 62.9559C185.675 63.0755 186.328 62.8731 187.06 63.1307C187.791 63.3882 188.2 63.9402 188.311 63.8804C188.421 63.8206 188.311 63.6642 188.159 63.4204C187.918 63.0897 187.581 62.8422 187.193 62.7121C186.814 62.5771 186.401 62.5674 186.016 62.6845C185.726 62.7673 185.597 62.9007 185.625 62.9559Z" fill="#263238"/>
<path d="M191.44 67.4633C191.375 67.6409 191.383 67.8367 191.461 68.0087C191.54 68.1807 191.682 68.3151 191.858 68.3832C191.943 68.4209 192.034 68.4413 192.126 68.4432C192.219 68.445 192.31 68.4283 192.396 68.394C192.482 68.3596 192.56 68.3084 192.626 68.2434C192.691 68.1783 192.743 68.1007 192.778 68.0153C192.841 67.8376 192.833 67.6423 192.755 67.4706C192.677 67.299 192.535 67.1644 192.36 67.0954C192.275 67.0576 192.184 67.0373 192.092 67.0354C191.999 67.0336 191.908 67.0503 191.822 67.0846C191.736 67.1189 191.658 67.1702 191.592 67.2352C191.527 67.3003 191.475 67.3778 191.44 67.4633Z" fill="#263238"/>
<path d="M192.633 65.6328C192.689 65.7524 193.337 65.55 194.069 65.8076C194.8 66.0651 195.209 66.6171 195.324 66.5573C195.439 66.4975 195.347 66.3411 195.168 66.0973C194.928 65.7678 194.592 65.5205 194.206 65.389C193.825 65.254 193.411 65.2443 193.024 65.3614C192.739 65.4442 192.606 65.5776 192.633 65.6328Z" fill="#263238"/>
<path d="M188.039 70.347C187.696 70.0918 187.322 69.8801 186.926 69.7169C186.742 69.6341 186.581 69.5329 186.595 69.3949C186.609 69.257 186.747 69.0684 186.912 68.8844L187.961 67.6564C189.437 65.8948 190.578 64.4367 190.504 64.3631C190.431 64.2895 189.18 65.6832 187.703 67.4448L186.673 68.6912C186.477 68.8775 186.352 69.1263 186.319 69.3949C186.323 69.4704 186.344 69.5439 186.381 69.6101C186.418 69.6762 186.469 69.7331 186.531 69.7767C186.624 69.8409 186.726 69.892 186.834 69.9285C187.216 70.119 187.621 70.2596 188.039 70.347Z" fill="#263238"/>
<path d="M193.296 63.7562C193.296 63.977 193.972 64.115 194.703 64.4875C195.434 64.8601 195.968 65.3154 196.133 65.1729C196.207 65.1039 196.166 64.8785 195.986 64.5979C195.746 64.2455 195.418 63.9617 195.034 63.7746C194.66 63.5844 194.243 63.4956 193.824 63.5171C193.498 63.5447 193.3 63.655 193.296 63.7562Z" fill="#263238"/>
<path d="M187.054 60.5549C187.095 60.7849 187.689 60.9137 188.3 61.2586C188.912 61.6036 189.358 62.0037 189.565 61.9163C189.662 61.8657 189.671 61.668 189.528 61.392C189.331 61.0379 189.033 60.7499 188.673 60.5641C188.319 60.3646 187.915 60.2719 187.509 60.2973C187.201 60.3341 187.04 60.4491 187.054 60.5549Z" fill="#263238"/>
<path d="M199.483 71.0555C199.579 71.0555 203.098 71.2303 201.856 74.4545C200.614 77.6788 197.284 75.7562 197.316 75.6642C197.349 75.5722 199.483 71.0555 199.483 71.0555Z" fill="#FFBF9D"/>
<path d="M199.118 74.8316C199.118 74.8316 199.16 74.8914 199.238 74.9696C199.35 75.0785 199.5 75.1395 199.656 75.1398C200.043 75.1398 200.539 74.7167 200.779 74.1417C200.892 73.8681 200.944 73.5729 200.93 73.277C200.938 73.1647 200.919 73.0521 200.874 72.9488C200.83 72.8455 200.76 72.7545 200.673 72.6837C200.615 72.6414 200.544 72.6209 200.472 72.6259C200.401 72.631 200.333 72.6612 200.282 72.7113C200.204 72.7849 200.199 72.8539 200.181 72.8539C200.162 72.8539 200.135 72.7757 200.213 72.6515C200.26 72.578 200.332 72.5241 200.415 72.4997C200.471 72.4821 200.531 72.4762 200.589 72.4826C200.648 72.4889 200.704 72.5073 200.756 72.5365C200.879 72.6127 200.981 72.7198 201.05 72.8473C201.119 72.9747 201.154 73.1181 201.151 73.2632C201.183 73.5943 201.131 73.9281 200.999 74.2337C200.728 74.8776 200.162 75.356 199.647 75.31C199.555 75.2995 199.466 75.269 199.386 75.2205C199.307 75.1721 199.239 75.1068 199.187 75.0294C199.095 74.9098 199.104 74.8316 199.118 74.8316Z" fill="#FF9A6C"/>
<path d="M189.411 55.9921C189.001 55.5 191.25 54.4329 192.736 54.3593C195.036 54.2443 198.177 54.8745 199.759 56.0841C201.663 57.5376 203.025 59.3038 203.328 61.6863C203.579 64.0833 203.189 66.5039 202.197 68.7004C201.952 69.3932 201.528 70.0088 200.969 70.485C200.238 71.0186 199.198 71.1244 198.849 72.1224C198.79 72.3041 198.696 72.4724 198.572 72.6177C198.448 72.7629 198.297 72.8822 198.127 72.9687C197.294 73.3643 196.806 72.5088 196.71 71.7683C196.498 70.2321 197.013 68.7004 197.524 67.2332C197.826 66.1707 198.302 65.1653 198.931 64.2574C199.304 63.7974 199.755 63.3743 200.095 62.8775C200.282 62.6419 200.415 62.3685 200.486 62.0763C200.557 61.784 200.563 61.4799 200.504 61.1849C200.463 61.058 200.411 60.9349 200.348 60.817C200.054 60.2486 199.614 59.7687 199.073 59.4268C198.533 59.0848 197.91 58.8931 197.271 58.8714C195.21 58.7932 191.752 58.531 191.177 57.5974C190.363 56.2543 190.317 55.569 190.317 55.569L189.411 55.9921Z" fill="#263238"/>
<path d="M190.126 71.6902C190.021 71.6396 189.722 72.3755 188.884 72.6469C188.047 72.9183 187.293 72.5227 187.242 72.6469C187.192 72.7711 187.362 72.8585 187.702 73.0011C188.132 73.1798 188.611 73.201 189.055 73.0609C189.482 72.9288 189.84 72.6349 190.053 72.2422C190.191 71.9248 190.182 71.7086 190.126 71.6902Z" fill="#263238"/>
<path d="M152.142 57.4181C151.963 57.3169 151.682 53.3936 152.685 51.3514C153.688 49.3092 157.561 45.5791 157.561 45.5791C157.561 45.5791 158.94 43.2379 160.017 42.2077C160.19 42.0386 160.416 41.9351 160.657 41.915C160.898 41.8948 161.138 41.9593 161.337 42.0973C161.337 42.0973 161.668 41.228 162.358 41.5821C162.638 41.7293 162.243 45.1881 161.585 46.2828C160.927 47.3775 158.954 50.4821 158.954 50.4821L157.441 54.4146L157.901 55.2701L152.142 57.4181Z" fill="#FFBF9D"/>
<path d="M157.508 48.6882C157.831 48.4961 158.122 48.2557 158.372 47.9753C159.668 46.6902 160.617 45.0986 161.132 43.3483C161.257 42.9929 161.329 42.6208 161.344 42.2444C160.955 43.4458 160.451 44.6072 159.84 45.7124C159.157 46.7748 158.376 47.7711 157.508 48.6882Z" fill="#FF9A6C"/>
<path d="M147.712 193.617L151.594 201.436L151.636 202.223C151.636 202.223 141.305 206.275 141.227 208.202L161.336 207.825L161.267 202.765L157.758 193.401L147.712 193.617Z" fill="#263238"/>
<path d="M157.843 201.234C158.036 201.289 158.202 201.413 158.31 201.582C158.418 201.752 158.459 201.955 158.427 202.154C158.379 202.352 158.257 202.524 158.086 202.634C157.914 202.744 157.707 202.783 157.507 202.742C157.3 202.684 157.123 202.551 157.009 202.369C156.895 202.187 156.853 201.969 156.891 201.758C156.962 201.559 157.107 201.395 157.297 201.3C157.486 201.206 157.705 201.189 157.907 201.252" fill="#8FCBFB"/>
<path d="M161.336 207.82L161.249 206.192L142 207.163C142 207.163 141.112 207.567 141.227 208.197L161.336 207.82Z" fill="#455A64"/>
<path d="M151.311 202.126C151.311 202.223 151.808 202.26 152.3 202.563C152.792 202.867 153.054 203.281 153.142 203.239C153.229 203.198 153.073 202.632 152.475 202.273C151.877 201.915 151.288 202.034 151.311 202.126Z" fill="white"/>
<path d="M149.22 203.037C149.22 203.133 149.63 203.29 149.97 203.699C150.31 204.109 150.43 204.546 150.513 204.541C150.596 204.536 150.665 203.98 150.228 203.478C149.791 202.977 149.22 202.945 149.22 203.037Z" fill="white"/>
<path d="M148.068 205.585C148.16 205.585 148.284 205.125 148.022 204.578C147.76 204.03 147.296 203.837 147.259 203.92C147.222 204.003 147.507 204.288 147.719 204.729C147.93 205.171 147.972 205.576 148.068 205.585Z" fill="white"/>
<path d="M186.955 195.669L190.836 203.488L190.882 204.274C190.882 204.274 180.547 208.326 180.469 210.253L200.578 209.872L200.509 204.812L197 195.448L186.955 195.669Z" fill="#263238"/>
<path d="M197.085 203.285C197.278 203.34 197.444 203.464 197.552 203.634C197.66 203.804 197.701 204.007 197.669 204.205C197.622 204.403 197.499 204.575 197.328 204.685C197.156 204.795 196.949 204.834 196.749 204.794C196.543 204.733 196.367 204.597 196.255 204.414C196.142 204.23 196.102 204.012 196.142 203.8C196.213 203.601 196.359 203.437 196.548 203.343C196.738 203.248 196.956 203.231 197.158 203.294" fill="#8FCBFB"/>
<path d="M200.578 209.872L200.491 208.243L181.26 209.214C181.26 209.214 180.373 209.619 180.488 210.249L200.578 209.872Z" fill="#455A64"/>
<path d="M190.553 204.177C190.553 204.274 191.05 204.311 191.542 204.614C192.034 204.918 192.296 205.332 192.383 205.29C192.471 205.249 192.319 204.683 191.717 204.325C191.114 203.966 190.53 204.085 190.553 204.177Z" fill="white"/>
<path d="M188.463 205.088C188.463 205.185 188.872 205.341 189.212 205.75C189.553 206.16 189.672 206.597 189.755 206.592C189.838 206.588 189.907 206.031 189.47 205.53C189.033 205.028 188.463 204.996 188.463 205.088Z" fill="white"/>
<path d="M187.311 207.636C187.402 207.636 187.527 207.176 187.265 206.629C187.002 206.082 186.542 205.888 186.501 205.971C186.46 206.054 186.749 206.339 186.961 206.781C187.173 207.222 187.214 207.627 187.311 207.636Z" fill="white"/>
<path d="M182.824 128.627C182.824 129.464 181.017 147.894 181.017 147.894L186.246 166.228C186.246 166.228 191.379 178.301 193.569 182.349C195.758 186.396 200.707 201.666 200.707 201.666L188.969 203.994C188.969 203.994 174.83 176.898 172.232 172.717C169.633 168.536 159.638 153.883 157.629 142.715C156.911 138.723 156.621 128.636 156.621 128.636L182.824 128.627Z" fill="#263238"/>
<path d="M163.398 151.978L150.52 166.306L161.315 197.554L148.294 200.121C148.294 199.702 136.441 169.208 134.932 163.964C134.082 161.012 141.528 150.226 145.024 146.234C147.756 143.115 153.399 136.915 153.832 136.497C154.264 136.078 156.748 132.325 156.748 132.325L163.398 151.997" fill="#263238"/>
<path d="M156.491 133.93C156.472 134.204 156.472 134.479 156.491 134.753C156.491 135.282 156.555 136.046 156.643 136.989C156.881 139.445 157.302 141.88 157.903 144.274C158.514 146.665 159.292 149.011 160.23 151.293C160.594 152.167 160.906 152.866 161.15 153.34C161.259 153.592 161.385 153.836 161.527 154.071C161.454 153.807 161.357 153.55 161.238 153.303C161.031 152.815 160.745 152.107 160.405 151.229C159.511 148.939 158.758 146.597 158.151 144.214C157.554 141.831 157.111 139.411 156.827 136.97C156.716 136.05 156.643 135.273 156.597 134.749C156.583 134.473 156.548 134.2 156.491 133.93Z" fill="#455A64"/>
<path opacity="0.3" d="M181.475 143.63H159.66V142.379L181.562 141.542L181.475 143.63Z" fill="black"/>
<path d="M145.389 165.22C145.389 165.289 146.589 165.377 148.015 165.767C149.441 166.158 150.522 166.687 150.559 166.628C149.014 165.654 147.214 165.163 145.389 165.22Z" fill="#455A64"/>
<path opacity="0.3" d="M159.893 155.888C159.893 155.888 157.515 147.337 157.832 143.626C157.832 143.626 159.474 151.201 161.512 154.071L159.893 155.888Z" fill="black"/>
<path d="M188.849 204.007C188.849 204.007 189.01 204.007 189.309 203.938L190.588 203.718L194.787 202.936C196.429 202.623 197.91 202.329 198.982 202.103C199.52 201.993 199.952 201.896 200.251 201.827C200.409 201.8 200.563 201.755 200.711 201.694C200.556 201.687 200.402 201.701 200.251 201.735C199.947 201.777 199.51 201.846 198.968 201.938C197.891 202.117 196.401 202.398 194.764 202.701C193.126 203.005 191.641 203.313 190.574 203.552C189.983 203.636 189.404 203.789 188.849 204.007Z" fill="#455A64"/>
<path d="M149.479 199.872C149.479 199.872 149.64 199.872 149.938 199.803L151.217 199.578L155.416 198.796C157.058 198.483 158.539 198.189 159.611 197.964C160.145 197.853 160.582 197.761 160.876 197.688C161.035 197.666 161.19 197.621 161.336 197.554C161.182 197.55 161.027 197.564 160.876 197.596C160.572 197.637 160.135 197.711 159.593 197.798C158.516 197.982 157.026 198.258 155.384 198.562C153.742 198.865 152.266 199.178 151.194 199.413C150.122 199.647 149.446 199.817 149.479 199.872Z" fill="#455A64"/>
<path d="M168.473 91.3481C168.473 91.3481 160.438 104.641 157.347 115.767C154.256 126.893 156.11 128.645 156.11 128.645L169.448 127.656L172.668 112.938L168.473 91.3481Z" fill="#8FCBFB"/>
<path d="M194.282 82.807L194.512 81.5146L181.813 80.1761L180.58 81.1512L194.282 82.807Z" fill="#8FCBFB"/>
<path d="M170.538 85.4104C169.669 85.9761 162.622 100.699 160.806 109.958C159.633 115.937 158.759 125.646 158.418 128.516C158.018 131.865 158.386 142.439 158.759 142.379L187.275 141.335L183.596 116.011C183.596 116.011 192.335 103.776 194.313 97.4885C195.469 93.5189 195.469 89.3018 194.313 85.3322L194.464 82.8347L181.439 80.9949L170.538 85.4104Z" fill="#263238"/>
<path d="M181.818 108.858C181.882 108.835 180.792 105.551 179.389 101.499C177.986 97.4471 176.795 94.2137 176.735 94.2367C176.675 94.2597 177.761 97.5437 179.164 101.596C180.567 105.648 181.758 108.881 181.818 108.858Z" fill="#455A64"/>
<path d="M193.754 92.9904C192.567 95.1476 189.734 98.22 185.056 98.0498C180.379 97.8796 162.427 80.9076 159.884 78.3779C157.34 75.8482 151.145 57.4872 151.145 57.4872L158.724 54.6539L170.228 72.7666L183.01 81.9149C183.69 81.8551 189.973 82.6232 192.011 85.5945" fill="#263238"/>
<path d="M192.008 85.5943C192.008 85.5943 191.976 85.5437 191.907 85.4563L191.604 85.0608C191.443 84.909 191.254 84.7066 191.001 84.495C190.71 84.2586 190.403 84.0434 190.081 83.8511C189.171 83.324 188.201 82.9071 187.193 82.6093C186.604 82.4299 185.955 82.2597 185.261 82.1217C184.521 81.9607 183.768 81.8653 183.012 81.8366H183.053L170.299 72.6606L170.322 72.6882L158.823 54.5894L158.773 54.5066L158.685 54.5388L151.105 57.3721L150.995 57.4134L151.032 57.5238C151.556 59.0647 152.136 60.7021 152.729 62.3533C154.15 66.2766 155.585 70.0895 157.177 73.6909C157.577 74.6108 157.991 75.4755 158.442 76.331C158.672 76.7588 158.901 77.1819 159.164 77.5867C159.288 77.7936 159.44 77.9868 159.582 78.18C159.737 78.3672 159.905 78.5439 160.084 78.7089C161.44 80.029 162.793 81.2892 164.117 82.5173C169.443 87.4019 174.374 91.6656 178.836 94.8622C179.889 95.6266 180.982 96.3344 182.11 96.9826C182.632 97.2826 183.175 97.5454 183.734 97.7691C184.002 97.878 184.277 97.9671 184.557 98.0358C184.833 98.0919 185.113 98.1166 185.394 98.1094C187.276 98.1291 189.117 97.5615 190.661 96.4858C191.631 95.8142 192.475 94.9765 193.154 94.0113C193.396 93.6821 193.61 93.3328 193.793 92.9672C193.793 92.9672 193.733 93.0546 193.627 93.2294C193.522 93.4042 193.351 93.6618 193.112 93.9837C192.421 94.9282 191.575 95.7492 190.61 96.4122C189.067 97.4808 187.229 98.0404 185.353 98.0128C184.798 98.0206 184.248 97.9044 183.743 97.6725C183.194 97.4477 182.66 97.1849 182.147 96.886C181.025 96.2375 179.94 95.5281 178.895 94.761C174.475 91.5414 169.558 87.2823 164.246 82.3931C162.921 81.165 161.569 79.9002 160.217 78.5801C159.875 78.2618 159.578 77.8981 159.334 77.4993C159.076 77.1037 158.874 76.6852 158.626 76.262C158.166 75.4111 157.765 74.528 157.37 73.6311C155.783 70.039 154.353 66.226 152.931 62.3073C152.338 60.6607 151.763 59.0233 151.234 57.4824L151.165 57.6342L158.727 54.778L158.589 54.732L170.129 72.8124L182.924 81.9331H182.952C183.697 81.9618 184.439 82.0526 185.169 82.2045C185.864 82.3379 186.507 82.5035 187.096 82.6645C188.099 82.9509 189.066 83.3538 189.975 83.8649C190.296 84.0529 190.603 84.2618 190.895 84.4904C191.148 84.6974 191.355 84.8906 191.502 85.0378L191.82 85.4195C191.967 85.5667 192.008 85.5943 192.008 85.5943Z" fill="#455A64"/>
<path d="M183.316 91.3483C183.377 91.2367 183.418 91.1152 183.436 90.9895C183.496 90.755 183.565 90.41 183.634 89.9869C183.8 88.8697 183.848 87.7381 183.776 86.6109C183.707 85.485 183.516 84.37 183.206 83.2855C183.116 82.9564 183.009 82.6324 182.884 82.315C182.848 82.1939 182.794 82.0791 182.723 81.9746C182.807 82.4306 182.915 82.8819 183.045 83.3269C183.567 85.4984 183.709 87.744 183.464 89.9639C183.376 90.8148 183.28 91.3391 183.316 91.3483Z" fill="#455A64"/>
<path d="M184.158 107.626C184.199 107.626 184.314 106.881 184.645 105.708C185.519 102.641 187.162 99.8477 189.42 97.5944C190.28 96.7343 190.882 96.2698 190.855 96.2146C190.689 96.2946 190.535 96.395 190.395 96.5136C190.005 96.797 189.633 97.1043 189.282 97.4335C188.123 98.5551 187.127 99.834 186.324 101.233C185.504 102.616 184.885 104.109 184.484 105.666C184.36 106.137 184.265 106.615 184.199 107.097C184.164 107.271 184.15 107.449 184.158 107.626Z" fill="#455A64"/>
<path d="M180.667 111.885C180.976 112.859 181.396 113.794 181.918 114.672C182.371 115.588 182.93 116.448 183.583 117.234C183.638 117.197 182.93 116.033 182.129 114.557C181.329 113.081 180.727 111.857 180.667 111.885Z" fill="#455A64"/>
<path d="M158.417 128.516C158.396 128.602 158.387 128.69 158.389 128.779C158.389 128.972 158.389 129.239 158.357 129.542C158.357 130.209 158.315 131.184 158.325 132.412C158.325 134.868 158.426 138.336 158.647 142.388V142.494H158.752C161.052 142.494 163.517 142.439 166.112 142.361C171.976 142.181 177.279 141.901 181.115 141.703L185.659 141.432L186.892 141.344L187.214 141.312H187.324C187.288 141.307 187.25 141.307 187.214 141.312H186.892L185.655 141.358L181.106 141.556C177.27 141.722 171.962 141.961 166.102 142.14C163.504 142.218 161.015 142.278 158.743 142.287L158.858 142.393C158.619 138.346 158.499 134.882 158.449 132.426C158.421 131.203 158.421 130.227 158.417 129.561C158.417 129.243 158.417 128.99 158.417 128.797C158.425 128.704 158.425 128.61 158.417 128.516Z" fill="#455A64"/>
<path opacity="0.3" d="M178.664 125.508V127.293H165.822L165.188 122.335L166.241 125.508H178.664Z" fill="black"/>
<path d="M180.207 125.508H179.917H179.117L176.169 125.476C173.671 125.453 170.189 125.421 166.243 125.416L166.353 125.504C166.045 124.331 165.719 123.103 165.388 121.824L165.309 121.525L165.19 121.672L178.188 121.631L178.119 121.59L179.632 124.45L180.051 125.232C180.098 125.327 180.15 125.419 180.207 125.508C180.176 125.42 180.137 125.333 180.092 125.251C179.995 125.058 179.871 124.791 179.715 124.473L178.261 121.521V121.475H178.211L165.213 121.433H165.061L165.098 121.585L165.181 121.884C165.512 123.144 165.838 124.368 166.151 125.564L166.174 125.651H166.266C170.291 125.651 173.809 125.614 176.293 125.587L179.204 125.559H179.977C180.055 125.548 180.132 125.531 180.207 125.508Z" fill="#455A64"/>
</svg>
