<svg width="230" height="230" viewBox="0 0 230 230" fill="none" xmlns="http://www.w3.org/2000/svg">
<path d="M167.586 201.011H161.863V201.176H167.586V201.011Z" fill="#8FCBFB"/>
<path d="M121.477 117.897H106.727V159.105H121.477V117.897Z" fill="#8FCBFB"/>
<path d="M115 220C175.199 220 224 215.971 224 211C224 206.029 175.199 202 115 202C54.801 202 6 206.029 6 211C6 215.971 54.801 220 115 220Z" fill="#8FCBFB"/>
<path d="M135.981 96.634H92.5078V211.033H135.981V96.634Z" fill="#206FAD"/>
<path opacity="0.5" d="M136.121 96.634H103.703V211.033H136.121V96.634Z" fill="black"/>
<path d="M192.774 135.636H149.301V211.027H192.774V135.636Z" fill="#206FAD"/>
<path opacity="0.3" d="M192.769 135.458H160.352V211.033H192.769V135.458Z" fill="black"/>
<path d="M78.907 117.034H35.4336V211.027H78.907V117.034Z" fill="#206FAD"/>
<path opacity="0.4" d="M78.9096 116.804H46.4922V211.027H78.9096V116.804Z" fill="black"/>
<path d="M52.36 211.152C52.3007 212.554 56.7323 213.878 62.2373 214.115C67.7423 214.352 72.2924 213.404 72.3517 212.001C72.4109 210.599 67.9793 209.282 62.4743 209.045C56.9694 208.808 52.4192 209.756 52.36 211.152Z" fill="#206FAD"/>
<path d="M52.4669 208.611L52.3594 211.144L72.3726 211.993L72.4801 209.46L52.4669 208.611Z" fill="#206FAD"/>
<path d="M52.4654 208.617C52.4062 210.019 56.8378 211.343 62.3428 211.58C67.8477 211.817 72.3979 210.869 72.4571 209.466C72.5164 208.063 68.0848 206.746 62.5798 206.509C57.0749 206.272 52.5247 207.221 52.4654 208.617Z" fill="#206FAD"/>
<path opacity="0.4" d="M52.4654 208.617C52.4062 210.019 56.8378 211.343 62.3428 211.58C67.8477 211.817 72.3979 210.869 72.4571 209.466C72.5164 208.063 68.0848 206.746 62.5798 206.509C57.0749 206.272 52.5247 207.221 52.4654 208.617Z" fill="white"/>
<path d="M53.7461 208.577C53.7461 208.668 53.7762 208.756 53.8317 208.827C54.4902 208.004 58.158 207.51 62.5303 207.701C66.9027 207.892 70.5178 208.683 71.0907 209.558C71.1559 209.494 71.1937 209.406 71.196 209.315C71.2355 208.366 67.3636 207.418 62.5369 207.214C57.7102 207.01 53.7856 207.629 53.7461 208.577Z" fill="#206FAD"/>
<path opacity="0.4" d="M53.7461 208.577C53.7461 208.668 53.7762 208.756 53.8317 208.827C54.4902 208.004 58.158 207.51 62.5303 207.701C66.9027 207.892 70.5178 208.683 71.0907 209.558C71.1559 209.494 71.1937 209.406 71.196 209.315C71.2355 208.366 67.3636 207.418 62.5369 207.214C57.7102 207.01 53.7856 207.629 53.7461 208.577Z" fill="#206FAD"/>
<path opacity="0.4" d="M53.832 208.827C54.4313 209.703 58.0332 210.493 62.3924 210.678C66.7516 210.862 70.4325 210.381 71.091 209.558C70.505 208.682 66.903 207.892 62.5307 207.701C58.1583 207.51 54.5037 208.004 53.832 208.827Z" fill="#206FAD"/>
<path d="M50.235 207.313C50.1757 208.715 54.6073 210.039 60.1123 210.276C65.6173 210.513 70.1674 209.565 70.2267 208.169C70.2859 206.773 65.8543 205.443 60.3493 205.206C54.8444 204.969 50.3206 205.917 50.235 207.313Z" fill="#206FAD"/>
<path d="M50.3692 204.785L50.2617 207.318L70.2749 208.167L70.3824 205.634L50.3692 204.785Z" fill="#206FAD"/>
<path d="M50.3639 204.784C50.3046 206.18 54.7362 207.504 60.2412 207.741C65.7462 207.978 70.2963 207.03 70.3556 205.634C70.4148 204.238 65.9832 202.908 60.4783 202.671C54.9733 202.434 50.4231 203.382 50.3639 204.784Z" fill="#206FAD"/>
<path opacity="0.4" d="M50.3639 204.784C50.3046 206.18 54.7362 207.504 60.2412 207.741C65.7462 207.978 70.2963 207.03 70.3556 205.634C70.4148 204.238 65.9832 202.908 60.4783 202.671C54.9733 202.434 50.4231 203.382 50.3639 204.784Z" fill="white"/>
<path d="M51.6408 204.738C51.638 204.829 51.6685 204.918 51.7264 204.988C52.3849 204.165 56.0527 203.671 60.425 203.869C64.7974 204.066 68.4125 204.843 68.9854 205.719C69.0453 205.654 69.0823 205.571 69.0907 205.482C69.1303 204.534 65.2583 203.579 60.4316 203.375C55.6049 203.171 51.6803 203.79 51.6408 204.738Z" fill="#206FAD"/>
<path opacity="0.4" d="M51.6408 204.738C51.638 204.829 51.6685 204.918 51.7264 204.988C52.3849 204.165 56.0527 203.671 60.425 203.869C64.7974 204.066 68.4125 204.843 68.9854 205.719C69.0453 205.654 69.0823 205.571 69.0907 205.482C69.1303 204.534 65.2583 203.579 60.4316 203.375C55.6049 203.171 51.6803 203.79 51.6408 204.738Z" fill="#206FAD"/>
<path opacity="0.4" d="M51.7266 204.988C52.3192 205.864 55.9277 206.654 60.2869 206.839C64.6461 207.023 68.3271 206.542 68.9855 205.719C68.3995 204.844 64.7976 204.053 60.4252 203.869C56.0528 203.685 52.3916 204.165 51.7266 204.988Z" fill="#206FAD"/>
<path d="M50.5279 202.69C50.4687 204.093 54.9003 205.417 60.4053 205.654C65.9102 205.891 70.4604 204.942 70.5196 203.54C70.5789 202.137 66.1473 200.82 60.6423 200.583C55.1374 200.346 50.5872 201.294 50.5279 202.69Z" fill="#206FAD"/>
<path d="M50.6348 200.157L50.5273 202.69L70.5406 203.54L70.648 201.007L50.6348 200.157Z" fill="#206FAD"/>
<path d="M50.6334 200.155C50.5741 201.558 55.0058 202.881 60.5107 203.118C66.0157 203.355 70.5593 202.407 70.6185 201.011C70.6778 199.615 66.2462 198.285 60.7412 198.048C55.2362 197.811 50.6927 198.759 50.6334 200.155Z" fill="#206FAD"/>
<path opacity="0.4" d="M50.6334 200.155C50.5741 201.558 55.0058 202.881 60.5107 203.118C66.0157 203.355 70.5593 202.407 70.6185 201.011C70.6778 199.615 66.2462 198.285 60.7412 198.048C55.2362 197.811 50.6927 198.759 50.6334 200.155Z" fill="white"/>
<path d="M51.9141 200.116C51.914 200.206 51.9442 200.294 51.9997 200.366C52.6581 199.543 56.3259 199.049 60.6983 199.246C65.0707 199.444 68.6858 200.221 69.2586 201.097C69.3235 201.035 69.3613 200.95 69.364 200.86C69.4035 199.912 65.5316 198.957 60.7049 198.753C55.8782 198.548 51.9536 199.167 51.9141 200.116Z" fill="#206FAD"/>
<path opacity="0.4" d="M51.9141 200.116C51.914 200.206 51.9442 200.294 51.9997 200.366C52.6581 199.543 56.3259 199.049 60.6983 199.246C65.0707 199.444 68.6858 200.221 69.2586 201.097C69.3235 201.035 69.3613 200.95 69.364 200.86C69.4035 199.912 65.5316 198.957 60.7049 198.753C55.8782 198.548 51.9536 199.167 51.9141 200.116Z" fill="#206FAD"/>
<path opacity="0.4" d="M52 200.366C52.5992 201.242 56.2012 202.032 60.5603 202.216C64.9195 202.4 68.6005 201.92 69.259 201.097C68.6729 200.221 65.071 199.431 60.6986 199.246C56.3263 199.062 52.6717 199.556 52 200.366Z" fill="#206FAD"/>
<path d="M48.4264 198.858C48.3671 200.254 52.7987 201.577 58.3037 201.814C63.8087 202.051 68.3588 201.103 68.4181 199.707C68.4773 198.311 64.0457 196.981 58.5408 196.744C53.0358 196.507 48.4856 197.455 48.4264 198.858Z" fill="#206FAD"/>
<path d="M48.5333 196.305L48.4258 198.838L68.439 199.687L68.5465 197.155L48.5333 196.305Z" fill="#206FAD"/>
<path d="M48.5318 196.323C48.4726 197.719 52.9042 199.042 58.4092 199.279C63.9141 199.516 68.4643 198.568 68.5235 197.172C68.5828 195.776 64.1512 194.446 58.6462 194.209C53.1413 193.972 48.5911 194.946 48.5318 196.323Z" fill="#206FAD"/>
<path opacity="0.4" d="M48.5318 196.323C48.4726 197.719 52.9042 199.042 58.4092 199.279C63.9141 199.516 68.4643 198.568 68.5235 197.172C68.5828 195.776 64.1512 194.446 58.6462 194.209C53.1413 193.972 48.5911 194.946 48.5318 196.323Z" fill="white"/>
<path d="M49.8168 196.263C49.8127 196.355 49.8433 196.444 49.9024 196.514C50.5609 195.69 54.2286 195.197 58.601 195.394C62.9734 195.592 66.5885 196.369 67.1613 197.244C67.2213 197.179 67.2583 197.096 67.2667 197.007C67.3062 196.059 63.4343 195.104 58.6076 194.9C53.7809 194.696 49.8563 195.328 49.8168 196.263Z" fill="#206FAD"/>
<path opacity="0.4" d="M49.8168 196.263C49.8127 196.355 49.8433 196.444 49.9024 196.514C50.5609 195.69 54.2286 195.197 58.601 195.394C62.9734 195.592 66.5885 196.369 67.1613 197.244C67.2213 197.179 67.2583 197.096 67.2667 197.007C67.3062 196.059 63.4343 195.104 58.6076 194.9C53.7809 194.696 49.8563 195.328 49.8168 196.263Z" fill="#206FAD"/>
<path opacity="0.4" d="M49.8984 196.527C50.4911 197.402 54.0996 198.193 58.4588 198.377C62.818 198.561 66.4989 198.081 67.1574 197.258C66.5714 196.382 62.9694 195.592 58.5971 195.407C54.2247 195.223 50.5635 195.704 49.8984 196.527Z" fill="#206FAD"/>
<path d="M51.6373 195.605C51.578 197.001 56.0097 198.324 61.5146 198.562C67.0196 198.799 71.5698 197.85 71.629 196.454C71.6883 195.058 67.2567 193.728 61.7517 193.491C56.2467 193.254 51.6966 194.202 51.6373 195.605Z" fill="#206FAD"/>
<path d="M51.7442 193.069L51.6367 195.602L71.6499 196.451L71.7574 193.918L51.7442 193.069Z" fill="#206FAD"/>
<path d="M51.7467 193.07C51.6874 194.466 56.119 195.789 61.624 196.026C67.129 196.263 71.6791 195.315 71.7384 193.919C71.7977 192.523 67.366 191.193 61.8611 190.956C56.3561 190.719 51.8059 191.654 51.7467 193.07Z" fill="#206FAD"/>
<path opacity="0.4" d="M51.7467 193.07C51.6874 194.466 56.119 195.789 61.624 196.026C67.129 196.263 71.6791 195.315 71.7384 193.919C71.7977 192.523 67.366 191.193 61.8611 190.956C56.3561 190.719 51.8059 191.654 51.7467 193.07Z" fill="white"/>
<path d="M53.0195 193.024C53.0218 193.114 53.0517 193.201 53.1051 193.274C53.7636 192.451 57.438 191.957 61.8038 192.155C66.1696 192.352 69.7978 193.129 70.3641 194.005C70.4282 193.942 70.4679 193.858 70.4761 193.768C70.5156 192.82 66.6437 191.865 61.8169 191.661C56.9902 191.457 53.0656 192.076 53.0195 193.024Z" fill="#206FAD"/>
<path opacity="0.4" d="M53.0195 193.024C53.0218 193.114 53.0517 193.201 53.1051 193.274C53.7636 192.451 57.438 191.957 61.8038 192.155C66.1696 192.352 69.7978 193.129 70.3641 194.005C70.4282 193.942 70.4679 193.858 70.4761 193.768C70.5156 192.82 66.6437 191.865 61.8169 191.661C56.9902 191.457 53.0656 192.076 53.0195 193.024Z" fill="#206FAD"/>
<path opacity="0.4" d="M53.1016 193.274C53.7008 194.15 57.3027 194.94 61.6619 195.124C66.0211 195.309 69.7086 194.828 70.3605 194.005C69.7811 193.129 66.1726 192.339 61.8002 192.154C57.4278 191.97 53.7732 192.451 53.1016 193.274Z" fill="#206FAD"/>
<path d="M49.5357 191.766C49.4765 193.162 53.9081 194.492 59.4131 194.722C64.918 194.953 69.4682 194.011 69.5275 192.615C69.5867 191.219 65.1551 189.889 59.6501 189.652C54.1452 189.415 49.5753 190.337 49.5357 191.766Z" fill="#206FAD"/>
<path d="M49.6426 189.223L49.5352 191.756L69.5484 192.605L69.6559 190.072L49.6426 189.223Z" fill="#206FAD"/>
<path d="M49.6412 189.231C49.5819 190.627 54.0136 191.957 59.5185 192.187C65.0235 192.418 69.5737 191.483 69.6329 190.08C69.6922 188.678 65.2606 187.354 59.7556 187.117C54.2506 186.88 49.7005 187.828 49.6412 189.231Z" fill="#206FAD"/>
<path opacity="0.4" d="M49.6412 189.231C49.5819 190.627 54.0136 191.957 59.5185 192.187C65.0235 192.418 69.5737 191.483 69.6329 190.08C69.6922 188.678 65.2606 187.354 59.7556 187.117C54.2506 186.88 49.7005 187.828 49.6412 189.231Z" fill="white"/>
<path d="M50.8907 189.185C50.8886 189.276 50.9189 189.364 50.9763 189.435C51.6348 188.612 55.3026 188.118 59.675 188.316C64.0473 188.513 67.6624 189.29 68.2353 190.172C68.2995 190.107 68.337 190.02 68.3407 189.929C68.3802 188.981 64.5083 188.032 59.6816 187.822C54.8548 187.611 50.9566 188.237 50.8907 189.185Z" fill="#206FAD"/>
<path opacity="0.4" d="M50.8907 189.185C50.8886 189.276 50.9189 189.364 50.9763 189.435C51.6348 188.612 55.3026 188.118 59.675 188.316C64.0473 188.513 67.6624 189.29 68.2353 190.172C68.2995 190.107 68.337 190.02 68.3407 189.929C68.3802 188.981 64.5083 188.032 59.6816 187.822C54.8548 187.611 50.9566 188.237 50.8907 189.185Z" fill="#206FAD"/>
<path opacity="0.4" d="M51.0078 189.435C51.607 190.311 55.209 191.101 59.5682 191.292C63.9274 191.483 67.6083 190.996 68.2668 190.172C67.6807 189.29 64.0788 188.5 59.7064 188.315C55.3341 188.131 51.6795 188.612 51.0078 189.435Z" fill="#206FAD"/>
<path d="M22.5163 209.927C22.4505 211.33 26.8821 212.653 32.3937 212.884C37.9052 213.114 42.4422 212.179 42.5015 210.777C42.5607 209.374 38.1357 208.05 32.6241 207.82C27.1126 207.589 22.5756 208.525 22.5163 209.927Z" fill="#206FAD"/>
<path d="M22.6192 207.379L22.5117 209.912L42.5249 210.762L42.6324 208.229L22.6192 207.379Z" fill="#206FAD"/>
<path d="M22.6217 207.392C22.5624 208.794 26.994 210.118 32.499 210.355C38.004 210.592 42.5541 209.644 42.6134 208.241C42.6727 206.839 38.241 205.515 32.7361 205.285C27.2311 205.054 22.6809 205.989 22.6217 207.392Z" fill="#206FAD"/>
<path opacity="0.4" d="M22.6217 207.392C22.5624 208.794 26.994 210.118 32.499 210.355C38.004 210.592 42.5541 209.644 42.6134 208.241C42.6727 206.839 38.241 205.515 32.7361 205.285C27.2311 205.054 22.6809 205.989 22.6217 207.392Z" fill="white"/>
<path d="M23.8912 207.346C23.8858 207.437 23.9166 207.527 23.9768 207.596C24.6353 206.773 28.3031 206.279 32.6755 206.477C37.0478 206.674 40.6629 207.458 41.2358 208.334C41.2959 208.266 41.3328 208.18 41.3412 208.09C41.3807 207.142 37.5088 206.193 32.6821 205.989C27.8553 205.785 23.9373 206.398 23.8912 207.346Z" fill="#206FAD"/>
<path opacity="0.4" d="M23.8912 207.346C23.8858 207.437 23.9166 207.527 23.9768 207.596C24.6353 206.773 28.3031 206.279 32.6755 206.477C37.0478 206.674 40.6629 207.458 41.2358 208.334C41.2959 208.266 41.3328 208.18 41.3412 208.09C41.3807 207.142 37.5088 206.193 32.6821 205.989C27.8553 205.785 23.9373 206.398 23.8912 207.346Z" fill="#206FAD"/>
<path opacity="0.4" d="M23.9883 207.596C24.5809 208.472 28.1894 209.269 32.5486 209.453C36.9078 209.637 40.5888 209.157 41.2473 208.334C40.6612 207.458 37.0593 206.661 32.6869 206.477C28.3145 206.292 24.6534 206.799 23.9883 207.596Z" fill="#206FAD"/>
<path d="M31.2216 207.458C30.8924 208.821 34.9948 210.961 40.3746 212.238C45.7545 213.516 50.3837 213.45 50.7063 212.087C51.029 210.724 46.9266 208.584 41.5467 207.306C36.1669 206.029 31.5443 206.095 31.2216 207.458Z" fill="#206FAD"/>
<path d="M31.8054 205.004L31.2188 207.47L50.7063 212.106L51.2929 209.639L31.8054 205.004Z" fill="#206FAD"/>
<path d="M31.7959 204.988C31.4666 206.352 35.569 208.492 40.9488 209.776C46.3287 211.06 50.9579 210.987 51.2805 209.624C51.6032 208.261 47.5206 206.141 42.1341 204.824C36.7477 203.507 32.1317 203.625 31.7959 204.988Z" fill="#206FAD"/>
<path opacity="0.4" d="M31.7959 204.988C31.4666 206.352 35.569 208.492 40.9488 209.776C46.3287 211.06 50.9579 210.987 51.2805 209.624C51.6032 208.261 47.5206 206.141 42.1341 204.824C36.7477 203.507 32.1317 203.625 31.7959 204.988Z" fill="white"/>
<path d="M33.0671 205.186C33.0477 205.276 33.0617 205.369 33.1066 205.449C33.9166 204.791 37.6041 204.988 41.858 206.002C46.1118 207.016 49.5162 208.478 49.9244 209.446C49.9988 209.394 50.0524 209.317 50.0759 209.229C50.2932 208.307 46.6715 206.641 41.9699 205.522C37.2683 204.402 33.291 204.264 33.0671 205.186Z" fill="#206FAD"/>
<path opacity="0.4" d="M33.0671 205.186C33.0477 205.276 33.0617 205.369 33.1066 205.449C33.9166 204.791 37.6041 204.988 41.858 206.002C46.1118 207.016 49.5162 208.478 49.9244 209.446C49.9988 209.394 50.0524 209.317 50.0759 209.229C50.2932 208.307 46.6715 206.641 41.9699 205.522C37.2683 204.402 33.291 204.264 33.0671 205.186Z" fill="#206FAD"/>
<path opacity="0.4" d="M33.1133 205.482C33.5347 206.457 36.9193 207.919 41.1798 208.926C45.4402 209.934 49.1277 210.164 49.9311 209.479C49.5228 208.511 46.1316 207.049 41.8646 206.035C37.5976 205.021 33.9166 204.765 33.1133 205.482Z" fill="#206FAD"/>
<path d="M56.6189 190.93C61.6013 190.93 65.6402 186.891 65.6402 181.908C65.6402 176.926 61.6013 172.887 56.6189 172.887C51.6366 172.887 47.5977 176.926 47.5977 181.908C47.5977 186.891 51.6366 190.93 56.6189 190.93Z" fill="#206FAD"/>
<path d="M57.701 190.93C62.6833 190.93 66.7223 186.891 66.7223 181.908C66.7223 176.926 62.6833 172.887 57.701 172.887C52.7187 172.887 48.6797 176.926 48.6797 181.908C48.6797 186.891 52.7187 190.93 57.701 190.93Z" fill="#206FAD"/>
<path opacity="0.5" d="M57.701 190.93C62.6833 190.93 66.7223 186.891 66.7223 181.908C66.7223 176.926 62.6833 172.887 57.701 172.887C52.7187 172.887 48.6797 176.926 48.6797 181.908C48.6797 186.891 52.7187 190.93 57.701 190.93Z" fill="white"/>
<path d="M62.4803 186.685C65.1187 184.047 65.1187 179.769 62.4803 177.131C59.8419 174.492 55.5641 174.492 52.9257 177.131C50.2873 179.769 50.2873 184.047 52.9257 186.685C55.5641 189.324 59.8418 189.324 62.4803 186.685Z" fill="#206FAD"/>
<path opacity="0.3" d="M60.4339 184.141C60.1609 184.423 59.8318 184.645 59.4677 184.792C59.1036 184.94 58.7127 185.009 58.3201 184.997C57.7187 185.016 57.1259 184.85 56.6218 184.522C56.1178 184.193 55.7268 183.717 55.5018 183.159H59.1367V182.382H55.3043C55.2977 182.264 55.2977 182.145 55.3043 182.027C55.2975 181.908 55.2975 181.79 55.3043 181.671H59.1301V180.894H55.5018C55.7272 180.335 56.1192 179.859 56.6246 179.53C57.1299 179.201 57.7242 179.036 58.3267 179.057C58.7188 179.043 59.1094 179.112 59.4735 179.258C59.8375 179.404 60.1669 179.625 60.4405 179.906L60.5458 180.012L61.2768 179.294L61.178 179.189C60.8034 178.806 60.3525 178.506 59.8545 178.308C59.3565 178.111 58.8225 178.02 58.2872 178.043C57.4047 178.008 56.5361 178.27 55.8199 178.787C55.1038 179.304 54.5814 180.046 54.3363 180.894H53.0522V181.671H54.1848C54.1848 181.79 54.1848 181.908 54.1848 182.027C54.1848 182.145 54.1848 182.264 54.1848 182.382H53.0391V183.159H54.3231C54.5683 184.008 55.0906 184.75 55.8067 185.267C56.5229 185.783 57.3916 186.045 58.2741 186.011C58.8102 186.031 59.3447 185.938 59.8427 185.739C60.3407 185.539 60.7912 185.237 61.1648 184.852L61.2636 184.746L60.5327 184.029L60.4339 184.141Z" fill="white"/>
<path d="M184.081 212.39C184.028 213.786 179.511 214.76 173.98 214.563C168.448 214.365 164.017 213.068 164.063 211.672C164.109 210.276 168.639 209.295 174.164 209.492C179.689 209.69 184.134 210.987 184.081 212.39Z" fill="#206FAD"/>
<path d="M164.149 209.115L164.059 211.649L184.077 212.365L184.168 209.832L164.149 209.115Z" fill="#206FAD"/>
<path d="M184.179 209.855C184.126 211.251 179.609 212.225 174.077 212.028C168.546 211.83 164.114 210.533 164.161 209.137C164.207 207.741 168.73 206.76 174.262 206.957C179.793 207.155 184.231 208.452 184.179 209.855Z" fill="#206FAD"/>
<path opacity="0.4" d="M184.179 209.855C184.126 211.251 179.609 212.225 174.077 212.028C168.546 211.83 164.114 210.533 164.161 209.137C164.207 207.741 168.73 206.76 174.262 206.957C179.793 207.155 184.231 208.452 184.179 209.855Z" fill="white"/>
<path d="M182.907 209.71C182.903 209.801 182.866 209.888 182.802 209.953C182.202 209.078 178.594 208.307 174.241 208.156C169.889 208.004 166.201 208.505 165.549 209.328C165.491 209.26 165.459 209.174 165.457 209.084C165.497 208.136 169.408 207.491 174.254 207.662C179.101 207.833 182.94 208.775 182.907 209.71Z" fill="#206FAD"/>
<path opacity="0.4" d="M182.907 209.71C182.903 209.801 182.866 209.888 182.802 209.953C182.202 209.078 178.594 208.307 174.241 208.156C169.889 208.004 166.201 208.505 165.549 209.328C165.491 209.26 165.459 209.174 165.457 209.084C165.497 208.136 169.408 207.491 174.254 207.662C179.101 207.833 182.94 208.775 182.907 209.71Z" fill="#206FAD"/>
<path opacity="0.4" d="M182.795 209.953C182.137 210.777 178.476 211.27 174.103 211.126C169.731 210.981 166.109 210.204 165.543 209.328C166.201 208.505 169.849 208.011 174.235 208.156C178.621 208.301 182.196 209.078 182.795 209.953Z" fill="#206FAD"/>
<path d="M186.483 208.729C186.431 210.125 181.913 211.099 176.382 210.902C170.851 210.704 166.419 209.407 166.465 208.004C166.511 206.602 171.042 205.634 176.566 205.831C182.091 206.029 186.543 207.326 186.483 208.729Z" fill="#206FAD"/>
<path d="M166.564 205.49L166.473 208.024L186.491 208.744L186.582 206.21L166.564 205.49Z" fill="#206FAD"/>
<path d="M186.577 206.193C186.524 207.589 182.007 208.564 176.476 208.366C170.945 208.169 166.506 206.872 166.559 205.469C166.612 204.067 171.129 203.099 176.66 203.296C182.192 203.494 186.623 204.824 186.577 206.193Z" fill="#206FAD"/>
<path opacity="0.4" d="M186.577 206.193C186.524 207.589 182.007 208.564 176.476 208.366C170.945 208.169 166.506 206.872 166.559 205.469C166.612 204.067 171.129 203.099 176.66 203.296C182.192 203.494 186.623 204.824 186.577 206.193Z" fill="white"/>
<path d="M185.305 206.049C185.303 206.138 185.265 206.224 185.2 206.286C184.601 205.416 180.992 204.646 176.64 204.495C172.287 204.343 168.593 204.844 167.948 205.667C167.89 205.598 167.857 205.512 167.855 205.423C167.895 204.475 171.806 203.829 176.653 204.001C181.499 204.172 185.338 205.1 185.305 206.049Z" fill="#206FAD"/>
<path opacity="0.4" d="M185.305 206.049C185.303 206.138 185.265 206.224 185.2 206.286C184.601 205.416 180.992 204.646 176.64 204.495C172.287 204.343 168.593 204.844 167.948 205.667C167.89 205.598 167.857 205.512 167.855 205.423C167.895 204.475 171.806 203.829 176.653 204.001C181.499 204.172 185.338 205.1 185.305 206.049Z" fill="#206FAD"/>
<path opacity="0.4" d="M185.225 206.286C184.567 207.115 180.905 207.603 176.533 207.464C172.161 207.326 168.539 206.542 167.973 205.667C168.631 204.843 172.279 204.35 176.665 204.494C181.05 204.639 184.599 205.416 185.225 206.286Z" fill="#206FAD"/>
<path d="M186.577 204.093C186.524 205.495 182.001 206.47 176.476 206.272C170.951 206.075 166.506 204.778 166.559 203.375C166.612 201.973 171.129 201.005 176.66 201.202C182.192 201.4 186.623 202.697 186.577 204.093Z" fill="#206FAD"/>
<path d="M166.654 200.859L166.562 203.392L186.581 204.112L186.672 201.579L166.654 200.859Z" fill="#206FAD"/>
<path d="M186.667 201.531C186.614 202.934 182.09 203.908 176.566 203.711C171.041 203.513 166.596 202.216 166.649 200.814C166.702 199.411 171.219 198.443 176.744 198.641C182.268 198.838 186.713 200.162 186.667 201.531Z" fill="#206FAD"/>
<path opacity="0.4" d="M186.667 201.531C186.614 202.934 182.09 203.908 176.566 203.711C171.041 203.513 166.596 202.216 166.649 200.814C166.702 199.411 171.219 198.443 176.744 198.641C182.268 198.838 186.713 200.162 186.667 201.531Z" fill="white"/>
<path d="M185.393 201.419C185.384 201.508 185.347 201.591 185.287 201.656C184.682 200.787 181.073 200.017 176.727 199.859C172.381 199.701 168.687 200.208 168.035 201.037C167.978 200.967 167.947 200.878 167.949 200.787C167.949 199.839 171.9 199.2 176.747 199.372C181.593 199.543 185.426 200.471 185.393 201.419Z" fill="#206FAD"/>
<path opacity="0.4" d="M185.393 201.419C185.384 201.508 185.347 201.591 185.287 201.656C184.682 200.787 181.073 200.017 176.727 199.859C172.381 199.701 168.687 200.208 168.035 201.037C167.978 200.967 167.947 200.878 167.949 200.787C167.949 199.839 171.9 199.2 176.747 199.372C181.593 199.543 185.426 200.471 185.393 201.419Z" fill="#206FAD"/>
<path opacity="0.4" d="M185.291 201.656C184.633 202.486 180.972 202.973 176.599 202.835C172.227 202.697 168.605 201.913 168.039 201.037C168.698 200.208 172.346 199.72 176.731 199.859C181.117 199.997 184.686 200.787 185.291 201.656Z" fill="#206FAD"/>
<path d="M188.968 200.432C188.915 201.834 184.391 202.809 178.867 202.611C173.342 202.414 168.897 201.117 168.95 199.714C169.002 198.311 173.52 197.343 179.051 197.541C184.582 197.739 189.014 199.036 188.968 200.432Z" fill="#206FAD"/>
<path d="M169.028 197.167L168.938 199.701L188.956 200.417L189.047 197.884L169.028 197.167Z" fill="#206FAD"/>
<path d="M189.059 197.896C189.013 199.299 184.489 200.274 178.964 200.076C173.439 199.878 168.995 198.581 169.047 197.179C169.1 195.776 173.617 194.808 179.142 195.006C184.667 195.203 189.111 196.5 189.059 197.896Z" fill="#206FAD"/>
<path opacity="0.4" d="M189.059 197.896C189.013 199.299 184.489 200.274 178.964 200.076C173.439 199.878 168.995 198.581 169.047 197.179C169.1 195.776 173.617 194.808 179.142 195.006C184.667 195.203 189.111 196.5 189.059 197.896Z" fill="white"/>
<path d="M187.791 197.758C187.783 197.847 187.746 197.93 187.686 197.995C187.08 197.126 183.471 196.356 179.125 196.198C174.779 196.039 171.085 196.547 170.433 197.376C170.376 197.306 170.346 197.217 170.348 197.126C170.381 196.178 174.299 195.539 179.145 195.71C183.992 195.881 187.857 196.81 187.791 197.758Z" fill="#206FAD"/>
<path opacity="0.4" d="M187.791 197.758C187.783 197.847 187.746 197.93 187.686 197.995C187.08 197.126 183.471 196.356 179.125 196.198C174.779 196.039 171.085 196.547 170.433 197.376C170.376 197.306 170.346 197.217 170.348 197.126C170.381 196.178 174.299 195.539 179.145 195.71C183.992 195.881 187.857 196.81 187.791 197.758Z" fill="#206FAD"/>
<path opacity="0.4" d="M187.69 197.995C187.031 198.825 183.37 199.312 178.998 199.174C174.625 199.036 171.004 198.252 170.438 197.376C171.096 196.547 174.744 196.059 179.13 196.198C183.515 196.336 187.084 197.126 187.69 197.995Z" fill="#206FAD"/>
<path d="M109.497 209.572C109.437 210.974 113.862 212.298 119.374 212.535C124.886 212.772 129.423 211.824 129.482 210.421C129.541 209.018 125.116 207.695 119.604 207.464C114.093 207.234 109.536 208.176 109.497 209.572Z" fill="#206FAD"/>
<path d="M109.572 207.028L109.465 209.561L129.478 210.41L129.586 207.877L109.572 207.028Z" fill="#206FAD"/>
<path d="M109.583 207.036C109.523 208.439 113.955 209.762 119.46 209.999C124.965 210.237 129.515 209.288 129.574 207.886C129.634 206.483 125.202 205.16 119.697 204.929C114.192 204.699 109.642 205.64 109.583 207.036Z" fill="#206FAD"/>
<path opacity="0.4" d="M109.583 207.036C109.523 208.439 113.955 209.762 119.46 209.999C124.965 210.237 129.515 209.288 129.574 207.886C129.634 206.483 125.202 205.16 119.697 204.929C114.192 204.699 109.642 205.64 109.583 207.036Z" fill="white"/>
<path d="M110.864 206.997C110.86 207.086 110.891 207.173 110.949 207.241C111.608 206.417 115.275 205.924 119.648 206.121C124.02 206.319 127.635 207.102 128.208 207.978C128.268 207.91 128.305 207.825 128.314 207.734C128.353 206.786 124.481 205.838 119.654 205.634C114.828 205.43 110.903 206.049 110.864 206.997Z" fill="#206FAD"/>
<path opacity="0.4" d="M110.864 206.997C110.86 207.086 110.891 207.173 110.949 207.241C111.608 206.417 115.275 205.924 119.648 206.121C124.02 206.319 127.635 207.102 128.208 207.978C128.268 207.91 128.305 207.825 128.314 207.734C128.353 206.786 124.481 205.838 119.654 205.634C114.828 205.43 110.903 206.049 110.864 206.997Z" fill="#206FAD"/>
<path opacity="0.4" d="M110.945 207.24C111.538 208.123 115.146 208.913 119.506 209.097C123.865 209.282 127.546 208.801 128.204 207.978C127.618 207.102 124.016 206.312 119.644 206.121C115.272 205.93 111.61 206.417 110.945 207.24Z" fill="#206FAD"/>
<path d="M107.372 205.732C107.312 207.135 111.744 208.459 117.249 208.696C122.754 208.933 127.304 207.984 127.363 206.582C127.423 205.179 122.991 203.856 117.486 203.625C111.981 203.395 107.431 204.336 107.372 205.732Z" fill="#206FAD"/>
<path d="M107.479 203.208L107.371 205.741L127.384 206.591L127.492 204.058L107.479 203.208Z" fill="#206FAD"/>
<path d="M107.489 203.197C107.43 204.6 111.861 205.923 117.366 206.161C122.871 206.398 127.421 205.449 127.481 204.047C127.54 202.644 123.108 201.327 117.603 201.09C112.098 200.853 107.528 201.801 107.489 203.197Z" fill="#206FAD"/>
<path opacity="0.4" d="M107.489 203.197C107.43 204.6 111.861 205.923 117.366 206.161C122.871 206.398 127.421 205.449 127.481 204.047C127.54 202.644 123.108 201.327 117.603 201.09C112.098 200.853 107.528 201.801 107.489 203.197Z" fill="white"/>
<path d="M108.75 203.158C108.753 203.248 108.783 203.335 108.836 203.408C109.494 202.585 113.168 202.091 117.534 202.282C121.9 202.473 125.528 203.263 126.095 204.139C126.159 204.073 126.199 203.987 126.207 203.895C126.246 202.947 122.374 201.999 117.547 201.795C112.721 201.591 108.796 202.19 108.75 203.158Z" fill="#206FAD"/>
<path opacity="0.4" d="M108.75 203.158C108.753 203.248 108.783 203.335 108.836 203.408C109.494 202.585 113.168 202.091 117.534 202.282C121.9 202.473 125.528 203.263 126.095 204.139C126.159 204.073 126.199 203.987 126.207 203.895C126.246 202.947 122.374 201.999 117.547 201.795C112.721 201.591 108.796 202.19 108.75 203.158Z" fill="#206FAD"/>
<path opacity="0.4" d="M108.84 203.408C109.439 204.284 113.041 205.074 117.4 205.258C121.759 205.443 125.447 204.962 126.099 204.139C125.519 203.263 121.911 202.473 117.538 202.282C113.166 202.091 109.498 202.585 108.84 203.408Z" fill="#206FAD"/>
<path d="M107.649 201.11C107.59 202.512 112.021 203.836 117.526 204.073C123.031 204.31 127.581 203.362 127.641 201.959C127.7 200.557 123.268 199.233 117.763 199.003C112.258 198.772 107.708 199.714 107.649 201.11Z" fill="#206FAD"/>
<path d="M107.752 198.575L107.645 201.107L127.658 201.957L127.765 199.424L107.752 198.575Z" fill="#206FAD"/>
<path d="M107.754 198.575C107.695 199.977 112.127 201.301 117.632 201.538C123.137 201.775 127.687 200.827 127.746 199.424C127.805 198.022 123.374 196.698 117.869 196.468C112.364 196.237 107.814 197.179 107.754 198.575Z" fill="#206FAD"/>
<path opacity="0.4" d="M107.754 198.575C107.695 199.977 112.127 201.301 117.632 201.538C123.137 201.775 127.687 200.827 127.746 199.424C127.805 198.022 123.374 196.698 117.869 196.468C112.364 196.237 107.814 197.179 107.754 198.575Z" fill="white"/>
<path d="M109.028 198.535C109.024 198.624 109.055 198.712 109.113 198.779C109.772 197.962 113.44 197.462 117.812 197.659C122.184 197.857 125.799 198.641 126.372 199.516C126.432 199.448 126.469 199.363 126.478 199.273C126.517 198.325 122.645 197.376 117.818 197.172C112.992 196.968 109.067 197.58 109.028 198.535Z" fill="#206FAD"/>
<path opacity="0.4" d="M109.028 198.535C109.024 198.624 109.055 198.712 109.113 198.779C109.772 197.962 113.44 197.462 117.812 197.659C122.184 197.857 125.799 198.641 126.372 199.516C126.432 199.448 126.469 199.363 126.478 199.273C126.517 198.325 122.645 197.376 117.818 197.172C112.992 196.968 109.067 197.58 109.028 198.535Z" fill="#206FAD"/>
<path opacity="0.4" d="M109.117 198.779C109.71 199.661 113.318 200.452 117.678 200.636C122.037 200.82 125.718 200.34 126.376 199.516C125.79 198.641 122.188 197.85 117.816 197.66C113.443 197.469 109.782 197.962 109.117 198.779Z" fill="#206FAD"/>
<path d="M105.544 197.271C105.484 198.674 109.916 199.997 115.421 200.234C120.926 200.471 125.476 199.523 125.535 198.12C125.595 196.718 121.163 195.401 115.658 195.164C110.153 194.927 105.596 195.875 105.544 197.271Z" fill="#206FAD"/>
<path d="M105.647 194.729L105.539 197.262L125.552 198.111L125.66 195.578L105.647 194.729Z" fill="#206FAD"/>
<path d="M105.653 194.736C105.594 196.138 110.025 197.462 115.53 197.699C121.035 197.936 125.585 196.988 125.645 195.585C125.704 194.183 121.272 192.866 115.767 192.628C110.262 192.391 105.712 193.34 105.653 194.736Z" fill="#206FAD"/>
<path opacity="0.4" d="M105.653 194.736C105.594 196.138 110.025 197.462 115.53 197.699C121.035 197.936 125.585 196.988 125.645 195.585C125.704 194.183 121.272 192.866 115.767 192.628C110.262 192.391 105.712 193.34 105.653 194.736Z" fill="white"/>
<path d="M106.93 194.696C106.927 194.786 106.955 194.874 107.009 194.946C107.667 194.123 111.342 193.629 115.714 193.827C120.086 194.025 123.702 194.802 124.274 195.677C124.336 195.61 124.373 195.524 124.38 195.434C124.419 194.492 120.547 193.537 115.721 193.333C110.894 193.129 106.969 193.748 106.93 194.696Z" fill="#206FAD"/>
<path opacity="0.4" d="M106.93 194.696C106.927 194.786 106.955 194.874 107.009 194.946C107.667 194.123 111.342 193.629 115.714 193.827C120.086 194.025 123.702 194.802 124.274 195.677C124.336 195.61 124.373 195.524 124.38 195.434C124.419 194.492 120.547 193.537 115.721 193.333C110.894 193.129 106.969 193.748 106.93 194.696Z" fill="#206FAD"/>
<path opacity="0.4" d="M107.008 194.946C107.607 195.822 111.209 196.612 115.568 196.797C119.927 196.981 123.615 196.5 124.273 195.677C123.687 194.802 120.079 194.011 115.713 193.827C111.347 193.643 107.679 194.123 107.008 194.946Z" fill="#206FAD"/>
<path d="M108.751 194.018C108.691 195.42 113.123 196.744 118.628 196.981C124.133 197.218 128.683 196.27 128.742 194.867C128.802 193.465 124.37 192.148 118.865 191.911C113.36 191.674 108.836 192.622 108.751 194.018Z" fill="#206FAD"/>
<path d="M108.869 191.486L108.762 194.019L128.775 194.868L128.882 192.335L108.869 191.486Z" fill="#206FAD"/>
<path d="M108.84 191.483C108.781 192.885 113.213 194.209 118.718 194.446C124.223 194.683 128.773 193.735 128.832 192.332C128.891 190.93 124.46 189.613 118.955 189.376C113.45 189.139 108.919 190.087 108.84 191.483Z" fill="#206FAD"/>
<path opacity="0.4" d="M108.84 191.483C108.781 192.885 113.213 194.209 118.718 194.446C124.223 194.683 128.773 193.735 128.832 192.332C128.891 190.93 124.46 189.613 118.955 189.376C113.45 189.139 108.919 190.087 108.84 191.483Z" fill="white"/>
<path d="M110.156 191.443C110.156 191.534 110.186 191.622 110.242 191.694C110.9 190.871 114.568 190.377 118.94 190.574C123.313 190.772 126.928 191.549 127.501 192.425C127.534 192.393 127.56 192.355 127.578 192.313C127.596 192.272 127.606 192.227 127.606 192.181C127.646 191.239 123.774 190.284 118.947 190.08C114.12 189.876 110.156 190.495 110.156 191.443Z" fill="#206FAD"/>
<path opacity="0.4" d="M110.156 191.443C110.156 191.534 110.186 191.622 110.242 191.694C110.9 190.871 114.568 190.377 118.94 190.574C123.313 190.772 126.928 191.549 127.501 192.425C127.534 192.393 127.56 192.355 127.578 192.313C127.596 192.272 127.606 192.227 127.606 192.181C127.646 191.239 123.774 190.284 118.947 190.08C114.12 189.876 110.156 190.495 110.156 191.443Z" fill="#206FAD"/>
<path opacity="0.4" d="M110.223 191.693C110.822 192.569 114.424 193.359 118.783 193.544C123.142 193.728 126.823 193.248 127.482 192.424C126.896 191.549 123.294 190.758 118.921 190.574C114.549 190.39 110.894 190.87 110.223 191.693Z" fill="#206FAD"/>
<path d="M106.649 190.186C106.59 191.582 111.021 192.905 116.526 193.142C122.031 193.379 126.575 192.431 126.641 191.035C126.707 189.639 122.268 188.309 116.763 188.072C111.258 187.835 106.708 188.783 106.649 190.186Z" fill="#206FAD"/>
<path d="M106.752 187.64L106.645 190.173L126.658 191.023L126.765 188.49L106.752 187.64Z" fill="#206FAD"/>
<path d="M106.758 187.65C106.699 189.046 111.131 190.37 116.636 190.607C122.141 190.844 126.691 189.896 126.75 188.5C126.809 187.104 122.378 185.774 116.873 185.537C111.368 185.3 106.818 186.248 106.758 187.65Z" fill="#206FAD"/>
<path opacity="0.4" d="M106.758 187.65C106.699 189.046 111.131 190.37 116.636 190.607C122.141 190.844 126.691 189.896 126.75 188.5C126.809 187.104 122.378 185.774 116.873 185.537C111.368 185.3 106.818 186.248 106.758 187.65Z" fill="white"/>
<path d="M108.039 187.604C108.035 187.696 108.066 187.785 108.125 187.855C108.784 187.031 112.451 186.538 116.824 186.735C121.196 186.933 124.811 187.71 125.384 188.585C125.444 188.52 125.481 188.437 125.489 188.348C125.529 187.4 121.657 186.445 116.83 186.241C112.004 186.037 108.079 186.656 108.039 187.604Z" fill="#206FAD"/>
<path opacity="0.4" d="M108.039 187.604C108.035 187.696 108.066 187.785 108.125 187.855C108.784 187.031 112.451 186.538 116.824 186.735C121.196 186.933 124.811 187.71 125.384 188.585C125.444 188.52 125.481 188.437 125.489 188.348C125.529 187.4 121.657 186.445 116.83 186.241C112.004 186.037 108.079 186.656 108.039 187.604Z" fill="#206FAD"/>
<path opacity="0.4" d="M108.121 187.854C108.714 188.73 112.322 189.52 116.681 189.705C121.041 189.889 124.722 189.408 125.38 188.585C124.794 187.71 121.192 186.919 116.82 186.735C112.447 186.551 108.786 187.044 108.121 187.854Z" fill="#206FAD"/>
<path d="M128.759 187.459C128.818 188.855 124.387 190.186 118.882 190.416C113.377 190.646 108.84 189.679 108.747 188.309C108.655 186.939 113.113 185.583 118.625 185.346C124.136 185.109 128.693 186.057 128.759 187.459Z" fill="#206FAD"/>
<path d="M128.203 185.585L108.172 186.386L108.273 188.921L128.304 188.12L128.203 185.585Z" fill="#206FAD"/>
<path d="M128.649 184.924C128.708 186.32 124.276 187.65 118.771 187.881C113.266 188.111 108.716 187.176 108.657 185.774C108.598 184.371 113.029 183.048 118.534 182.81C124.039 182.573 128.596 183.522 128.649 184.924Z" fill="#206FAD"/>
<path opacity="0.4" d="M128.649 184.924C128.708 186.32 124.276 187.65 118.771 187.881C113.266 188.111 108.716 187.176 108.657 185.774C108.598 184.371 113.029 183.048 118.534 182.81C124.039 182.573 128.596 183.522 128.649 184.924Z" fill="white"/>
<path d="M127.368 184.878C127.374 184.969 127.343 185.059 127.283 185.128C126.624 184.305 122.956 183.811 118.584 184.009C114.212 184.206 110.597 184.983 110.024 185.866C109.965 185.797 109.928 185.712 109.918 185.622C109.879 184.674 113.751 183.726 118.577 183.522C123.404 183.317 127.329 183.93 127.368 184.878Z" fill="#206FAD"/>
<path opacity="0.4" d="M127.368 184.878C127.374 184.969 127.343 185.059 127.283 185.128C126.624 184.305 122.956 183.811 118.584 184.009C114.212 184.206 110.597 184.983 110.024 185.866C109.965 185.797 109.928 185.712 109.918 185.622C109.879 184.674 113.751 183.726 118.577 183.522C123.404 183.317 127.329 183.93 127.368 184.878Z" fill="#206FAD"/>
<path opacity="0.4" d="M127.275 185.128C126.682 186.004 123.073 186.794 118.714 186.985C114.355 187.176 110.674 186.689 110.016 185.866C110.602 184.984 114.204 184.193 118.576 184.009C122.948 183.825 126.616 184.305 127.275 185.128Z" fill="#206FAD"/>
<path d="M130.859 183.621C130.919 185.023 126.487 186.347 120.982 186.577C115.477 186.808 110.927 185.873 110.868 184.47C110.809 183.067 115.24 181.744 120.745 181.513C126.25 181.283 130.8 182.218 130.859 183.621Z" fill="#206FAD"/>
<path d="M130.751 181.079L110.738 181.928L110.846 184.461L130.859 183.612L130.751 181.079Z" fill="#206FAD"/>
<path d="M130.747 181.118C130.807 182.521 126.382 183.844 120.87 184.081C115.359 184.318 110.822 183.37 110.762 181.968C110.703 180.565 115.128 179.242 120.64 179.011C126.151 178.781 130.688 179.683 130.747 181.118Z" fill="#206FAD"/>
<path opacity="0.4" d="M130.747 181.118C130.807 182.521 126.382 183.844 120.87 184.081C115.359 184.318 110.822 183.37 110.762 181.968C110.703 180.565 115.128 179.242 120.64 179.011C126.151 178.781 130.688 179.683 130.747 181.118Z" fill="white"/>
<path d="M129.474 181.039C129.472 181.129 129.442 181.217 129.388 181.289C128.73 180.466 125.055 179.972 120.69 180.17C116.324 180.367 112.696 181.151 112.129 182.027C112.064 181.962 112.026 181.875 112.024 181.783C111.978 180.835 115.856 179.887 120.676 179.683C125.497 179.478 129.428 180.091 129.474 181.039Z" fill="#206FAD"/>
<path opacity="0.4" d="M129.474 181.039C129.472 181.129 129.442 181.217 129.388 181.289C128.73 180.466 125.055 179.972 120.69 180.17C116.324 180.367 112.696 181.151 112.129 182.027C112.064 181.962 112.026 181.875 112.024 181.783C111.978 180.835 115.856 179.887 120.676 179.683C125.497 179.478 129.428 180.091 129.474 181.039Z" fill="#206FAD"/>
<path opacity="0.4" d="M129.392 181.289C128.793 182.165 125.191 182.962 120.831 183.146C116.472 183.331 112.785 182.85 112.133 182.027C112.712 181.151 116.321 180.354 120.693 180.17C125.066 179.986 128.72 180.46 129.392 181.289Z" fill="#206FAD"/>
<path d="M130.568 178.998C130.627 180.394 126.202 181.724 120.69 181.954C115.179 182.185 110.642 181.25 110.583 179.847C110.523 178.445 114.948 177.121 120.46 176.884C125.971 176.647 130.522 177.595 130.568 178.998Z" fill="#206FAD"/>
<path d="M130.478 176.465L110.465 177.315L110.572 179.848L130.586 178.998L130.478 176.465Z" fill="#206FAD"/>
<path d="M130.481 176.463C130.54 177.865 126.108 179.189 120.603 179.419C115.098 179.65 110.548 178.715 110.489 177.312C110.43 175.91 114.861 174.586 120.366 174.356C125.871 174.125 130.421 175.06 130.481 176.463Z" fill="#206FAD"/>
<path opacity="0.4" d="M130.481 176.463C130.54 177.865 126.108 179.189 120.603 179.419C115.098 179.65 110.548 178.715 110.489 177.312C110.43 175.91 114.861 174.586 120.366 174.356C125.871 174.125 130.421 175.06 130.481 176.463Z" fill="white"/>
<path d="M129.2 176.417C129.206 176.508 129.175 176.598 129.115 176.667C128.456 175.844 124.788 175.35 120.416 175.547C116.044 175.745 112.429 176.529 111.856 177.404C111.797 177.336 111.76 177.251 111.75 177.161C111.711 176.212 115.583 175.264 120.409 175.06C125.236 174.856 129.161 175.468 129.2 176.417Z" fill="#206FAD"/>
<path opacity="0.4" d="M129.2 176.417C129.206 176.508 129.175 176.598 129.115 176.667C128.456 175.844 124.788 175.35 120.416 175.547C116.044 175.745 112.429 176.529 111.856 177.404C111.797 177.336 111.76 177.251 111.75 177.161C111.711 176.212 115.583 175.264 120.409 175.06C125.236 174.856 129.161 175.468 129.2 176.417Z" fill="#206FAD"/>
<path opacity="0.4" d="M129.118 176.667C128.526 177.543 124.917 178.339 120.558 178.524C116.199 178.708 112.518 178.227 111.859 177.404C112.445 176.528 116.047 175.732 120.42 175.547C124.792 175.363 128.453 175.85 129.118 176.667Z" fill="#206FAD"/>
<path d="M132.688 175.192C132.747 176.594 128.315 177.918 122.81 178.155C117.305 178.392 112.755 177.444 112.696 176.041C112.637 174.639 117.068 173.315 122.573 173.085C128.078 172.854 132.628 173.756 132.688 175.192Z" fill="#206FAD"/>
<path d="M132.564 172.633L112.551 173.482L112.658 176.015L132.671 175.166L132.564 172.633Z" fill="#206FAD"/>
<path d="M132.578 172.624C132.637 174.026 128.206 175.35 122.701 175.587C117.196 175.824 112.646 174.876 112.587 173.473C112.527 172.071 116.959 170.747 122.464 170.517C127.969 170.286 132.545 171.241 132.578 172.624Z" fill="#206FAD"/>
<path opacity="0.4" d="M132.578 172.624C132.637 174.026 128.206 175.35 122.701 175.587C117.196 175.824 112.646 174.876 112.587 173.473C112.527 172.071 116.959 170.747 122.464 170.517C127.969 170.286 132.545 171.241 132.578 172.624Z" fill="white"/>
<path d="M131.308 172.558C131.306 172.646 131.276 172.731 131.223 172.801C130.564 171.978 126.89 171.484 122.524 171.682C118.158 171.88 114.53 172.663 113.964 173.539C113.899 173.473 113.86 173.387 113.852 173.295C113.812 172.347 117.684 171.399 122.511 171.195C127.338 170.991 131.262 171.636 131.308 172.558Z" fill="#206FAD"/>
<path opacity="0.4" d="M131.308 172.558C131.306 172.646 131.276 172.731 131.223 172.801C130.564 171.978 126.89 171.484 122.524 171.682C118.158 171.88 114.53 172.663 113.964 173.539C113.899 173.473 113.86 173.387 113.852 173.295C113.812 172.347 117.684 171.399 122.511 171.195C127.338 170.991 131.262 171.636 131.308 172.558Z" fill="#206FAD"/>
<path opacity="0.4" d="M131.228 172.828C130.629 173.71 127.027 174.5 122.667 174.685C118.308 174.869 114.621 174.388 113.969 173.565C114.548 172.69 118.157 171.893 122.529 171.708C126.901 171.524 130.569 172.005 131.228 172.828Z" fill="#206FAD"/>
<path d="M129.475 171.899C129.534 173.302 125.102 174.625 119.597 174.863C114.092 175.1 109.496 174.158 109.496 172.755C109.496 171.353 113.868 170.029 119.373 169.799C124.878 169.568 129.415 170.51 129.475 171.899Z" fill="#206FAD"/>
<path d="M129.376 169.368L109.363 170.217L109.471 172.75L129.484 171.901L129.376 169.368Z" fill="#206FAD"/>
<path d="M129.375 169.371C129.434 170.773 125.003 172.097 119.498 172.334C113.993 172.571 109.443 171.623 109.383 170.22C109.324 168.818 113.756 167.494 119.261 167.264C124.766 167.033 129.316 167.948 129.375 169.371Z" fill="#206FAD"/>
<path opacity="0.4" d="M129.375 169.371C129.434 170.773 125.003 172.097 119.498 172.334C113.993 172.571 109.443 171.623 109.383 170.22C109.324 168.818 113.756 167.494 119.261 167.264C124.766 167.033 129.316 167.948 129.375 169.371Z" fill="white"/>
<path d="M128.095 169.331C128.098 169.42 128.068 169.508 128.009 169.575C127.351 168.752 123.683 168.258 119.311 168.455C114.938 168.653 111.323 169.437 110.75 170.312C110.688 170.246 110.65 170.16 110.645 170.069C110.605 169.121 114.477 168.172 119.304 167.968C124.131 167.764 128.055 168.383 128.095 169.331Z" fill="#206FAD"/>
<path opacity="0.4" d="M128.095 169.331C128.098 169.42 128.068 169.508 128.009 169.575C127.351 168.752 123.683 168.258 119.311 168.455C114.938 168.653 111.323 169.437 110.75 170.312C110.688 170.246 110.65 170.16 110.645 170.069C110.605 169.121 114.477 168.172 119.304 167.968C124.131 167.764 128.055 168.383 128.095 169.331Z" fill="#206FAD"/>
<path opacity="0.4" d="M128.009 169.575C127.41 170.457 123.808 171.248 119.449 171.432C115.089 171.616 111.408 171.136 110.75 170.312C111.336 169.437 114.938 168.646 119.31 168.456C123.683 168.265 127.337 168.752 128.009 169.575Z" fill="#206FAD"/>
<path d="M131.587 168.067C131.647 169.47 127.215 170.793 121.71 171.03C116.205 171.267 111.661 170.319 111.602 168.916C111.543 167.514 115.968 166.19 121.479 165.96C126.991 165.729 131.521 166.671 131.587 168.067Z" fill="#206FAD"/>
<path d="M131.466 165.542L111.453 166.391L111.561 168.924L131.574 168.075L131.466 165.542Z" fill="#206FAD"/>
<path d="M131.469 165.532C131.528 166.934 127.096 168.258 121.592 168.495C116.087 168.732 111.536 167.784 111.477 166.381C111.418 164.979 115.85 163.662 121.354 163.425C126.859 163.187 131.41 164.136 131.469 165.532Z" fill="#206FAD"/>
<path opacity="0.4" d="M131.469 165.532C131.528 166.934 127.096 168.258 121.592 168.495C116.087 168.732 111.536 167.784 111.477 166.381C111.418 164.979 115.85 163.662 121.354 163.425C126.859 163.187 131.41 164.136 131.469 165.532Z" fill="white"/>
<path d="M130.192 165.492C130.195 165.583 130.165 165.672 130.107 165.743C129.448 164.919 125.781 164.426 121.408 164.617C117.036 164.808 113.421 165.598 112.848 166.474C112.788 166.406 112.751 166.32 112.742 166.23C112.703 165.282 116.575 164.333 121.402 164.129C126.228 163.925 130.153 164.544 130.192 165.492Z" fill="#206FAD"/>
<path opacity="0.4" d="M130.192 165.492C130.195 165.583 130.165 165.672 130.107 165.743C129.448 164.919 125.781 164.426 121.408 164.617C117.036 164.808 113.421 165.598 112.848 166.474C112.788 166.406 112.751 166.32 112.742 166.23C112.703 165.282 116.575 164.333 121.402 164.129C126.228 163.925 130.153 164.544 130.192 165.492Z" fill="#206FAD"/>
<path opacity="0.4" d="M130.107 165.742C129.514 166.618 125.905 167.408 121.546 167.593C117.187 167.777 113.506 167.296 112.848 166.473C113.434 165.598 117.036 164.807 121.408 164.616C125.78 164.425 129.442 164.919 130.107 165.742Z" fill="#206FAD"/>
<path d="M123.242 165.198C127.907 163.449 130.271 158.249 128.522 153.584C126.773 148.919 121.573 146.554 116.908 148.303C112.243 150.052 109.879 155.252 111.628 159.917C113.377 164.583 118.576 166.947 123.242 165.198Z" fill="#206FAD"/>
<path d="M127.942 163.043C131.172 159.249 130.714 153.556 126.919 150.326C123.125 147.097 117.431 147.555 114.202 151.35C110.973 155.144 111.431 160.837 115.226 164.066C119.02 167.296 124.713 166.838 127.942 163.043Z" fill="#206FAD"/>
<path opacity="0.4" d="M127.942 163.043C131.172 159.249 130.714 153.556 126.919 150.326C123.125 147.097 117.431 147.555 114.202 151.35C110.973 155.144 111.431 160.837 115.226 164.066C119.02 167.296 124.713 166.838 127.942 163.043Z" fill="white"/>
<path d="M127.216 159.974C126.663 161.189 125.763 162.212 124.628 162.915C123.493 163.618 122.176 163.969 120.842 163.923C119.508 163.877 118.218 163.437 117.134 162.658C116.05 161.879 115.222 160.796 114.754 159.546C114.285 158.296 114.198 156.936 114.502 155.636C114.807 154.337 115.49 153.157 116.465 152.246C117.441 151.335 118.664 150.733 119.981 150.517C121.298 150.301 122.65 150.48 123.865 151.032C125.494 151.774 126.763 153.133 127.391 154.809C128.02 156.486 127.957 158.344 127.216 159.974Z" fill="#206FAD"/>
<path opacity="0.3" d="M124.2 159.184C124.095 158.773 123.865 158.404 123.541 158.13C123.886 158.116 124.219 158.004 124.503 157.808C124.791 157.61 125.018 157.336 125.161 157.018C125.285 156.76 125.343 156.476 125.329 156.191C125.315 155.906 125.23 155.629 125.082 155.385C124.799 154.939 124.407 154.574 123.943 154.324L124.173 153.817L123.396 153.468L123.186 153.936L122.409 153.58L122.619 153.113L121.842 152.757L121.632 153.231L119.946 152.461L116.785 159.421L118.464 160.191L118.24 160.685L119.017 161.034L119.241 160.54L120.018 160.896L119.794 161.39L120.571 161.739L120.809 161.225C121.394 161.488 122.041 161.586 122.679 161.508C122.971 161.454 123.246 161.327 123.476 161.138C123.706 160.949 123.885 160.705 123.996 160.429C124.203 160.049 124.275 159.61 124.2 159.184ZM121.013 154.403L122.613 155.134C122.936 155.256 123.217 155.469 123.423 155.747C123.489 155.861 123.524 155.99 123.524 156.122C123.524 156.254 123.489 156.383 123.423 156.497C123.377 156.622 123.299 156.732 123.196 156.816C123.092 156.899 122.968 156.953 122.837 156.971C122.491 157.007 122.142 156.938 121.836 156.774L120.236 156.043L121.013 154.403ZM121.882 160.02C121.516 160.045 121.151 159.965 120.828 159.79L118.952 158.94L119.729 157.215L121.612 158.071C122.461 158.46 122.758 158.947 122.501 159.52C122.455 159.655 122.373 159.776 122.264 159.869C122.155 159.962 122.023 160.023 121.882 160.047V160.02Z" fill="white"/>
<path d="M206.098 208.261C205.894 209.084 203.102 209.091 199.862 208.261C196.622 207.432 194.159 206.121 194.363 205.305C194.568 204.488 197.366 204.475 200.606 205.305C203.846 206.134 206.295 207.458 206.098 208.261Z" fill="#206FAD"/>
<path d="M194.744 203.842L194.371 205.33L206.105 208.269L206.478 206.78L194.744 203.842Z" fill="#206FAD"/>
<path d="M206.473 206.799C206.262 207.622 203.47 207.629 200.23 206.799C196.99 205.97 194.534 204.666 194.738 203.843C194.943 203.02 197.735 203.013 200.974 203.843C204.214 204.672 206.677 205.956 206.473 206.799Z" fill="#206FAD"/>
<path opacity="0.4" d="M206.473 206.799C206.262 207.622 203.47 207.629 200.23 206.799C196.99 205.97 194.534 204.666 194.738 203.843C194.943 203.02 197.735 203.013 200.974 203.843C204.214 204.672 206.677 205.956 206.473 206.799Z" fill="white"/>
<path d="M205.737 206.529C205.731 206.556 205.72 206.582 205.704 206.605C205.689 206.627 205.668 206.646 205.645 206.661C205.401 206.068 203.366 205.16 200.805 204.521C198.243 203.882 196.011 203.717 195.537 204.126C195.524 204.074 195.524 204.02 195.537 203.968C195.682 203.408 198.085 203.527 200.917 204.231C203.748 204.936 205.882 205.976 205.737 206.529Z" fill="#206FAD"/>
<path opacity="0.4" d="M205.737 206.529C205.731 206.556 205.72 206.582 205.704 206.605C205.689 206.627 205.668 206.646 205.645 206.661C205.401 206.068 203.366 205.16 200.805 204.521C198.243 203.882 196.011 203.717 195.537 204.126C195.524 204.074 195.524 204.02 195.537 203.968C195.682 203.408 198.085 203.527 200.917 204.231C203.748 204.936 205.882 205.976 205.737 206.529Z" fill="#206FAD"/>
<path opacity="0.4" d="M205.634 206.661C205.14 207.063 202.921 206.905 200.366 206.266C197.811 205.627 195.757 204.712 195.52 204.126C196.013 203.717 198.233 203.875 200.787 204.521C203.342 205.166 205.397 206.068 205.634 206.661Z" fill="#206FAD"/>
<path d="M211.732 210.961C211.772 211.804 209.098 212.607 205.753 212.745C202.408 212.884 199.682 212.317 199.649 211.474C199.616 210.632 202.283 209.828 205.628 209.683C208.973 209.539 211.699 210.092 211.732 210.961Z" fill="#206FAD"/>
<path d="M211.656 209.442L199.57 209.955L199.635 211.488L211.721 210.975L211.656 209.442Z" fill="#206FAD"/>
<path d="M211.674 209.433C211.713 210.283 209.04 211.079 205.701 211.224C202.363 211.369 199.63 210.796 199.59 209.947C199.551 209.097 202.224 208.301 205.569 208.162C208.914 208.024 211.641 208.584 211.674 209.433Z" fill="#206FAD"/>
<path opacity="0.4" d="M211.674 209.433C211.713 210.283 209.04 211.079 205.701 211.224C202.363 211.369 199.63 210.796 199.59 209.947C199.551 209.097 202.224 208.301 205.569 208.162C208.914 208.024 211.641 208.584 211.674 209.433Z" fill="white"/>
<path d="M210.906 209.433C210.909 209.461 210.905 209.489 210.896 209.515C210.887 209.541 210.872 209.565 210.853 209.585C210.452 209.091 208.219 208.794 205.585 208.926C202.951 209.058 200.759 209.519 200.403 210.046C200.366 210.006 200.345 209.955 200.344 209.901C200.344 209.328 202.655 208.755 205.572 208.63C208.489 208.505 210.906 208.827 210.906 209.433Z" fill="#206FAD"/>
<path opacity="0.4" d="M210.906 209.433C210.909 209.461 210.905 209.489 210.896 209.515C210.887 209.541 210.872 209.565 210.853 209.585C210.452 209.091 208.219 208.794 205.585 208.926C202.951 209.058 200.759 209.519 200.403 210.046C200.366 210.006 200.345 209.955 200.344 209.901C200.344 209.328 202.655 208.755 205.572 208.63C208.489 208.505 210.906 208.827 210.906 209.433Z" fill="#206FAD"/>
<path opacity="0.4" d="M210.846 209.552C210.49 210.078 208.311 210.559 205.67 210.671C203.03 210.783 200.817 210.493 200.402 210.013C200.758 209.486 202.938 209.005 205.585 208.893C208.232 208.781 210.444 209.058 210.846 209.552Z" fill="#206FAD"/>
<path d="M205.378 207.943C208.112 203.778 206.951 198.185 202.786 195.451C198.621 192.717 193.028 193.878 190.294 198.043C187.56 202.208 188.72 207.801 192.886 210.535C197.051 213.269 202.644 212.109 205.378 207.943Z" fill="#206FAD"/>
<path d="M205.389 209.749C204.202 211.081 202.646 212.032 200.919 212.48C199.192 212.928 197.371 212.853 195.686 212.266C194.001 211.679 192.528 210.605 191.453 209.181C190.378 207.757 189.75 206.046 189.648 204.264C189.545 202.483 189.974 200.711 190.878 199.173C191.783 197.635 193.124 196.4 194.731 195.624C196.337 194.848 198.138 194.566 199.905 194.813C201.672 195.061 203.326 195.827 204.658 197.014C206.444 198.606 207.524 200.842 207.661 203.23C207.798 205.619 206.981 207.963 205.389 209.749Z" fill="#206FAD"/>
<path opacity="0.4" d="M205.389 209.749C204.202 211.081 202.646 212.032 200.919 212.48C199.192 212.928 197.371 212.853 195.686 212.266C194.001 211.679 192.528 210.605 191.453 209.181C190.378 207.757 189.75 206.046 189.648 204.264C189.545 202.483 189.974 200.711 190.878 199.173C191.783 197.635 193.124 196.4 194.731 195.624C196.337 194.848 198.138 194.566 199.905 194.813C201.672 195.061 203.326 195.827 204.658 197.014C206.444 198.606 207.524 200.842 207.661 203.23C207.798 205.619 206.981 207.963 205.389 209.749Z" fill="white"/>
<path d="M203.66 208.241C202.771 209.239 201.606 209.951 200.313 210.287C199.019 210.622 197.655 210.567 196.393 210.127C195.131 209.688 194.027 208.883 193.222 207.817C192.417 206.75 191.947 205.468 191.87 204.134C191.794 202.8 192.115 201.473 192.793 200.321C193.471 199.169 194.475 198.244 195.678 197.663C196.882 197.082 198.231 196.871 199.554 197.057C200.878 197.242 202.116 197.817 203.114 198.706C203.776 199.296 204.316 200.011 204.702 200.81C205.088 201.608 205.312 202.475 205.363 203.361C205.414 204.246 205.29 205.133 204.997 205.97C204.705 206.808 204.251 207.58 203.66 208.241Z" fill="#206FAD"/>
<g opacity="0.3">
<path d="M199.905 206.799C199.102 208.116 197.673 208.149 196.191 207.036L195.349 207.938L194.506 207.194L195.355 206.292C194.68 205.598 194.177 204.754 193.887 203.829L195.204 203.125C195.419 203.907 195.816 204.626 196.363 205.225L197.68 203.843C197.067 202.881 196.435 201.755 197.159 200.583C197.956 199.299 199.411 199.266 200.906 200.392L201.756 199.49L202.592 200.241L201.742 201.149C202.269 201.705 202.676 202.361 202.941 203.079L201.683 203.816C201.491 203.215 201.173 202.663 200.748 202.196L199.398 203.645C199.978 204.593 200.59 205.68 199.905 206.799ZM198.746 202.671L199.853 201.492C199.306 201.169 198.852 201.228 198.615 201.591C198.541 201.765 198.514 201.956 198.537 202.145C198.561 202.333 198.633 202.512 198.746 202.664V202.671ZM198.391 205.844C198.462 205.68 198.488 205.499 198.466 205.32C198.444 205.142 198.375 204.973 198.266 204.83L197.212 205.95C197.732 206.239 198.16 206.2 198.391 205.838V205.844Z" fill="white"/>
</g>
<path d="M86.9651 211.797C86.9322 212.64 89.5991 213.443 92.9442 213.582C96.2893 213.72 99.0155 213.154 99.0484 212.311C99.0813 211.468 96.4145 210.665 93.0759 210.52C89.7374 210.375 87.0047 210.948 86.9651 211.797Z" fill="#206FAD"/>
<path d="M87.0338 210.269L86.9688 211.802L99.0543 212.315L99.1194 210.782L87.0338 210.269Z" fill="#206FAD"/>
<path d="M87.0356 210.263C86.9961 211.112 89.6695 211.909 93.0147 212.054C96.3598 212.199 99.0859 211.626 99.1188 210.776C99.1518 209.927 96.4849 209.13 93.1398 208.992C89.7946 208.854 87.0685 209.433 87.0356 210.263Z" fill="#206FAD"/>
<path opacity="0.4" d="M87.0356 210.263C86.9961 211.112 89.6695 211.909 93.0147 212.054C96.3598 212.199 99.0859 211.626 99.1188 210.776C99.1518 209.927 96.4849 209.13 93.1398 208.992C89.7946 208.854 87.0685 209.433 87.0356 210.263Z" fill="white"/>
<path d="M87.7969 210.237C87.7973 210.291 87.8159 210.345 87.8496 210.388C88.2512 209.894 90.4835 209.598 93.1175 209.729C95.7514 209.861 97.9376 210.322 98.2932 210.856C98.3308 210.813 98.3539 210.76 98.359 210.704C98.359 210.131 96.0411 209.558 93.1306 209.44C90.2201 209.321 87.8232 209.664 87.7969 210.237Z" fill="#206FAD"/>
<path opacity="0.4" d="M87.7969 210.237C87.7973 210.291 87.8159 210.345 87.8496 210.388C88.2512 209.894 90.4835 209.598 93.1175 209.729C95.7514 209.861 97.9376 210.322 98.2932 210.856C98.3308 210.813 98.3539 210.76 98.359 210.704C98.359 210.131 96.0411 209.558 93.1306 209.44C90.2201 209.321 87.8232 209.664 87.7969 210.237Z" fill="#206FAD"/>
<path opacity="0.4" d="M87.8516 210.388C88.2137 210.921 90.3867 211.395 93.0273 211.507C95.6678 211.619 97.8869 211.33 98.2952 210.849C97.9396 210.316 95.7666 209.841 93.1195 209.723C90.4723 209.604 88.2532 209.894 87.8516 210.388Z" fill="#206FAD"/>
<path d="M85.6953 209.479C85.6953 210.322 88.3293 211.125 91.6744 211.264C95.0195 211.402 97.7456 210.836 97.7786 209.993C97.8115 209.15 95.1446 208.347 91.8061 208.202C88.4675 208.057 85.7348 208.636 85.6953 209.479Z" fill="#206FAD"/>
<path d="M85.7526 207.931L85.6875 209.464L97.7731 209.977L97.8381 208.444L85.7526 207.931Z" fill="#206FAD"/>
<path d="M85.793 207.945C85.793 208.795 88.4269 209.591 91.772 209.736C95.1172 209.881 97.8433 209.308 97.8762 208.459C97.9092 207.609 95.2423 206.813 91.9037 206.674C88.5652 206.536 85.793 207.102 85.793 207.945Z" fill="#206FAD"/>
<path opacity="0.4" d="M85.793 207.945C85.793 208.795 88.4269 209.591 91.772 209.736C95.1172 209.881 97.8433 209.308 97.8762 208.459C97.9092 207.609 95.2423 206.813 91.9037 206.674C88.5652 206.536 85.793 207.102 85.793 207.945Z" fill="white"/>
<path d="M86.5273 207.919C86.5278 207.974 86.5463 208.027 86.58 208.07C86.9817 207.576 89.214 207.287 91.8479 207.412C94.4819 207.537 96.6681 207.998 97.0237 208.531C97.0613 208.489 97.0844 208.436 97.0895 208.38C97.0895 207.813 94.7716 207.234 91.8611 207.115C88.9506 206.997 86.5537 207.346 86.5273 207.919Z" fill="#206FAD"/>
<path opacity="0.4" d="M86.5273 207.919C86.5278 207.974 86.5463 208.027 86.58 208.07C86.9817 207.576 89.214 207.287 91.8479 207.412C94.4819 207.537 96.6681 207.998 97.0237 208.531C97.0613 208.489 97.0844 208.436 97.0895 208.38C97.0895 207.813 94.7716 207.234 91.8611 207.115C88.9506 206.997 86.5537 207.346 86.5273 207.919Z" fill="#206FAD"/>
<path opacity="0.4" d="M86.582 208.07C86.9442 208.603 89.1172 209.078 91.7578 209.189C94.3983 209.301 96.6174 209.012 97.0257 208.531C96.6701 207.998 94.4971 207.524 91.8499 207.412C89.2028 207.3 86.9837 207.576 86.582 208.07Z" fill="#206FAD"/>
<path d="M85.8555 206.687C85.8555 207.53 88.4894 208.333 91.8345 208.472C95.1797 208.61 97.9058 208.044 97.9387 207.201C97.9717 206.358 95.3048 205.555 91.9662 205.41C88.6277 205.265 85.895 205.844 85.8555 206.687Z" fill="#206FAD"/>
<path d="M85.9127 205.139L85.8477 206.672L97.9332 207.185L97.9983 205.652L85.9127 205.139Z" fill="#206FAD"/>
<path d="M85.9258 205.153C85.9258 206.002 88.5597 206.799 91.9049 206.944C95.25 207.089 97.9761 206.516 98.009 205.667C98.042 204.817 95.3751 204.02 92.0366 203.882C88.698 203.744 85.9653 204.31 85.9258 205.153Z" fill="#206FAD"/>
<path opacity="0.4" d="M85.9258 205.153C85.9258 206.002 88.5597 206.799 91.9049 206.944C95.25 207.089 97.9761 206.516 98.009 205.667C98.042 204.817 95.3751 204.02 92.0366 203.882C88.698 203.744 85.9653 204.31 85.9258 205.153Z" fill="white"/>
<path d="M86.6992 205.127C86.6997 205.181 86.7182 205.235 86.7519 205.278C87.1536 204.784 89.3859 204.494 92.0198 204.62C94.6538 204.745 96.8399 205.206 97.1955 205.739C97.2331 205.697 97.2562 205.644 97.2614 205.587C97.2614 205.021 94.9435 204.442 92.033 204.323C89.1225 204.205 86.7256 204.56 86.6992 205.127Z" fill="#206FAD"/>
<path opacity="0.4" d="M86.6992 205.127C86.6997 205.181 86.7182 205.235 86.7519 205.278C87.1536 204.784 89.3859 204.494 92.0198 204.62C94.6538 204.745 96.8399 205.206 97.1955 205.739C97.2331 205.697 97.2562 205.644 97.2614 205.587C97.2614 205.021 94.9435 204.442 92.033 204.323C89.1225 204.205 86.7256 204.56 86.6992 205.127Z" fill="#206FAD"/>
<path opacity="0.4" d="M86.75 205.278C87.1122 205.812 89.2852 206.286 91.9257 206.398C94.5663 206.51 96.7854 206.22 97.1936 205.739C96.838 205.206 94.665 204.732 92.0179 204.62C89.3708 204.508 87.1517 204.784 86.75 205.278Z" fill="#206FAD"/>
<path d="M84.5859 204.369C84.5859 205.212 87.2199 206.016 90.565 206.154C93.9101 206.292 96.6363 205.726 96.6758 204.883C96.7153 204.04 94.0418 203.237 90.6967 203.092C87.3516 202.947 84.6254 203.507 84.5859 204.369Z" fill="#206FAD"/>
<path d="M84.6471 202.828L84.582 204.361L96.6676 204.873L96.7326 203.341L84.6471 202.828Z" fill="#206FAD"/>
<path d="M84.6526 202.848C84.6197 203.698 87.2866 204.494 90.6317 204.639C93.9768 204.784 96.703 204.211 96.7359 203.362C96.7688 202.512 94.102 201.722 90.7634 201.577C87.4249 201.433 84.6922 201.992 84.6526 202.848Z" fill="#206FAD"/>
<path opacity="0.4" d="M84.6526 202.848C84.6197 203.698 87.2866 204.494 90.6317 204.639C93.9768 204.784 96.703 204.211 96.7359 203.362C96.7688 202.512 94.102 201.722 90.7634 201.577C87.4249 201.433 84.6922 201.992 84.6526 202.848Z" fill="white"/>
<path d="M85.4258 202.809C85.4263 202.864 85.4448 202.917 85.4785 202.96C85.8867 202.467 88.1124 202.177 90.7464 202.302C93.3803 202.427 95.5731 202.888 95.9221 203.421C95.961 203.383 95.9845 203.331 95.9879 203.276C95.9879 202.704 93.6701 202.124 90.7595 202.006C87.849 201.887 85.4521 202.243 85.4258 202.809Z" fill="#206FAD"/>
<path opacity="0.4" d="M85.4258 202.809C85.4263 202.864 85.4448 202.917 85.4785 202.96C85.8867 202.467 88.1124 202.177 90.7464 202.302C93.3803 202.427 95.5731 202.888 95.9221 203.421C95.961 203.383 95.9845 203.331 95.9879 203.276C95.9879 202.704 93.6701 202.124 90.7595 202.006C87.849 201.887 85.4521 202.243 85.4258 202.809Z" fill="#206FAD"/>
<path opacity="0.4" d="M85.4805 202.96C85.8426 203.494 88.0156 203.968 90.6562 204.08C93.2967 204.192 95.5158 203.902 95.9241 203.421C95.5751 202.888 93.3955 202.414 90.7484 202.302C88.1013 202.19 85.8887 202.466 85.4805 202.96Z" fill="#206FAD"/>
<path d="M86.5278 202.407C86.4883 203.25 89.1617 204.053 92.5069 204.191C95.852 204.33 98.5781 203.763 98.611 202.921C98.644 202.078 95.9771 201.274 92.632 201.13C89.2868 200.985 86.5607 201.531 86.5278 202.407Z" fill="#206FAD"/>
<path d="M86.5846 200.856L86.5195 202.389L98.6051 202.902L98.6701 201.369L86.5846 200.856Z" fill="#206FAD"/>
<path d="M86.5981 200.873C86.5586 201.722 89.232 202.519 92.5706 202.664C95.9091 202.809 98.6418 202.236 98.6814 201.386C98.7209 200.537 96.0474 199.74 92.7023 199.602C89.3572 199.464 86.631 200.03 86.5981 200.873Z" fill="#206FAD"/>
<path opacity="0.4" d="M86.5981 200.873C86.5586 201.722 89.232 202.519 92.5706 202.664C95.9091 202.809 98.6418 202.236 98.6814 201.386C98.7209 200.537 96.0474 199.74 92.7023 199.602C89.3572 199.464 86.631 200.03 86.5981 200.873Z" fill="white"/>
<path d="M87.3603 200.873C87.3576 200.9 87.3609 200.928 87.37 200.954C87.3791 200.981 87.3937 201.004 87.413 201.024C87.8147 200.531 90.0469 200.234 92.6809 200.366C95.3148 200.498 97.5076 200.959 97.8632 201.485C97.8997 201.446 97.9208 201.394 97.9225 201.34C97.9225 200.768 95.6112 200.195 92.6941 200.07C89.777 199.944 87.3801 200.274 87.3603 200.873Z" fill="#206FAD"/>
<path opacity="0.4" d="M87.3603 200.873C87.3576 200.9 87.3609 200.928 87.37 200.954C87.3791 200.981 87.3937 201.004 87.413 201.024C87.8147 200.531 90.0469 200.234 92.6809 200.366C95.3148 200.498 97.5076 200.959 97.8632 201.485C97.8997 201.446 97.9208 201.394 97.9225 201.34C97.9225 200.768 95.6112 200.195 92.6941 200.07C89.777 199.944 87.3801 200.274 87.3603 200.873Z" fill="#206FAD"/>
<path opacity="0.4" d="M87.418 200.998C87.7736 201.525 89.9531 202.006 92.5937 202.117C95.2342 202.229 97.4467 201.94 97.8616 201.459C97.506 200.932 95.3264 200.451 92.6793 200.34C90.0322 200.228 87.8196 200.504 87.418 200.998Z" fill="#206FAD"/>
<path d="M78.004 211.659C78.2081 212.482 81.0067 212.489 84.2465 211.659C87.4863 210.829 89.9424 209.525 89.7383 208.702C89.5342 207.879 86.7422 207.873 83.5024 208.702C80.2626 209.532 77.7999 210.842 78.004 211.659Z" fill="#206FAD"/>
<path d="M89.3708 207.233L77.6367 210.171L78.0095 211.66L89.7435 208.721L89.3708 207.233Z" fill="#206FAD"/>
<path d="M77.6376 210.177C77.8417 210.994 80.6337 211.007 83.8735 210.177C87.1132 209.348 89.576 208.044 89.3653 207.227C89.1545 206.411 86.3691 206.398 83.1294 207.227C79.8896 208.057 77.4269 209.354 77.6376 210.177Z" fill="#206FAD"/>
<path opacity="0.4" d="M77.6376 210.177C77.8417 210.994 80.6337 211.007 83.8735 210.177C87.1132 209.348 89.576 208.044 89.3653 207.227C89.1545 206.411 86.3691 206.398 83.1294 207.227C79.8896 208.057 77.4269 209.354 77.6376 210.177Z" fill="white"/>
<path d="M78.3735 209.934C78.3878 209.985 78.4206 210.03 78.4657 210.059C78.7093 209.473 80.7441 208.564 83.3122 207.919C85.8803 207.273 88.0994 207.115 88.5801 207.524C88.5999 207.473 88.5999 207.416 88.5801 207.366C88.4418 206.812 86.0317 206.924 83.2068 207.636C80.3819 208.347 78.2352 209.374 78.3735 209.934Z" fill="#206FAD"/>
<path opacity="0.4" d="M78.3735 209.934C78.3878 209.985 78.4206 210.03 78.4657 210.059C78.7093 209.473 80.7441 208.564 83.3122 207.919C85.8803 207.273 88.0994 207.115 88.5801 207.524C88.5999 207.473 88.5999 207.416 88.5801 207.366C88.4418 206.812 86.0317 206.924 83.2068 207.636C80.3819 208.347 78.2352 209.374 78.3735 209.934Z" fill="#206FAD"/>
<path opacity="0.4" d="M78.4688 210.092C78.9626 210.5 81.1883 210.342 83.7367 209.696C86.285 209.051 88.3461 208.149 88.5831 207.556C88.0893 207.148 85.8702 207.313 83.3152 207.951C80.7603 208.59 78.7124 209.473 78.4688 210.092Z" fill="#206FAD"/>
<path d="M72.4023 211.797C72.4023 212.64 75.0363 213.443 78.3814 213.582C81.7265 213.72 84.4527 213.154 84.4856 212.311C84.5185 211.468 81.8517 210.665 78.5131 210.52C75.1746 210.375 72.4419 210.948 72.4023 211.797Z" fill="#206FAD"/>
<path d="M72.4635 210.25L72.3984 211.783L84.484 212.296L84.549 210.763L72.4635 210.25Z" fill="#206FAD"/>
<path d="M72.473 210.263C72.44 211.112 75.1069 211.909 78.452 212.054C81.7972 212.199 84.5233 211.626 84.5562 210.776C84.5891 209.927 81.9223 209.13 78.5837 208.992C75.2452 208.854 72.5125 209.433 72.473 210.263Z" fill="#206FAD"/>
<path opacity="0.4" d="M72.473 210.263C72.44 211.112 75.1069 211.909 78.452 212.054C81.7972 212.199 84.5233 211.626 84.5562 210.776C84.5891 209.927 81.9223 209.13 78.5837 208.992C75.2452 208.854 72.5125 209.433 72.473 210.263Z" fill="white"/>
<path d="M73.2383 210.237C73.2388 210.291 73.2573 210.345 73.291 210.388C73.6926 209.894 75.9249 209.598 78.5589 209.729C81.1928 209.861 83.379 210.322 83.7346 210.856C83.7722 210.813 83.7953 210.76 83.8004 210.704C83.8004 210.131 81.4826 209.558 78.572 209.44C75.6615 209.321 73.2778 209.664 73.2383 210.237Z" fill="#206FAD"/>
<path opacity="0.4" d="M73.2383 210.237C73.2388 210.291 73.2573 210.345 73.291 210.388C73.6926 209.894 75.9249 209.598 78.5589 209.729C81.1928 209.861 83.379 210.322 83.7346 210.856C83.7722 210.813 83.7953 210.76 83.8004 210.704C83.8004 210.131 81.4826 209.558 78.572 209.44C75.6615 209.321 73.2778 209.664 73.2383 210.237Z" fill="#206FAD"/>
<path opacity="0.4" d="M73.2812 210.388C73.6434 210.921 75.8164 211.395 78.457 211.507C81.0975 211.619 83.3166 211.33 83.7249 210.849C83.3693 210.316 81.1963 209.841 78.5492 209.723C75.902 209.604 73.6961 209.894 73.2812 210.388Z" fill="#206FAD"/>
<path d="M134.825 211.725C134.785 212.594 137.538 213.417 140.968 213.562C144.399 213.707 147.211 213.121 147.25 212.245C147.29 211.369 144.531 210.559 141.1 210.408C137.669 210.256 134.858 210.855 134.825 211.725Z" fill="#206FAD"/>
<path d="M134.875 210.131L134.809 211.703L147.236 212.231L147.303 210.658L134.875 210.131Z" fill="#206FAD"/>
<path d="M134.887 210.151C134.848 211.02 137.6 211.843 141.031 211.988C144.462 212.133 147.273 211.547 147.313 210.671C147.352 209.795 144.6 208.985 141.163 208.834C137.725 208.683 134.92 209.282 134.887 210.151Z" fill="#206FAD"/>
<path opacity="0.4" d="M134.887 210.151C134.848 211.02 137.6 211.843 141.031 211.988C144.462 212.133 147.273 211.547 147.313 210.671C147.352 209.795 144.6 208.985 141.163 208.834C137.725 208.683 134.92 209.282 134.887 210.151Z" fill="white"/>
<path d="M135.684 210.125C135.685 210.181 135.703 210.236 135.736 210.283C136.151 209.769 138.423 209.473 141.142 209.585C143.862 209.697 146.101 210.19 146.463 210.737C146.503 210.697 146.527 210.643 146.529 210.585C146.529 209.999 144.152 209.407 141.156 209.268C138.16 209.13 135.71 209.538 135.684 210.125Z" fill="#206FAD"/>
<path opacity="0.4" d="M135.684 210.125C135.685 210.181 135.703 210.236 135.736 210.283C136.151 209.769 138.423 209.473 141.142 209.585C143.862 209.697 146.101 210.19 146.463 210.737C146.503 210.697 146.527 210.643 146.529 210.585C146.529 209.999 144.152 209.407 141.156 209.268C138.16 209.13 135.71 209.538 135.684 210.125Z" fill="#206FAD"/>
<path opacity="0.4" d="M135.734 210.283C136.11 210.823 138.368 211.317 141.062 211.435C143.755 211.554 146.053 211.251 146.461 210.737C146.099 210.191 143.86 209.703 141.141 209.585C138.421 209.466 136.149 209.769 135.734 210.283Z" fill="#206FAD"/>
<path d="M133.512 209.341C133.479 210.21 136.232 211.033 139.662 211.185C143.093 211.336 145.905 210.743 145.938 209.868C145.971 208.992 143.225 208.175 139.794 208.024C136.363 207.872 133.552 208.472 133.512 209.341Z" fill="#206FAD"/>
<path d="M133.578 207.764L133.512 209.336L145.939 209.863L146.006 208.291L133.578 207.764Z" fill="#206FAD"/>
<path d="M133.586 207.767C133.547 208.636 136.299 209.459 139.73 209.611C143.161 209.762 145.973 209.17 146.012 208.294C146.052 207.418 143.292 206.602 139.862 206.45C136.431 206.299 133.619 206.898 133.586 207.767Z" fill="#206FAD"/>
<path opacity="0.4" d="M133.586 207.767C133.547 208.636 136.299 209.459 139.73 209.611C143.161 209.762 145.973 209.17 146.012 208.294C146.052 207.418 143.292 206.602 139.862 206.45C136.431 206.299 133.619 206.898 133.586 207.767Z" fill="white"/>
<path d="M134.371 207.741C134.372 207.798 134.391 207.853 134.424 207.899C134.839 207.385 137.11 207.089 139.823 207.201C142.536 207.313 144.788 207.807 145.151 208.353C145.188 208.311 145.211 208.258 145.216 208.202C145.216 207.616 142.833 207.023 139.837 206.885C136.84 206.747 134.397 207.155 134.371 207.741Z" fill="#206FAD"/>
<path opacity="0.4" d="M134.371 207.741C134.372 207.798 134.391 207.853 134.424 207.899C134.839 207.385 137.11 207.089 139.823 207.201C142.536 207.313 144.788 207.807 145.151 208.353C145.188 208.311 145.211 208.258 145.216 208.202C145.216 207.616 142.833 207.023 139.837 206.885C136.84 206.747 134.397 207.155 134.371 207.741Z" fill="#206FAD"/>
<path opacity="0.4" d="M134.43 207.899C134.798 208.439 137.064 208.933 139.75 209.051C142.437 209.17 144.748 208.867 145.156 208.353C144.794 207.807 142.555 207.319 139.829 207.201C137.103 207.082 134.845 207.385 134.43 207.899Z" fill="#206FAD"/>
<path d="M136.317 207.583C136.277 208.445 139.03 209.269 142.461 209.42C145.891 209.571 148.703 208.979 148.742 208.103C148.782 207.227 146.023 206.411 142.592 206.266C139.161 206.121 136.35 206.714 136.317 207.583Z" fill="#206FAD"/>
<path d="M136.371 205.992L136.305 207.565L148.732 208.092L148.799 206.52L136.371 205.992Z" fill="#206FAD"/>
<path d="M136.383 206.003C136.344 206.872 139.096 207.695 142.527 207.846C145.958 207.998 148.769 207.405 148.809 206.529C148.848 205.653 146.089 204.837 142.659 204.692C139.228 204.547 136.416 205.14 136.383 206.003Z" fill="#206FAD"/>
<path opacity="0.4" d="M136.383 206.003C136.344 206.872 139.096 207.695 142.527 207.846C145.958 207.998 148.769 207.405 148.809 206.529C148.848 205.653 146.089 204.837 142.659 204.692C139.228 204.547 136.416 205.14 136.383 206.003Z" fill="white"/>
<path d="M137.152 205.976C137.154 206.033 137.172 206.088 137.205 206.134C137.62 205.62 139.892 205.324 142.605 205.436C145.318 205.548 147.57 206.042 147.932 206.588C147.969 206.546 147.993 206.493 147.998 206.437C147.998 205.851 145.614 205.258 142.618 205.12C139.622 204.982 137.198 205.39 137.152 205.976Z" fill="#206FAD"/>
<path opacity="0.4" d="M137.152 205.976C137.154 206.033 137.172 206.088 137.205 206.134C137.62 205.62 139.892 205.324 142.605 205.436C145.318 205.548 147.57 206.042 147.932 206.588C147.969 206.546 147.993 206.493 147.998 206.437C147.998 205.851 145.614 205.258 142.618 205.12C139.622 204.982 137.198 205.39 137.152 205.976Z" fill="#206FAD"/>
<path opacity="0.4" d="M137.223 206.141C137.591 206.687 139.857 207.174 142.543 207.293C145.23 207.411 147.541 207.109 147.949 206.595C147.587 206.048 145.348 205.561 142.622 205.443C139.896 205.324 137.638 205.62 137.223 206.141Z" fill="#206FAD"/>
<path d="M136.356 205.199C136.316 206.068 139.069 206.892 142.5 207.036C145.93 207.181 148.742 206.595 148.782 205.719C148.821 204.844 146.062 204.027 142.631 203.882C139.201 203.737 136.389 204.33 136.356 205.199Z" fill="#206FAD"/>
<path d="M136.184 202.811L136.121 204.385L148.56 204.882L148.623 203.309L136.184 202.811Z" fill="#206FAD"/>
<path d="M136.414 203.625C136.375 204.494 139.127 205.317 142.558 205.462C145.989 205.607 148.801 205.021 148.84 204.145C148.88 203.27 146.121 202.453 142.69 202.308C139.259 202.163 136.447 202.756 136.414 203.625Z" fill="#206FAD"/>
<path opacity="0.4" d="M136.414 203.625C136.375 204.494 139.127 205.317 142.558 205.462C145.989 205.607 148.801 205.021 148.84 204.145C148.88 203.27 146.121 202.453 142.69 202.308C139.259 202.163 136.447 202.756 136.414 203.625Z" fill="white"/>
<path d="M137.211 203.599C137.212 203.654 137.231 203.707 137.264 203.751C137.678 203.237 139.95 202.941 142.663 203.053C145.376 203.165 147.628 203.665 147.99 204.205C148.031 204.165 148.054 204.111 148.056 204.053C148.056 203.467 145.679 202.875 142.676 202.736C139.674 202.598 137.237 203.006 137.211 203.599Z" fill="#206FAD"/>
<path opacity="0.4" d="M137.211 203.599C137.212 203.654 137.231 203.707 137.264 203.751C137.678 203.237 139.95 202.941 142.663 203.053C145.376 203.165 147.628 203.665 147.99 204.205C148.031 204.165 148.054 204.111 148.056 204.053C148.056 203.467 145.679 202.875 142.676 202.736C139.674 202.598 137.237 203.006 137.211 203.599Z" fill="#206FAD"/>
<path opacity="0.4" d="M137.262 203.75C137.63 204.297 139.896 204.784 142.589 204.903C145.282 205.021 147.58 204.718 147.989 204.205C147.626 203.665 145.387 203.171 142.661 203.052C139.935 202.934 137.677 203.237 137.262 203.75Z" fill="#206FAD"/>
<path d="M133.797 203.25C133.758 204.119 136.51 204.942 139.941 205.087C143.372 205.232 146.183 204.646 146.223 203.77C146.262 202.894 143.51 202.078 140.079 201.933C136.649 201.788 133.863 202.381 133.797 203.25Z" fill="#206FAD"/>
<path d="M133.868 201.691L133.801 203.264L146.228 203.793L146.295 202.221L133.868 201.691Z" fill="#206FAD"/>
<path d="M133.868 201.676C133.828 202.546 136.581 203.369 140.011 203.513C143.442 203.658 146.254 203.072 146.293 202.197C146.333 201.321 143.58 200.504 140.15 200.359C136.719 200.214 133.907 200.807 133.868 201.676Z" fill="#206FAD"/>
<path opacity="0.4" d="M133.868 201.676C133.828 202.546 136.581 203.369 140.011 203.513C143.442 203.658 146.254 203.072 146.293 202.197C146.333 201.321 143.58 200.504 140.15 200.359C136.719 200.214 133.907 200.807 133.868 201.676Z" fill="white"/>
<path d="M134.652 201.65C134.654 201.705 134.672 201.758 134.705 201.801C135.126 201.294 137.398 200.991 140.111 201.11C142.824 201.228 145.07 201.716 145.432 202.256C145.472 202.218 145.495 202.166 145.498 202.111C145.498 201.518 143.121 200.932 140.124 200.794C137.128 200.656 134.679 201.057 134.652 201.65Z" fill="#206FAD"/>
<path opacity="0.4" d="M134.652 201.65C134.654 201.705 134.672 201.758 134.705 201.801C135.126 201.294 137.398 200.991 140.111 201.11C142.824 201.228 145.07 201.716 145.432 202.256C145.472 202.218 145.495 202.166 145.498 202.111C145.498 201.518 143.121 200.932 140.124 200.794C137.128 200.656 134.679 201.057 134.652 201.65Z" fill="#206FAD"/>
<path opacity="0.4" d="M134.703 201.801C135.078 202.348 137.337 202.842 140.03 202.954C142.724 203.066 145.022 202.769 145.43 202.256C145.068 201.716 142.829 201.222 140.109 201.11C137.39 200.998 135.125 201.294 134.703 201.801Z" fill="#206FAD"/>
<path d="M149.84 207.991C149.478 208.762 151.638 210.533 154.661 211.942C157.683 213.351 160.429 213.917 160.784 213.127C161.14 212.337 158.987 210.592 155.964 209.176C152.942 207.761 150.196 207.227 149.84 207.991Z" fill="#206FAD"/>
<path d="M150.488 206.627L149.836 208.016L160.784 213.161L161.436 211.772L150.488 206.627Z" fill="#206FAD"/>
<path d="M150.493 206.608C150.131 207.372 152.29 209.143 155.313 210.559C158.335 211.975 161.081 212.535 161.437 211.744C161.792 210.954 159.639 209.203 156.617 207.793C153.594 206.384 150.848 205.838 150.493 206.608Z" fill="#206FAD"/>
<path opacity="0.4" d="M150.493 206.608C150.131 207.372 152.29 209.143 155.313 210.559C158.335 211.975 161.081 212.535 161.437 211.744C161.792 210.954 159.639 209.203 156.617 207.793C153.594 206.384 150.848 205.838 150.493 206.608Z" fill="white"/>
<path d="M151.202 206.878C151.183 206.929 151.183 206.985 151.202 207.036C151.762 206.74 153.915 207.319 156.306 208.445C158.696 209.571 160.527 210.855 160.652 211.481C160.701 211.458 160.741 211.418 160.764 211.369C161.007 210.849 159.071 209.394 156.431 208.175C153.79 206.957 151.446 206.364 151.202 206.878Z" fill="#206FAD"/>
<path opacity="0.4" d="M151.202 206.878C151.183 206.929 151.183 206.985 151.202 207.036C151.762 206.74 153.915 207.319 156.306 208.445C158.696 209.571 160.527 210.855 160.652 211.481C160.701 211.458 160.741 211.418 160.764 211.369C161.007 210.849 159.071 209.394 156.431 208.175C153.79 206.957 151.446 206.364 151.202 206.878Z" fill="#206FAD"/>
<path opacity="0.4" d="M151.203 207.036C151.328 207.695 153.179 208.946 155.543 210.072C157.907 211.198 160.093 211.784 160.652 211.481C160.527 210.855 158.677 209.571 156.306 208.445C153.936 207.319 151.763 206.74 151.203 207.036Z" fill="#206FAD"/>
<path d="M143.481 210.711C143.448 211.554 146.115 212.35 149.46 212.495C152.805 212.64 155.531 212.067 155.571 211.224C155.61 210.381 152.937 209.578 149.592 209.433C146.246 209.288 143.52 209.861 143.481 210.711Z" fill="#206FAD"/>
<path d="M143.538 209.155L143.473 210.688L155.558 211.201L155.623 209.668L143.538 209.155Z" fill="#206FAD"/>
<path d="M143.551 209.176C143.551 210.019 146.185 210.823 149.53 210.968C152.875 211.112 155.601 210.533 155.634 209.69C155.667 208.847 153 208.044 149.662 207.906C146.323 207.767 143.59 208.334 143.551 209.176Z" fill="#206FAD"/>
<path opacity="0.4" d="M143.551 209.176C143.551 210.019 146.185 210.823 149.53 210.968C152.875 211.112 155.601 210.533 155.634 209.69C155.667 208.847 153 208.044 149.662 207.906C146.323 207.767 143.59 208.334 143.551 209.176Z" fill="white"/>
<path d="M144.316 209.15C144.317 209.205 144.335 209.258 144.369 209.301C144.777 208.801 147.003 208.511 149.637 208.643C152.271 208.775 154.464 209.236 154.813 209.762C154.853 209.725 154.876 209.673 154.879 209.618C154.879 209.045 152.561 208.472 149.65 208.347C146.74 208.222 144.343 208.577 144.316 209.15Z" fill="#206FAD"/>
<path opacity="0.4" d="M144.316 209.15C144.317 209.205 144.335 209.258 144.369 209.301C144.777 208.801 147.003 208.511 149.637 208.643C152.271 208.775 154.464 209.236 154.813 209.762C154.853 209.725 154.876 209.673 154.879 209.618C154.879 209.045 152.561 208.472 149.65 208.347C146.74 208.222 144.343 208.577 144.316 209.15Z" fill="#206FAD"/>
<path opacity="0.4" d="M144.395 209.302C144.757 209.828 146.93 210.309 149.57 210.421C152.211 210.533 154.43 210.243 154.838 209.762C154.489 209.236 152.31 208.755 149.662 208.643C147.015 208.531 144.776 208.775 144.395 209.302Z" fill="#206FAD"/>
<path d="M110.82 44.4224C110.992 45.2389 111.156 45.9501 111.347 46.6942C111.538 47.4383 111.742 48.1363 111.959 48.887C112.388 50.3291 112.881 51.7646 113.428 53.2198C114.52 56.2426 116.015 59.1043 117.873 61.7275C118.42 62.4601 119.028 63.1452 119.69 63.7754C120.433 64.4879 121.279 65.085 122.199 65.5467C123.964 66.4051 125.924 66.7844 127.882 66.6464C129.596 66.528 131.279 66.1322 132.867 65.4743C133.614 65.1691 134.344 64.8217 135.053 64.4339C135.407 64.2334 135.75 64.0136 136.08 63.7754C136.409 63.5318 136.738 63.3276 137.107 63.0576L135.349 59.9562L134.427 60.1998L133.459 60.4303C132.801 60.5751 132.142 60.7002 131.484 60.7859C130.296 60.9679 129.089 60.9923 127.895 60.8583C126.939 60.7612 126.021 60.4311 125.221 59.8969C124.877 59.6496 124.559 59.3671 124.273 59.054C123.924 58.6371 123.602 58.1971 123.312 57.7371C122.644 56.6876 122.06 55.5867 121.567 54.4446C121.027 53.2528 120.553 51.995 120.105 50.7044C119.657 49.4138 119.256 48.0704 118.854 46.7535L118.288 44.778C118.11 44.1195 117.912 43.4215 117.774 42.8486L110.82 44.4224Z" fill="#FF8B7B"/>
<path d="M110.221 40.4319C113.21 36.6324 117.741 38.0218 120.289 44.0667C121.697 47.282 122.817 50.6161 123.634 54.0297L113.006 57.7633C110.214 52.0542 107.152 44.3236 110.221 40.4319Z" fill="#206FAD"/>
<path opacity="0.1" d="M110.221 40.4319C113.21 36.6324 117.741 38.0218 120.289 44.0667C121.697 47.282 122.817 50.6161 123.634 54.0297L113.006 57.7633C110.214 52.0542 107.152 44.3236 110.221 40.4319Z" fill="black"/>
<path opacity="0.3" d="M114.657 46.7864C113.788 46.1938 111.99 49.6509 111.16 53.7203C111.746 55.1426 112.372 56.5057 112.997 57.77L119.391 55.5246C118.344 51.6988 116.626 48.1034 114.657 46.7864Z" fill="black"/>
<path d="M135.884 58.3955L138.209 57.1246L139.025 62.3135C139.025 62.3135 135.14 64.6577 134.027 62.7218L134.146 61.4048C134.208 60.8093 134.395 60.2336 134.695 59.7152C134.994 59.1967 135.4 58.7471 135.884 58.3955Z" fill="#FF8B7B"/>
<path d="M141.128 56.8679L143.163 61.0427L139.008 62.3202L138.191 57.1247L141.128 56.8679Z" fill="#FF8B7B"/>
<path d="M110.162 37.0341L104.736 36.2505L97.9598 36.8431C96.9314 36.9329 95.9607 37.3577 95.197 38.0524C94.4333 38.7471 93.9188 39.6733 93.7324 40.6887C92.9727 45.6362 92.5219 50.6262 92.3824 55.6298C92.1454 61.2599 92.771 69.57 93.6994 77.0768L116.338 74.3375C116.556 54.5828 118.05 48.4655 118.235 43.2305C118.271 42.2018 117.969 41.1896 117.374 40.3496C116.779 39.5096 115.925 38.8884 114.942 38.5815L110.162 37.0341Z" fill="#206FAD"/>
<path d="M117.02 134.991L121.84 136.328L126.153 125.008L121.346 123.678L117.02 134.991Z" fill="#FF8B7B"/>
<path d="M123.989 134.826C123.608 134.331 123.056 133.995 122.442 133.885L117.483 132.923C117.372 132.898 117.256 132.915 117.158 132.971C117.059 133.027 116.985 133.118 116.95 133.226L115.429 137.75C115.344 137.998 115.36 138.269 115.473 138.506C115.587 138.742 115.788 138.925 116.035 139.014H116.087C117.918 139.739 119.156 139.488 122.014 140.042C123.772 140.384 127.472 141.556 129.915 141.457C132.358 141.358 132.385 138.909 131.344 138.725C127.657 138.152 124.832 135.939 123.989 134.826Z" fill="#263238"/>
<g opacity="0.2">
<path d="M126.153 125.015L123.854 131.034L119.113 129.512L121.339 123.678L126.153 125.015Z" fill="black"/>
</g>
<path d="M138.173 91.636C137.992 93.4286 137.666 95.2036 137.198 96.9435C135.927 101.856 133.754 106.86 131.93 111.74C128.401 121.38 125.306 129.756 125.306 129.756L118.721 127.478C118.721 127.478 124.647 99.584 128.644 96.7327H104.135C103.677 96.7329 103.22 96.7021 102.766 96.6406C106.987 96.094 113.565 93.493 119.669 90.8919C125.062 88.5872 130.106 86.2825 132.839 85.4133C136.184 86.8423 138.429 88.8243 138.173 91.636Z" fill="#263238"/>
<path opacity="0.1" d="M138.173 91.636C137.992 93.4286 137.666 95.2036 137.198 96.9435C135.927 101.856 133.754 106.86 131.93 111.74C128.401 121.38 125.306 129.756 125.306 129.756L118.721 127.478C118.721 127.478 124.647 99.584 128.644 96.7327H104.135C103.677 96.7329 103.22 96.7021 102.766 96.6406C106.987 96.094 113.565 93.493 119.669 90.8919C125.062 88.5872 130.106 86.2825 132.839 85.4133C136.184 86.8423 138.429 88.8243 138.173 91.636Z" fill="black"/>
<path opacity="0.6" d="M132.847 85.4396C130.108 86.3286 125.064 88.6135 119.677 90.9183C113.573 93.5193 106.995 96.1203 102.774 96.6669C95.6621 95.7186 92.9886 87.2439 100.423 77.4719C105.25 77.4719 110.103 82.0813 110.103 82.0813C110.103 82.0813 124.695 82.0089 132.847 85.4396Z" fill="black"/>
<path d="M150.586 125.265H155.972L150.329 111.74L146.668 117.949L150.586 125.265Z" fill="#FF8B7B"/>
<path d="M155.529 123.988L149.201 122.546C149.094 122.516 148.979 122.529 148.881 122.582C148.783 122.635 148.709 122.723 148.674 122.829L146.909 127.695C146.838 127.942 146.867 128.207 146.99 128.433C147.114 128.659 147.321 128.827 147.568 128.9H147.601C149.82 129.367 150.893 129.479 153.692 130.105C155.404 130.5 159.737 131.633 162.101 132.173C164.465 132.713 165.084 130.395 164.142 129.954C159.928 127.978 157.636 126.134 156.411 124.541C156.192 124.258 155.879 124.062 155.529 123.988Z" fill="#263238"/>
<g opacity="0.2">
<path d="M150.329 111.74L152.733 117.501L147.88 120.208L146.668 117.949L150.329 111.74Z" fill="black"/>
</g>
<path d="M152.805 115.454L146.879 119.042C146.879 119.042 141.933 108.658 137.205 96.9434C137.673 95.2036 137.999 93.4286 138.18 91.636C138.437 88.8243 136.205 86.8422 132.859 85.4462C130.12 86.3352 125.076 88.6201 119.69 90.9249C113.585 93.5259 107.007 96.1269 102.786 96.6735C102.302 96.7385 101.813 96.7737 101.324 96.7788C93.2119 96.7788 90.4133 89.6671 93.686 77.6036C98.5127 77.6036 106.777 77.0834 106.777 77.0834C106.777 77.0834 122.725 73.251 134.203 74.5548C136.926 74.8758 139.478 76.053 141.489 77.9168C143.501 79.7806 144.869 82.2349 145.397 84.926C148.354 99.5708 152.805 115.454 152.805 115.454Z" fill="#263238"/>
<path d="M152.805 115.454L146.879 119.042C146.879 119.042 141.933 108.658 137.205 96.9434C137.673 95.2036 137.999 93.4286 138.18 91.636C138.437 88.8243 136.205 86.8422 132.859 85.4462C130.12 86.3352 125.076 88.6201 119.69 90.9249C113.585 93.5259 107.007 96.1269 102.786 96.6735C102.302 96.7385 101.813 96.7737 101.324 96.7788C93.2119 96.7788 90.4133 89.6671 93.686 77.6036C98.5127 77.6036 106.777 77.0834 106.777 77.0834C106.777 77.0834 122.725 73.251 134.203 74.5548C136.926 74.8758 139.478 76.053 141.489 77.9168C143.501 79.7806 144.869 82.2349 145.397 84.926C148.354 99.5708 152.805 115.454 152.805 115.454Z" fill="#263238"/>
<path d="M110.162 37.0341L104.736 36.2505L97.9598 36.8431C96.9314 36.9329 95.9607 37.3577 95.197 38.0524C94.4333 38.7471 93.9188 39.6733 93.7324 40.6887C92.9727 45.6362 92.5219 50.6262 92.3824 55.6298C92.1454 61.2599 92.771 69.57 93.6994 77.0768L116.338 74.3375C116.556 54.5828 118.05 48.4655 118.235 43.2305C118.271 42.2018 117.969 41.1896 117.374 40.3496C116.779 39.5096 115.925 38.8884 114.942 38.5815L110.162 37.0341Z" fill="#206FAD"/>
<path d="M93.6428 75.8259L93.0567 77.6631C92.9843 77.8014 93.1423 77.9528 93.386 77.9594L115.985 76.6095C116.17 76.6095 116.328 76.5239 116.341 76.4054L116.585 74.5616C116.585 74.4299 116.44 74.318 116.242 74.3114L94.005 75.6745C93.9366 75.6653 93.867 75.6745 93.8034 75.7011C93.7397 75.7277 93.6843 75.7708 93.6428 75.8259Z" fill="#263238"/>
<path opacity="0.1" d="M93.6428 75.8259L93.0567 77.6631C92.9843 77.8014 93.1423 77.9528 93.386 77.9594L115.985 76.6095C116.17 76.6095 116.328 76.5239 116.341 76.4054L116.585 74.5616C116.585 74.4299 116.44 74.318 116.242 74.3114L94.005 75.6745C93.9366 75.6653 93.867 75.6745 93.8034 75.7011C93.7397 75.7277 93.6843 75.7708 93.6428 75.8259Z" fill="black"/>
<path opacity="0.3" d="M95.9352 38.8449C100.446 38.0548 100.222 48.3074 98.1675 55.8076C97.5749 57.9806 95.0068 57.0719 94.1375 56.5056C91.2863 54.6882 90.3249 42.1242 95.9352 38.8449Z" fill="black"/>
<path d="M95.3923 54.0299C95.5635 58.4615 94.1543 60.7859 96.5183 62.2675C98.8822 63.7491 112.849 68.3783 113.191 67.7989C112.533 68.8656 111.874 69.7743 111.216 70.8542C107.19 70.2484 103.162 69.6887 99.1325 69.1751C96.189 68.8063 91.4413 68.0491 89.1366 66.179C87.0426 64.4932 87.418 57.0918 87.7735 51.7581C89.6239 50.6584 95.3923 54.0299 95.3923 54.0299Z" fill="#FF8B7B"/>
<path d="M94.1842 37.0407C98.7936 35.6777 100.578 39.3915 99.169 45.7723C98.4587 49.2135 97.4383 52.5834 96.1202 55.8406L86.4141 52.7786C87.4676 46.5164 89.4299 38.4367 94.1842 37.0407Z" fill="#206FAD"/>
<path d="M100.937 37.0077C100.814 37.9917 101.065 38.9859 101.641 39.7931C102.209 40.5896 102.872 41.3128 103.617 41.9463C104.532 42.7826 105.625 43.6847 106.863 43.5201C108.002 43.3687 108.654 42.7958 109.115 41.4393C110.09 43.0131 110.136 43.7967 111.209 43.8955C111.557 43.8768 111.897 43.7829 112.205 43.6204C112.513 43.4578 112.782 43.2304 112.994 42.9538C113.389 42.6284 113.716 42.2283 113.957 41.7764C114.198 41.3244 114.347 40.8295 114.396 40.3199C114.653 38.3444 113.04 36.4875 111.157 35.7829C109.239 35.141 107.247 34.7471 105.23 34.6108C103.472 34.4264 101.259 34.9729 100.937 37.0077Z" fill="#206FAD"/>
<path opacity="0.3" d="M100.937 37.0077C100.814 37.9917 101.065 38.9859 101.641 39.7931C102.209 40.5896 102.872 41.3128 103.617 41.9463C104.532 42.7826 105.625 43.6847 106.863 43.5201C108.002 43.3687 108.654 42.7958 109.115 41.4393C110.09 43.0131 110.136 43.7967 111.209 43.8955C111.557 43.8768 111.897 43.7829 112.205 43.6204C112.513 43.4578 112.782 43.2304 112.994 42.9538C113.389 42.6284 113.716 42.2283 113.957 41.7764C114.198 41.3244 114.347 40.8295 114.396 40.3199C114.653 38.3444 113.04 36.4875 111.157 35.7829C109.239 35.141 107.247 34.7471 105.23 34.6108C103.472 34.4264 101.259 34.9729 100.937 37.0077Z" fill="black"/>
<path d="M105.653 27.4532L108.109 30.2913L111.447 34.1501C111.149 34.5641 110.926 35.0278 110.789 35.5197C110.562 36.0418 110.531 36.6282 110.701 37.1714C110.872 37.7146 111.233 38.1779 111.717 38.4763C112.224 38.7134 112.488 41.3803 109.13 41.1103C108.172 41.0938 107.228 40.88 106.357 40.4823C105.486 40.0847 104.706 39.5116 104.066 38.799C103.453 37.9759 103.289 37.5347 103.921 36.6326C105.712 34.0842 105.857 30.3901 105.653 27.4532Z" fill="#FF8B7B"/>
<path opacity="0.2" d="M110.647 33.1952L108.54 30.4098C108.54 30.4888 108.488 30.581 108.461 30.6732C108.358 31.0662 108.288 31.467 108.251 31.8716C108.125 33.2545 109.423 35.0258 110.687 35.783L110.786 35.5065C110.942 35.0385 111.163 34.5951 111.444 34.1895C111.461 34.1666 111.481 34.1465 111.503 34.1302L110.647 33.1952Z" fill="black"/>
<path d="M105.885 22.2314C105.503 26.8079 105.082 29.4747 107.044 32.0692C110.014 36.0201 115.927 34.6109 117.652 30.2122C119.206 26.2613 119.529 19.4328 115.328 17.0425C113.849 16.2257 112.105 16.0298 110.482 16.4977C108.858 16.9657 107.487 18.0593 106.669 19.5381C106.208 20.3655 105.941 21.2861 105.885 22.2314Z" fill="#FF8B7B"/>
<path d="M105.209 26.281L107.185 27.1305C107.843 26.8539 107.995 26.0572 107.949 25.3328C107.751 22.5408 112.789 19.1299 112.789 19.1299C112.789 19.1299 107.461 17.3783 105.861 17.1149C105.302 17.0227 103.287 18.4845 102.977 19.0903C102.563 19.9793 102.405 20.9662 102.522 21.9399C102.638 22.9136 103.024 23.8355 103.636 24.6019C104.105 25.2113 104.632 25.7737 105.209 26.281Z" fill="#263238"/>
<path d="M103.529 25.458C103.627 26.48 104.095 27.4308 104.846 28.1315C105.82 29.027 107.012 28.0525 107.157 26.7487C107.276 25.5897 106.69 23.8974 105.504 23.5089C104.319 23.1204 103.417 24.1806 103.529 25.458Z" fill="#FF8B7B"/>
<path d="M112.754 24.9772C112.681 25.3525 112.819 25.7015 113.063 25.7542C113.307 25.8069 113.537 25.5501 113.636 25.1747C113.735 24.7994 113.564 24.4504 113.32 24.3977C113.076 24.3451 112.793 24.5953 112.754 24.9772Z" fill="#263238"/>
<path d="M116.976 25.9056C116.904 26.2875 117.042 26.6365 117.292 26.6892C117.543 26.7418 117.786 26.4785 117.859 26.1097C117.931 25.7409 117.786 25.3854 117.543 25.3327C117.299 25.28 117.049 25.5302 116.976 25.9056Z" fill="#263238"/>
<path d="M115.566 25.8859C115.698 26.9608 115.968 28.0143 116.369 29.0203C116.114 29.1122 115.842 29.1463 115.572 29.1201C115.302 29.0939 115.041 29.0081 114.809 28.8688L115.566 25.8859Z" fill="#FF5652"/>
<path d="M113.743 30.9828C113.324 30.8372 112.939 30.6073 112.611 30.3072C112.284 30.0071 112.022 29.6431 111.84 29.2378C111.829 29.2107 111.829 29.1803 111.84 29.1533C111.851 29.1262 111.873 29.1045 111.9 29.0929C111.928 29.0836 111.96 29.0852 111.988 29.0973C112.016 29.1094 112.038 29.1313 112.051 29.1587C112.254 29.5958 112.555 29.9801 112.931 30.2816C113.306 30.5832 113.747 30.7938 114.217 30.8972C114.232 30.8988 114.246 30.9033 114.259 30.9105C114.272 30.9177 114.284 30.9274 114.293 30.9391C114.302 30.9507 114.309 30.964 114.313 30.9783C114.317 30.9926 114.318 31.0076 114.316 31.0223C114.311 31.0526 114.295 31.0798 114.27 31.0983C114.246 31.1167 114.215 31.1249 114.184 31.1211C114.033 31.0889 113.886 31.0426 113.743 30.9828Z" fill="#263238"/>
<path d="M112.173 23.4627C112.136 23.4552 112.103 23.434 112.081 23.4035C112.039 23.3615 112.016 23.3047 112.016 23.2454C112.016 23.1862 112.039 23.1293 112.081 23.0874C112.345 22.8502 112.663 22.6822 113.008 22.5983C113.353 22.5145 113.713 22.5173 114.056 22.6067C114.113 22.6235 114.161 22.662 114.189 22.7138C114.217 22.7656 114.224 22.8265 114.208 22.8833C114.188 22.939 114.148 22.9848 114.095 23.0106C114.042 23.0365 113.981 23.0405 113.925 23.0215C113.655 22.9597 113.375 22.9627 113.107 23.0302C112.84 23.0978 112.592 23.2279 112.384 23.41C112.357 23.4378 112.323 23.4574 112.286 23.4667C112.249 23.4761 112.21 23.4747 112.173 23.4627Z" fill="#263238"/>
<path d="M117.457 23.4693C117.447 23.4326 117.447 23.394 117.457 23.3573C117.464 23.3287 117.478 23.3019 117.496 23.2784C117.514 23.2549 117.536 23.2352 117.562 23.2205C117.588 23.2058 117.616 23.1964 117.646 23.1927C117.675 23.1891 117.705 23.1913 117.733 23.1993C118.073 23.2804 118.389 23.4425 118.652 23.6718C118.916 23.9011 119.12 24.1909 119.248 24.5163C119.264 24.5739 119.258 24.6357 119.23 24.6886C119.201 24.7414 119.154 24.7812 119.096 24.7994C119.04 24.8158 118.979 24.809 118.927 24.7806C118.875 24.7523 118.837 24.7046 118.82 24.648C118.718 24.3893 118.556 24.159 118.346 23.9767C118.136 23.7944 117.885 23.6655 117.615 23.601C117.58 23.5938 117.547 23.578 117.519 23.555C117.492 23.532 117.47 23.5026 117.457 23.4693Z" fill="#263238"/>
<path d="M118.854 75.3517L147.749 75.4373C148.252 75.4291 148.736 75.2371 149.108 74.8976C149.48 74.5581 149.716 74.0944 149.77 73.5936L151.087 58.962C151.112 58.7259 151.087 58.4871 151.013 58.2615C150.939 58.0359 150.818 57.8284 150.659 57.653C150.499 57.4775 150.303 57.3379 150.085 57.2435C149.868 57.149 149.632 57.1018 149.395 57.105L120.5 57.0194C119.996 57.0293 119.513 57.2226 119.14 57.5632C118.768 57.9038 118.533 58.3683 118.479 58.8698L117.162 73.4948C117.137 73.7309 117.162 73.9696 117.236 74.1953C117.31 74.4209 117.43 74.6283 117.59 74.8038C117.75 74.9793 117.946 75.1188 118.163 75.2133C118.381 75.3077 118.617 75.3549 118.854 75.3517Z" fill="#206FAD"/>
<path opacity="0.3" d="M118.854 75.3517L147.749 75.4373C148.252 75.4291 148.736 75.2371 149.108 74.8976C149.48 74.5581 149.716 74.0944 149.77 73.5936L151.087 58.962C151.112 58.7259 151.087 58.4871 151.013 58.2615C150.939 58.0359 150.818 57.8284 150.659 57.653C150.499 57.4775 150.303 57.3379 150.085 57.2435C149.868 57.149 149.632 57.1018 149.395 57.105L120.5 57.0194C119.996 57.0293 119.513 57.2226 119.14 57.5632C118.768 57.9038 118.533 58.3683 118.479 58.8698L117.162 73.4948C117.137 73.7309 117.162 73.9696 117.236 74.1953C117.31 74.4209 117.43 74.6283 117.59 74.8038C117.75 74.9793 117.946 75.1188 118.163 75.2133C118.381 75.3077 118.617 75.3549 118.854 75.3517Z" fill="black"/>
<path d="M119.704 75.2925L148.598 75.3781C149.103 75.3697 149.587 75.1768 149.96 74.836C150.332 74.4951 150.567 74.0298 150.62 73.5278L151.937 58.9027C151.963 58.667 151.939 58.4284 151.866 58.2028C151.792 57.9771 151.672 57.7696 151.513 57.594C151.353 57.4184 151.158 57.2787 150.941 57.1842C150.723 57.0897 150.488 57.0425 150.251 57.0458L121.357 56.9602C120.853 56.9715 120.37 57.1653 119.998 57.5056C119.626 57.8459 119.391 58.3096 119.335 58.8106L118.018 73.4356C117.992 73.6713 118.016 73.9099 118.089 74.1356C118.162 74.3612 118.283 74.5687 118.442 74.7443C118.601 74.92 118.796 75.0597 119.014 75.1542C119.231 75.2487 119.467 75.2958 119.704 75.2925Z" fill="#206FAD"/>
<path opacity="0.2" d="M119.704 75.2925L148.598 75.3781C149.103 75.3697 149.587 75.1768 149.96 74.836C150.332 74.4951 150.567 74.0298 150.62 73.5278L151.937 58.9027C151.963 58.667 151.939 58.4284 151.866 58.2028C151.792 57.9771 151.672 57.7696 151.513 57.594C151.353 57.4184 151.158 57.2787 150.941 57.1842C150.723 57.0897 150.488 57.0425 150.251 57.0458L121.357 56.9602C120.853 56.9715 120.37 57.1653 119.998 57.5056C119.626 57.8459 119.391 58.3096 119.335 58.8106L118.018 73.4356C117.992 73.6713 118.016 73.9099 118.089 74.1356C118.162 74.3612 118.283 74.5687 118.442 74.7443C118.601 74.92 118.796 75.0597 119.014 75.1542C119.231 75.2487 119.467 75.2958 119.704 75.2925Z" fill="white"/>
<path d="M137.006 66.3765C136.964 66.7781 136.805 67.1585 136.548 67.4695C136.291 67.7806 135.947 68.0084 135.56 68.1241C135.173 68.2399 134.761 68.2383 134.375 68.1197C133.989 68.0011 133.647 67.7708 133.392 67.4579C133.137 67.1449 132.981 66.7634 132.943 66.3615C132.905 65.9596 132.986 65.5555 133.178 65.2001C133.369 64.8447 133.662 64.5541 134.019 64.365C134.375 64.1759 134.78 64.0968 135.182 64.1377C135.448 64.1648 135.707 64.2443 135.943 64.3715C136.179 64.4988 136.388 64.6713 136.557 64.8792C136.727 65.0871 136.854 65.3263 136.931 65.5833C137.007 65.8402 137.033 66.1098 137.006 66.3765Z" fill="white"/>
<path d="M149.011 75.3583C149.011 76.2341 148.49 76.9452 147.858 76.9452L118.035 76.8267C117.713 76.8267 117.449 76.4711 117.449 76.0365C117.449 75.6019 117.713 75.2332 118.035 75.2332L149.011 75.3583Z" fill="#206FAD"/>
<path opacity="0.3" d="M149.011 75.3583C149.011 76.2341 148.49 76.9452 147.858 76.9452L118.035 76.8267C117.713 76.8267 117.449 76.4711 117.449 76.0365C117.449 75.6019 117.713 75.2332 118.035 75.2332L149.011 75.3583Z" fill="black"/>
<path d="M117.851 76.8333H103.496C103.129 76.8333 102.778 76.6876 102.518 76.4283C102.259 76.1689 102.113 75.8172 102.113 75.4505C102.113 75.4222 102.117 75.3941 102.127 75.3678C102.138 75.3415 102.153 75.3174 102.173 75.2972C102.192 75.2769 102.216 75.2608 102.242 75.2498C102.268 75.2388 102.296 75.2331 102.324 75.2332H117.851C117.956 75.2332 118.061 75.254 118.158 75.2944C118.255 75.3349 118.343 75.3942 118.417 75.4688C118.491 75.5435 118.55 75.6322 118.589 75.7296C118.629 75.827 118.649 75.9313 118.648 76.0365C118.648 76.2478 118.564 76.4505 118.415 76.5999C118.265 76.7493 118.063 76.8333 117.851 76.8333Z" fill="#206FAD"/>
<path d="M110.09 65.7511L112.473 65.0531L112.256 70.9202C112.256 70.9202 107.08 72.1384 106.758 69.7547L107.416 68.4706C107.989 67.3644 108.779 66.0738 110.09 65.7511Z" fill="#FF8B7B"/>
<path d="M116.044 66.6796L115.34 69.972L112.258 70.9136L112.475 65.0531L116.044 66.6796Z" fill="#FF8B7B"/>
<path d="M116.988 126.997L126.866 130.349L128.887 126.266L117.963 122.796L116.988 126.997Z" fill="#206FAD"/>
<path d="M145.361 119.852L154.468 114.769L152.796 110.535L142.898 116.316L145.361 119.852Z" fill="#206FAD"/>
<path d="M119.176 22.1854C120.533 22.1064 121.086 20.5062 120.921 19.8214C120.721 18.9179 120.172 18.13 119.394 17.6287C119.828 16.3117 119.242 14.705 117.609 13.5921C117.015 13.2486 116.351 13.0442 115.667 12.994C114.983 12.9438 114.296 13.0492 113.658 13.3024C113.658 12.1105 111.465 11.3269 110.056 12.8151C109.475 12.456 108.794 12.2946 108.114 12.3552C107.434 12.4157 106.791 12.6949 106.283 13.1509C106.106 13.3057 105.973 13.5053 105.899 13.7288C105.825 13.9523 105.812 14.1916 105.862 14.4218C105.301 14.4287 104.753 14.5865 104.275 14.8787C103.797 15.1709 103.407 15.5867 103.145 16.0822C102.884 16.5777 102.761 17.1346 102.789 17.6941C102.818 18.2537 102.996 18.7952 103.307 19.2617C103.748 19.9202 104.795 19.9202 105.585 19.749C105.804 20.1243 106.097 20.4507 106.447 20.7079C106.797 20.965 107.196 21.1474 107.62 21.2438C110.221 22.1064 113.797 21.2964 114.429 21.2438C115.06 21.1387 115.709 21.2674 116.253 21.6059C116.133 21.7719 115.979 21.9093 115.8 22.0084C115.621 22.1074 115.423 22.1656 115.219 22.1788C114.827 22.2183 114.432 22.1983 114.047 22.1195C114.927 22.7005 115.998 22.9198 117.036 22.7319C117.482 22.5078 117.939 22.3078 118.406 22.1327C118.722 22.0866 119.209 22.2315 119.176 22.1854Z" fill="#263238"/>
</svg>
