<svg width="230" height="230" viewBox="0 0 230 230" fill="none" xmlns="http://www.w3.org/2000/svg">
<path d="M190.433 141.789C208.932 123.29 208.932 93.2964 190.433 74.7971C171.934 56.2978 141.94 56.2978 123.441 74.7971C104.942 93.2964 104.942 123.29 123.441 141.789C141.94 160.288 171.934 160.288 190.433 141.789Z" fill="#206FAD"/>
<path opacity="0.4" d="M188.523 139.88C205.968 122.435 205.968 94.1509 188.523 76.7059C171.078 59.2608 142.794 59.2608 125.349 76.7059C107.904 94.151 107.904 122.435 125.349 139.88C142.794 157.325 171.078 157.325 188.523 139.88Z" fill="white"/>
<path opacity="0.7" d="M200.528 108.294C200.528 132.33 180.974 151.885 156.938 151.885C132.902 151.885 113.348 132.33 113.348 108.294C113.348 84.2587 132.902 64.7041 156.938 64.7041C164.631 64.7041 171.871 66.707 178.15 70.2271C191.49 77.6834 200.528 91.9523 200.528 108.294Z" fill="white"/>
<path opacity="0.2" d="M156.937 60.9224C130.775 60.9224 109.566 82.1309 109.566 108.293C109.566 134.455 130.775 155.664 156.937 155.664C183.099 155.664 204.308 134.455 204.308 108.293C204.308 82.1313 183.099 60.9224 156.937 60.9224ZM156.937 154.716C131.298 154.716 110.514 133.932 110.514 108.293C110.514 82.6543 131.298 61.8699 156.937 61.8699C182.576 61.8699 203.36 82.6543 203.36 108.293C203.361 133.932 182.576 154.716 156.937 154.716Z" fill="black"/>
<path d="M178.15 70.2276L156.938 108.624V64.7046C164.631 64.7046 171.871 66.7075 178.15 70.2276Z" fill="#206FAD"/>
<path opacity="0.5" d="M178.15 70.2276L156.938 108.624V64.7046C164.631 64.7046 171.871 66.7075 178.15 70.2276Z" fill="white"/>
<path d="M156.942 109.912C156.886 109.912 156.829 109.91 156.773 109.904C155.883 109.811 155.237 109.015 155.329 108.125L158.16 80.8897C158.252 79.9998 159.047 79.3513 159.938 79.4462C160.828 79.5389 161.475 80.3348 161.382 81.2247L158.551 108.46C158.464 109.293 157.761 109.912 156.942 109.912Z" fill="#263238"/>
<path d="M159.208 86.9911C159.19 86.9911 159.171 86.9902 159.152 86.988C158.855 86.9569 158.64 86.6916 158.671 86.3953L159.232 81.0013C159.263 80.705 159.526 80.4833 159.824 80.5201C160.121 80.5512 160.337 80.8165 160.306 81.1128L159.745 86.5068C159.716 86.7847 159.481 86.9911 159.208 86.9911Z" fill="#206FAD"/>
<g opacity="0.2">
<path d="M156.942 109.912C156.886 109.912 156.829 109.91 156.773 109.904C155.883 109.811 155.237 109.015 155.329 108.125L158.16 80.8897C158.252 79.9998 159.047 79.3513 159.938 79.4462C160.828 79.5389 161.475 80.3348 161.382 81.2247L158.551 108.46C158.464 109.293 157.761 109.912 156.942 109.912Z" fill="white"/>
<path d="M159.208 86.9911C159.19 86.9911 159.171 86.9902 159.152 86.988C158.855 86.9569 158.64 86.6916 158.671 86.3953L159.232 81.0013C159.263 80.705 159.526 80.4833 159.824 80.5201C160.121 80.5512 160.337 80.8165 160.306 81.1128L159.745 86.5068C159.716 86.7847 159.481 86.9911 159.208 86.9911Z" fill="white"/>
</g>
<path d="M156.938 66.9048V71.8882" stroke="#263238" stroke-width="0.449686" stroke-miterlimit="10" stroke-linecap="round" stroke-linejoin="round"/>
<path d="M156.938 144.697V149.681" stroke="#263238" stroke-width="0.449686" stroke-miterlimit="10" stroke-linecap="round" stroke-linejoin="round"/>
<path d="M198.328 108.292H193.344" stroke="#263238" stroke-width="0.449686" stroke-miterlimit="10" stroke-linecap="round" stroke-linejoin="round"/>
<path d="M120.534 108.292H115.551" stroke="#263238" stroke-width="0.449686" stroke-miterlimit="10" stroke-linecap="round" stroke-linejoin="round"/>
<path d="M136.785 72.1436L139.212 76.4965" stroke="#263238" stroke-width="0.449686" stroke-miterlimit="10" stroke-linecap="round" stroke-linejoin="round"/>
<path d="M174.668 140.09L177.095 144.443" stroke="#263238" stroke-width="0.449686" stroke-miterlimit="10" stroke-linecap="round" stroke-linejoin="round"/>
<path d="M120.785 128.447L125.138 126.02" stroke="#263238" stroke-width="0.449686" stroke-miterlimit="10" stroke-linecap="round" stroke-linejoin="round"/>
<path d="M188.73 90.5661L193.083 88.1392" stroke="#263238" stroke-width="0.449686" stroke-miterlimit="10" stroke-linecap="round" stroke-linejoin="round"/>
<path d="M177.095 72.1436L174.668 76.4965" stroke="#263238" stroke-width="0.449686" stroke-miterlimit="10" stroke-linecap="round" stroke-linejoin="round"/>
<path d="M139.212 140.09L136.785 144.443" stroke="#263238" stroke-width="0.449686" stroke-miterlimit="10" stroke-linecap="round" stroke-linejoin="round"/>
<path d="M193.083 128.447L188.73 126.02" stroke="#263238" stroke-width="0.449686" stroke-miterlimit="10" stroke-linecap="round" stroke-linejoin="round"/>
<path d="M125.138 90.5661L120.785 88.1392" stroke="#263238" stroke-width="0.449686" stroke-miterlimit="10" stroke-linecap="round" stroke-linejoin="round"/>
<path d="M156.935 109.913C156.669 109.913 156.399 109.847 156.149 109.709C155.367 109.274 155.086 108.288 155.521 107.506L172.021 77.8496C172.455 77.0681 173.442 76.7866 174.224 77.2219C175.006 77.6567 175.287 78.6429 174.852 79.4244L158.352 109.081C158.056 109.613 157.504 109.913 156.935 109.913Z" fill="#263238"/>
<path d="M159.371 108.293C159.371 109.636 158.282 110.724 156.939 110.724C155.597 110.724 154.508 109.636 154.508 108.293C154.508 106.95 155.597 105.861 156.939 105.861C158.282 105.861 159.371 106.95 159.371 108.293Z" fill="#263238"/>
<path opacity="0.2" d="M156.942 109.644C156.196 109.644 155.59 109.038 155.59 108.293C155.59 107.547 156.196 106.941 156.942 106.941C157.687 106.941 158.293 107.547 158.293 108.293C158.293 109.038 157.687 109.644 156.942 109.644Z" fill="white"/>
<path d="M170.586 84.2945C170.497 84.2945 170.408 84.2725 170.324 84.2266C170.064 84.0818 169.97 83.7531 170.115 83.4923L172.963 78.3748C173.108 78.114 173.436 78.0218 173.697 78.1657C173.957 78.3105 174.051 78.6392 173.906 78.9001L171.059 84.0175C170.96 84.1947 170.776 84.2945 170.586 84.2945Z" fill="#206FAD"/>
<path d="M82.1984 197.941L69.5355 202.564C69.5355 202.564 62.2017 199.46 55.0509 199.403C50.6822 199.369 41.7198 200.409 37.9793 202.861C33.1709 206.012 32.3832 208.606 33.1642 214.221C33.9451 219.835 44.9388 218.197 44.9388 218.197C44.9388 218.197 67.2207 216.946 72.9725 215.941C84.6637 213.898 101.029 213.766 101.029 213.766L82.1984 197.941Z" fill="#CC966D"/>
<path d="M38.2034 202.477C41.9975 200.04 51.0694 198.911 55.4735 198.986C62.6824 199.11 69.9813 202.719 69.9813 202.719L70.5433 202.738C65.1603 204.737 47.3877 202.334 47.4548 211.712C47.513 219.857 60.2914 215.825 63.2922 216.922L44.9579 218.743C44.9579 218.743 33.4454 219.72 32.7104 214.052C31.9755 208.384 33.3262 205.609 38.2034 202.477Z" fill="black"/>
<path d="M38.1331 202.457C41.9271 200.021 50.999 198.891 55.4032 198.967C58.2818 199.016 61.1743 199.622 63.6112 200.331C61.7528 199.911 59.7431 199.607 57.74 199.572C53.3358 199.497 44.264 200.626 40.4699 203.063C35.5927 206.195 34.2421 208.97 34.977 214.638C35.23 216.589 36.7596 217.753 38.6571 218.44C35.8118 217.936 32.9919 216.745 32.6402 214.033C31.9051 208.365 33.2558 205.59 38.1331 202.457Z" fill="#030405"/>
<path d="M38.7108 218.462C37.0683 218.171 35.667 217.758 34.6744 217.129C33.4394 216.347 32.73 215.309 32.5659 214.043C31.8319 208.382 33.1751 205.552 38.0935 202.393C41.8042 200.01 50.6858 198.809 55.4065 198.89C57.8966 198.933 60.665 199.393 63.6347 200.257L63.5962 200.406C61.5137 199.935 59.5435 199.68 57.7406 199.649C53.039 199.568 44.1988 200.761 40.5133 203.128C35.6569 206.247 34.3307 209.041 35.0551 214.628C35.2739 216.316 36.4829 217.656 38.6728 218.449L38.7108 218.462Z" fill="#030405"/>
<path d="M87.8268 158.993C70.6095 159.268 24.3919 151.395 17.7762 153.684C11.1604 155.973 8.53183 156.432 5.17859 164.98C1.82535 173.529 5.41582 181.038 18.679 188.209C31.9421 195.379 101.018 215.195 101.018 215.195L117.217 207.297C117.217 207.297 143.952 195.8 159.29 185.509C168.389 179.405 176.483 171.104 176.308 162.925C176.134 154.746 170.135 146.46 160.549 147.712C150.964 148.965 106.712 158.692 87.8268 158.993Z" fill="#010102"/>
<path d="M109.232 198.925C118.529 201.739 124.936 203.106 124.936 203.106C124.936 203.106 134.053 200.039 141.855 200.289C146.622 200.442 156.352 201.967 160.325 204.804C165.432 208.45 166.179 211.314 165.082 217.404C163.986 223.494 152.066 221.228 152.066 221.228C152.066 221.228 134.138 219.469 124.312 217.683C113.491 215.715 101.008 215.194 101.008 215.194L109.232 198.925Z" fill="#D8A77D"/>
<path d="M98.1979 193.456L97.875 193.01L139.047 163.111L139.37 163.557L98.1979 193.456Z" fill="white"/>
<path d="M108.044 198.818L47.4883 166.596L47.7355 166.104L108.291 198.326L108.044 198.818Z" fill="white"/>
<path d="M160.097 204.212C156.065 201.389 146.219 199.762 141.412 199.653C133.544 199.474 125.391 202.846 125.391 202.846L124.777 203.007C130.562 205.422 150.086 203.657 149.604 213.882C149.185 222.764 135.423 217.809 132.103 218.874L152.021 221.66C152.021 221.66 164.535 223.227 165.584 217.077C166.632 210.927 165.28 207.841 160.097 204.212Z" fill="black"/>
<path d="M160.174 204.194C156.141 201.37 146.296 199.743 141.489 199.634C138.347 199.563 135.165 200.097 132.477 200.764C134.522 200.387 136.727 200.143 138.913 200.193C143.721 200.302 153.566 201.929 157.598 204.752C162.782 208.381 164.134 211.467 163.085 217.617C162.724 219.734 161.005 220.936 158.906 221.603C162.031 221.177 165.159 220.002 165.661 217.058C166.709 210.908 165.357 207.823 160.174 204.194Z" fill="#030405"/>
<path d="M158.83 221.619C161.253 220.849 162.63 219.441 162.942 217.609C163.976 211.547 162.651 208.441 157.49 204.827C153.573 202.085 143.983 200.4 138.851 200.283C136.883 200.238 134.723 200.43 132.431 200.853L131.375 200.904C135.234 199.867 138.712 199.495 141.43 199.557C146.582 199.674 156.218 201.37 160.161 204.131C165.388 207.791 166.73 210.937 165.683 217.079C165.448 218.453 164.63 219.554 163.248 220.354C162.138 220.996 160.592 221.386 158.788 221.632L158.83 221.619Z" fill="#030405"/>
<path d="M148.547 133.299C141.306 89.0934 137.479 66.9012 87.535 67.6733C40.3024 68.4034 34.1228 91.5166 31.3404 133.299C30.5301 145.468 32.5179 148.958 39.9995 152.448C46.3154 153.99 52.7976 153.279 54.1836 148.996C54.1836 148.996 52.6773 160.36 58.0945 163.186C78.3099 166.968 107.949 167.588 125.431 161.756C130.583 159.928 129.93 148.792 129.93 148.792C129.93 148.792 133.216 151.219 136.611 150.942C147.156 150.082 149.796 140.923 148.547 133.299Z" fill="#206FAD"/>
<path d="M97.6769 67.3605V51.6909H79.7233V67.1165C79.7166 67.1558 79.707 67.1954 79.707 67.2363C79.707 79.8336 97.9169 78.8369 97.6769 67.3605Z" fill="#D8A77D"/>
<path d="M106.095 37.9145C106.095 49.8499 98.2821 64.3385 88.6449 64.3385C79.0077 64.3385 71.1953 49.8498 71.1953 37.9145C71.1953 25.9791 79.0078 16.3035 88.6449 16.3035C98.282 16.3035 106.095 25.9791 106.095 37.9145Z" fill="#D8A77D"/>
<path d="M88.6154 64.5477C85.8949 64.3488 83.5502 63.1413 82.0623 62.1635C80.4526 61.1055 79.4968 60.1084 79.457 60.0664L79.7603 59.7778C79.7698 59.7879 80.7294 60.7879 82.3016 61.8198C83.746 62.7678 86.0192 63.9382 88.646 64.1303L88.6154 64.5477Z" fill="#A1542E"/>
<path d="M74.3377 47.7651C76.2521 47.1373 76.9925 44.1536 75.9915 41.1009C74.9904 38.0482 72.6269 36.0824 70.7125 36.7102C68.798 37.338 68.0576 40.3216 69.0587 43.3744C70.0598 46.4271 72.4233 48.3929 74.3377 47.7651Z" fill="#D8A77D"/>
<path d="M72.6251 45.0625C72.5412 45.0058 70.57 43.6525 70.4834 41.7775C70.4363 40.7576 70.9564 39.7945 72.0292 38.9148L72.3018 39.2473C71.3403 40.0356 70.873 40.8797 70.9129 41.756C70.9884 43.4146 72.8473 44.6936 72.866 44.7064L72.6251 45.0625Z" fill="#A1542E"/>
<path d="M107.925 43.2988C108.926 40.246 108.186 37.2624 106.271 36.6346C104.357 36.0068 101.993 37.9726 100.992 41.0253C99.9912 44.078 100.732 47.0617 102.646 47.6895C104.56 48.3173 106.924 46.3515 107.925 43.2988Z" fill="#D8A77D"/>
<path d="M104.116 45.6704C104.2 45.6137 106.171 44.2603 106.258 42.3854C106.305 41.3655 105.785 40.4023 104.712 39.5227L104.439 39.8552C105.401 40.6435 105.868 41.4876 105.828 42.364C105.753 44.0226 103.894 45.3016 103.875 45.3143L104.116 45.6704Z" fill="#A1542E"/>
<path d="M81.2406 25.5735L73.1109 40.9173L71.2514 36.542C71.2514 36.542 70.3927 28.5432 70.9772 25.5736C71.8401 21.1902 73.9593 17.8432 78.2017 17.089C82.444 16.3347 81.2406 25.5735 81.2406 25.5735Z" fill="black"/>
<path d="M99.6328 34.9653C99.642 34.9846 99.6407 34.9856 99.6328 34.9653Z" fill="black"/>
<path d="M107.48 26.7446C107.482 26.7658 107.481 26.7663 107.48 26.7446Z" fill="black"/>
<path d="M107.578 29.6223C107.58 29.6436 107.579 29.6441 107.578 29.6223Z" fill="black"/>
<path d="M107.61 29.3442C107.823 27.8819 107.313 26.4138 106.613 25.1678C106.604 25.1014 106.595 25.0353 106.586 24.9691C107.383 25.9809 107.484 26.6366 107.494 26.7449C107.493 26.7104 107.495 26.6197 107.517 26.4665C107.847 24.2029 106.444 21.9253 105.285 20.4798C104.912 19.7566 104.457 19.1177 103.905 18.5974C102.162 16.9544 97.9066 13.5049 92.6581 13.1295C85.189 12.5953 82.8314 13.7357 81.1284 16.1408C78.7882 19.4458 80.4138 21.9647 80.8618 24.1965C81.0378 25.0732 81.4724 25.8784 82.1133 26.502C83.0771 27.44 84.7301 28.7554 86.991 29.4977C88.391 29.9573 89.5674 30.374 91.3215 30.7919C92.6722 31.3382 94.2988 31.9692 96.2522 32.6912C98.9383 33.684 99.5676 34.8242 99.6341 34.9655C99.6216 34.9334 99.5922 34.8476 99.561 34.6959C99.3471 33.6591 98.7833 32.746 98.0826 31.9686C102.309 32.7273 106.275 36.9893 106.293 36.6362C106.324 36.0259 106.951 32.1725 106.833 28.0502C107.489 28.9462 107.578 29.522 107.587 29.6227C107.586 29.5881 107.588 29.4975 107.61 29.3442Z" fill="black"/>
<path d="M57.0385 110.504L37.2656 129.176L37.7466 129.685L57.5196 111.014L57.0385 110.504Z" fill="white"/>
<path d="M69.5002 115.486L54.0352 148.98L54.6712 149.274L70.1363 115.78L69.5002 115.486Z" fill="white"/>
<path d="M91.0097 84.3643C89.1189 85.8424 86.3373 86.7622 84.174 88.0159C86.0515 88.1548 86.7917 90.6866 84.9943 91.6244C87.1806 91.9798 86.8816 94.1495 85.3059 95.2104C86.4195 95.0724 86.9086 96.6639 85.562 98.0452C85.5613 98.0451 83.0833 100.081 83.0833 100.081C80.408 103.432 76.3411 107.378 72.4344 109.83C71.1716 110.659 69.1731 113.824 68.4788 115.636L58.3828 110.346C59.3674 108.304 59.1984 108.75 59.7133 107.951C60.4504 106.805 62.059 104.114 62.1626 103.193C64.093 93.789 69.827 85.0603 75.7842 77.936C76.4081 76.8777 77.781 79.8798 76.2873 82.4048C75.0299 84.1703 73.5498 86.7893 72.2258 89.0477C71.9774 89.4715 72.4771 89.9355 72.8826 89.6584C79.3424 85.2442 95.8757 77.9512 91.0097 84.3643Z" fill="#D8A77D"/>
<path d="M79.5508 91.0919C79.6071 91.2184 79.6648 91.3483 79.7242 91.4815C81.2419 90.124 82.9933 89.3036 84.2976 88.834C84.4902 88.7647 84.6775 88.7012 84.8591 88.6428L84.7954 88.2358C84.5945 88.2995 84.3857 88.3699 84.1703 88.4474C82.8546 88.9202 81.0966 89.7404 79.5508 91.0919Z" fill="#A1542E"/>
<path d="M80.7344 94.3495C80.7904 94.4792 80.8468 94.6089 80.9028 94.7383C82.3548 93.5203 83.978 92.768 85.205 92.3257C85.3975 92.2563 85.5848 92.1929 85.7664 92.1345L85.7028 91.7275C85.5019 91.7912 85.293 91.8616 85.0776 91.9391C83.84 92.3841 82.2102 93.1367 80.7344 94.3495Z" fill="#A1542E"/>
<path d="M81.8594 97.6564C81.9153 97.7882 81.9702 97.9161 82.0231 98.0398C83.286 97.1258 84.6092 96.5289 85.6483 96.1545C85.8409 96.0853 86.0282 96.0218 86.2098 95.9633L86.1462 95.5564C85.9453 95.6201 85.7364 95.6904 85.521 95.768C84.4713 96.1453 83.1402 96.7436 81.8594 97.6564Z" fill="#A1542E"/>
<path d="M95.6103 107.975L108.822 108.178C110.559 108.205 112.003 106.805 112.029 105.068L112.565 70.1812C112.592 68.444 111.193 67.0009 109.456 66.9741L96.3255 66.7724C94.5433 66.7449 93.0627 68.1807 93.0354 69.9629L92.5004 104.768C92.4736 106.505 93.8731 107.948 95.6103 107.975Z" fill="#050505"/>
<path d="M126.621 112.483L114.777 116.469C113.82 114.951 113.193 113.984 113.15 113.996C109.952 110.956 106.699 110.769 103.9 109.192C103.714 109.088 103.516 108.972 103.307 108.845C101.678 107.865 99.4164 106.294 97.753 105.049C96.825 104.355 96.0828 103.763 95.7397 103.429C95.1568 103.128 93.3336 102.305 92.7364 102.003C90.9849 100.861 91.146 99.306 92.2833 99.0863C90.4762 98.5339 89.6281 96.1805 91.6982 95.3996C89.6558 94.9446 89.7906 92.1271 91.6194 91.5625C90.3049 91.1795 89.6308 88.3451 91.4697 88.0065C91.5728 87.9874 91.6836 87.9765 91.8034 87.9739C93.8703 88.1198 96.4202 88.4662 98.6419 89.2568C100.982 90.0807 104.232 91.5577 107.057 92.8096C107.901 93.1859 109.857 93.9102 110.174 91.9016C110.618 88.6853 106.39 81.5202 109.039 79.2001C109.253 79.0123 109.511 78.857 109.821 78.7373C110.768 78.3717 112.349 84.0475 113.025 86.2819C114.323 90.5709 117.633 97.4427 119.188 101.242C120.448 104.242 123.287 108.234 126.621 112.483Z" fill="#D8A77D"/>
<path d="M97.9973 92.786C97.9723 92.9273 97.9469 93.0725 97.9204 93.2215C96.0529 92.2355 94.085 91.8486 92.6547 91.7028C92.4436 91.6814 92.2392 91.6644 92.0418 91.6511L92.0039 91.2256C92.222 91.2393 92.4498 91.2578 92.686 91.2819C94.1285 91.428 96.1031 91.8131 97.9973 92.786Z" fill="#A1542E"/>
<path d="M97.6292 96.3591C97.6054 96.5038 97.5811 96.6484 97.5572 96.7925C95.791 95.9306 93.969 95.5802 92.6235 95.4423C92.4124 95.4209 92.2079 95.4039 92.0105 95.3906L91.9727 94.9651C92.1908 94.9788 92.4185 94.9973 92.6548 95.0214C94.0116 95.1592 95.8402 95.5083 97.6292 96.3591Z" fill="#A1542E"/>
<path d="M97.3205 99.9701C97.2972 100.117 97.274 100.259 97.2517 100.397C95.7519 99.7936 94.2708 99.5243 93.1313 99.4079C92.9202 99.3864 92.7158 99.3695 92.5183 99.3561L92.4805 98.9307C92.6986 98.9444 92.9264 98.9629 93.1626 98.987C94.3135 99.1038 95.8029 99.3723 97.3205 99.9701Z" fill="#A1542E"/>
<path d="M110.318 72.3362C111.042 71.2846 110.776 69.8453 109.725 69.1214C108.673 68.3975 107.234 68.6632 106.51 69.7148C105.786 70.7664 106.052 72.2057 107.103 72.9296C108.155 73.6535 109.594 73.3878 110.318 72.3362Z" fill="white"/>
<path d="M110.382 71.0506C110.396 69.9614 109.525 69.0664 108.436 69.0515C107.347 69.0367 106.452 69.9077 106.437 70.997C106.422 72.0862 107.293 72.9812 108.382 72.9961C109.472 73.0109 110.367 72.1399 110.382 71.0506Z" fill="black"/>
<path d="M103.844 69.2707C103.844 69.5758 104.092 69.823 104.397 69.8226C104.702 69.8222 104.949 69.5744 104.949 69.2692C104.949 68.964 104.701 68.7169 104.396 68.7173C104.091 68.7176 103.843 68.9654 103.844 69.2707Z" fill="white"/>
<path d="M127.215 111.446L126.734 111.956L146.507 130.624L146.988 130.115L127.215 111.446Z" fill="white"/>
<path d="M113.955 116.481L113.324 116.786L128.714 148.659L129.345 148.354L113.955 116.481Z" fill="white"/>
<path d="M90.8676 51.2032C89.9617 51.2032 89.156 51.1402 89.1055 51.1362L89.1425 50.4915C89.1606 50.4928 90.9563 50.6333 92.1754 50.4965C92.2505 50.3152 92.3927 49.3191 90.9969 44.0925C90.2091 41.1429 89.317 38.2995 89.308 38.2711L89.8222 38.0466C89.831 38.0748 90.7152 40.8929 91.5029 43.8353C93.1304 49.915 92.7661 50.6026 92.629 50.8615C92.5448 51.0205 92.416 51.1177 92.2665 51.1354C91.8344 51.1863 91.3374 51.2032 90.8676 51.2032Z" fill="#160707"/>
<path d="M81.4777 44.2633C82.4125 44.2633 83.1703 43.1121 83.1703 41.6921C83.1703 40.272 82.4125 39.1208 81.4777 39.1208C80.5429 39.1208 79.7852 40.272 79.7852 41.6921C79.7852 43.1121 80.5429 44.2633 81.4777 44.2633Z" fill="#160707"/>
<path d="M98.2355 44.4142C99.1703 44.4142 99.9281 43.263 99.9281 41.843C99.9281 40.4229 99.1703 39.2717 98.2355 39.2717C97.3007 39.2717 96.543 40.4229 96.543 41.843C96.543 43.263 97.3007 44.4142 98.2355 44.4142Z" fill="#160707"/>
<path d="M76.6267 37.7879L76.3164 37.0271C76.3735 36.9908 77.734 36.1298 79.4138 35.6356C81.7089 34.9604 83.4758 35.3166 84.523 36.6658L84.067 37.2938C81.8855 34.483 76.679 37.7545 76.6267 37.7879Z" fill="#160707"/>
<path d="M89.002 56.2849C88.7089 56.235 88.4262 56.1548 88.1539 56.0443C86.398 55.3318 85.7457 53.6271 85.7188 53.5548L86.1187 53.4058L85.9187 53.4803L86.1187 53.4055C86.1247 53.4215 86.7378 55.0116 88.3191 55.6507C89.4766 56.1185 90.8657 55.9749 92.4479 55.2239L92.6309 55.6096C91.2969 56.2428 90.0803 56.4686 89.002 56.2849Z" fill="#160707"/>
<path d="M101.994 37.8524C101.943 37.8184 96.7751 34.4848 94.5608 37.2647L94.1094 36.5624C95.1734 35.2265 96.9445 34.8926 99.2311 35.5967C100.905 36.1119 102.254 36.99 102.311 37.0271L101.994 37.8524Z" fill="#160707"/>
<path d="M134.524 33.3555H119.089C116.157 33.3555 113.781 35.732 113.781 38.6627V53.6634C113.781 56.5948 116.158 58.9707 119.089 58.9707H125.238L126.873 64.5745L128.809 58.9707H134.525C137.456 58.9707 139.832 56.5948 139.832 53.6634V38.6627C139.831 35.7313 137.455 33.3555 134.524 33.3555Z" fill="#206FAD"/>
<path opacity="0.7" d="M134.524 33.3555H119.089C116.157 33.3555 113.781 35.732 113.781 38.6627V53.6634C113.781 56.5948 116.158 58.9707 119.089 58.9707H125.238L126.873 64.5745L128.809 58.9707H134.525C137.456 58.9707 139.832 56.5948 139.832 53.6634V38.6627C139.831 35.7313 137.455 33.3555 134.524 33.3555Z" fill="white"/>
<path d="M121.446 43.1575C122.785 40.917 125.411 41.7376 126.786 43.4466C128.115 41.7021 130.719 40.8145 132.116 43.0195C134.472 46.7374 129.761 50.2708 127.532 51.6593C127.28 51.8192 127.071 51.9504 126.897 52.0536C126.72 51.9545 126.508 51.8288 126.251 51.6764C123.987 50.346 119.186 46.9349 121.446 43.1575Z" fill="#206FAD"/>
<path d="M218.429 165.57C218.429 165.57 213.737 161.659 209.714 165.57C205.69 169.482 204.914 193.715 204.914 193.715" stroke="#206FAD" stroke-width="0.669515" stroke-miterlimit="10"/>
<path d="M204.585 198.394C204.585 198.394 207.35 169.955 196.938 158.004" stroke="#206FAD" stroke-width="0.669515" stroke-miterlimit="10"/>
<path d="M205.574 195.397C205.574 195.397 203.444 163.023 211.253 155.839" stroke="#206FAD" stroke-width="0.669515" stroke-miterlimit="10"/>
<path d="M204.584 195.397C204.584 195.397 204.402 174.004 198.598 170.678C192.794 167.353 189.836 178.2 189.836 178.2" stroke="#206FAD" stroke-width="0.669515" stroke-miterlimit="10"/>
<path d="M206.876 195.397C206.876 195.397 205.929 178.973 210.426 173.104C214.923 167.234 219.656 175.618 219.656 175.618" stroke="#206FAD" stroke-width="0.669515" stroke-miterlimit="10"/>
<path d="M205.31 197.597C205.31 197.597 208.218 159.187 203.406 152.68" stroke="#206FAD" stroke-width="0.669515" stroke-miterlimit="10"/>
<path d="M193.628 173.794C193.628 173.794 196.522 174.861 195.662 177.38C194.802 179.898 185.651 184.043 185.651 184.043C185.651 184.043 181.819 180.53 185.339 174.817C188.858 169.104 193.55 171.992 193.628 173.794Z" fill="#206FAD"/>
<path opacity="0.2" d="M193.628 173.794C193.628 173.794 196.522 174.861 195.662 177.38C194.802 179.898 185.651 184.043 185.651 184.043C185.651 184.043 181.819 180.53 185.339 174.817C188.858 169.104 193.55 171.992 193.628 173.794Z" fill="white"/>
<path d="M206.205 169C206.205 169 203.123 168.871 202.949 171.527C202.774 174.183 209.624 181.53 209.624 181.53C209.624 181.53 214.513 179.762 213.463 173.135C212.412 166.508 206.97 167.367 206.205 169Z" fill="#206FAD"/>
<path opacity="0.2" d="M206.205 169C206.205 169 203.123 168.871 202.949 171.527C202.774 174.183 209.624 181.53 209.624 181.53C209.624 181.53 214.513 179.762 213.463 173.135C212.412 166.508 206.97 167.367 206.205 169Z" fill="white"/>
<path d="M208.816 156.287C208.816 156.287 206.761 156.066 206.928 154.815C207.093 153.564 214.914 150.343 219.529 155.551C219.529 155.551 216.574 160.627 212.303 160.693C208.031 160.76 208.816 156.287 208.816 156.287Z" fill="#206FAD"/>
<path opacity="0.2" d="M208.816 156.287C208.816 156.287 206.761 156.066 206.928 154.815C207.093 153.564 214.914 150.343 219.529 155.551C219.529 155.551 216.574 160.627 212.303 160.693C208.031 160.76 208.816 156.287 208.816 156.287Z" fill="white"/>
<path d="M204.989 153.249C204.989 153.249 206.849 154.149 207.37 152.999C207.891 151.849 202.957 144.98 196.287 146.959C196.287 146.959 196.11 152.829 199.7 155.144C203.29 157.46 204.989 153.249 204.989 153.249Z" fill="#206FAD"/>
<path opacity="0.2" d="M204.989 153.249C204.989 153.249 206.849 154.149 207.37 152.999C207.891 151.849 202.957 144.98 196.287 146.959C196.287 146.959 196.11 152.829 199.7 155.144C203.29 157.46 204.989 153.249 204.989 153.249Z" fill="white"/>
<path d="M214.711 172.783C214.711 172.783 213.293 171.638 214.824 171.079C216.354 170.52 223.863 170.679 223.941 178.116C223.941 178.116 215.196 179.569 214.113 176.736C213.031 173.903 214.711 172.783 214.711 172.783Z" fill="#206FAD"/>
<path opacity="0.2" d="M214.711 172.783C214.711 172.783 213.293 171.638 214.824 171.079C216.354 170.52 223.863 170.679 223.941 178.116C223.941 178.116 215.196 179.569 214.113 176.736C213.031 173.903 214.711 172.783 214.711 172.783Z" fill="white"/>
<path d="M196.881 156.101C196.881 156.101 198.3 154.957 196.769 154.398C195.239 153.839 187.73 153.998 187.652 161.435C187.652 161.435 196.397 162.888 197.48 160.055C198.563 157.222 196.881 156.101 196.881 156.101Z" fill="#206FAD"/>
<path opacity="0.2" d="M196.881 156.101C196.881 156.101 198.3 154.957 196.769 154.398C195.239 153.839 187.73 153.998 187.652 161.435C187.652 161.435 196.397 162.888 197.48 160.055C198.563 157.222 196.881 156.101 196.881 156.101Z" fill="white"/>
<path d="M201.505 162.092C201.505 162.092 201.63 160.701 200.506 161.247C199.383 161.792 195.469 166.014 199.526 170.021C199.526 170.021 204.988 165.977 204.003 163.87C203.018 161.763 201.505 162.092 201.505 162.092Z" fill="#206FAD"/>
<path opacity="0.2" d="M201.505 162.092C201.505 162.092 201.63 160.701 200.506 161.247C199.383 161.792 195.469 166.014 199.526 170.021C199.526 170.021 204.988 165.977 204.003 163.87C203.018 161.763 201.505 162.092 201.505 162.092Z" fill="white"/>
<path d="M215.984 164.075C215.984 164.075 215.137 162.964 216.379 162.826C217.62 162.689 223.183 164.174 221.888 169.727C221.888 169.727 215.11 169.218 214.82 166.911C214.528 164.605 215.984 164.075 215.984 164.075Z" fill="#206FAD"/>
<path opacity="0.2" d="M215.984 164.075C215.984 164.075 215.137 162.964 216.379 162.826C217.62 162.689 223.183 164.174 221.888 169.727C221.888 169.727 215.11 169.218 214.82 166.911C214.528 164.605 215.984 164.075 215.984 164.075Z" fill="white"/>
<path d="M193.087 216.014H216.341L218.85 190.554H190.578L193.087 216.014Z" fill="#206FAD"/>
<path opacity="0.5" d="M193.087 216.014H216.341L218.85 190.554H190.578L193.087 216.014Z" fill="white"/>
<path d="M189.34 193.363H220.094V187.745H189.34V193.363Z" fill="#206FAD"/>
<path opacity="0.2" d="M189.34 193.363H220.094V187.745H189.34V193.363Z" fill="white"/>
</svg>
